<?xml version="1.0" standalone="no"?>
<!DOCTYPE svg PUBLIC "-//W3C//DTD SVG 1.1//EN" "http://www.w3.org/Graphics/SVG/1.1/DTD/svg11.dtd" >
<svg xmlns="http://www.w3.org/2000/svg" xmlns:xlink="http://www.w3.org/1999/xlink" version="1.1">
<metadata>
Created by FontForge 20201107 at Fri Jul 16 11:21:41 2021
 By Jimmy Wärting
Copyright (c) 2021 by www.fontiran.com (Moslem Ebrahimi). All rights reserved.
</metadata>
<defs>
<font id="IRANSansX-Bold" horiz-adv-x="0" >
  <font-face 
    font-family="IRANSansX Bold"
    font-weight="700"
    font-stretch="normal"
    units-per-em="1000"
    panose-1="0 0 0 0 0 0 0 0 0 0"
    ascent="800"
    descent="-200"
    x-height="528"
    cap-height="711"
    bbox="-93 -525 2334 1066"
    underline-thickness="32"
    underline-position="-229"
    unicode-range="U+000D-FEFF"
  />
<missing-glyph horiz-adv-x="255" 
d="M38 429h179v-433h-179v433zM208 4v417h-161v-417h161z" />
    <glyph glyph-name="uni06AA" unicode="&#x6a9;&#x621;&#x621;" horiz-adv-x="1239" 
d="M429 136h9q219 0 391 7t268 19q0 33 -23 49.5t-89 23.5t-203 7q-171 0 -259 12t-130 43q-6 30 -6 58q0 87 51 161t138.5 121.5t192.5 61.5l27 -135q-82 -13 -147 -40.5t-105.5 -60t-56.5 -62.5q40 -12 121 -17t278 -5q150 0 226 -45.5t76 -142.5q0 -59 -21.5 -94t-64 -53
t-112.5 -28q-104 -15 -223.5 -21.5t-328.5 -6.5h-9v148zM157.5 42q-102.5 55 -111.5 154l-1 24q0 43 12 93t29 89l96 -46q-26 -81 -26 -122q0 -27 32.5 -49t96 -35t154.5 -13q3 -37 3 -74t-3 -75q-179 -1 -281.5 54z" />
    <glyph glyph-name="uni06AA.001" unicode="&#x6af;&#x621;&#x621;" horiz-adv-x="1239" 
d="M429 136h9q219 0 391 7t268 19q0 33 -23 49.5t-89 23.5t-203 7q-171 0 -259 12t-130 43q-6 30 -6 58q0 87 51 161t138.5 121.5t192.5 61.5l27 -135q-82 -13 -147 -40.5t-105.5 -60t-56.5 -62.5q40 -12 121 -17t278 -5q150 0 226 -45.5t76 -142.5q0 -59 -21.5 -94t-64 -53
t-112.5 -28q-104 -15 -223.5 -21.5t-328.5 -6.5h-9v148zM157.5 42q-102.5 55 -111.5 154l-1 24q0 43 12 93t29 89l96 -46q-26 -81 -26 -122q0 -27 32.5 -49t96 -35t154.5 -13q3 -37 3 -74t-3 -75q-179 -1 -281.5 54zM486 717q76 52 158 72l12 -61q-73 -18 -142 -65.5
t-109 -107.5l-28 56q33 54 109 106z" />
    <glyph glyph-name="uni06AA.fina" unicode="&#xfeda;&#x621;&#x621;" horiz-adv-x="1254" 
d="M1175 24.5q-33 24.5 -51 63.5t-17 81q0 4 35.5 20.5t35.5 13.5q5 -31 20.5 -42.5t51.5 -11.5h10v-149h-10q-42 0 -75 24.5zM429 136h9q219 0 391 7t268 19q0 33 -23 49.5t-89 23.5t-203 7q-171 0 -259 12t-130 43q-6 30 -6 58q0 87 51 161t138.5 121.5t192.5 61.5
l27 -135q-82 -13 -147 -40.5t-105.5 -60t-56.5 -62.5q40 -12 121 -17t278 -5q150 0 226 -45.5t76 -142.5q0 -59 -21.5 -94t-64 -53t-112.5 -28q-104 -15 -223.5 -21.5t-328.5 -6.5h-9v148zM157.5 42q-102.5 55 -111.5 154l-1 24q0 43 12 93t29 89l96 -46q-26 -81 -26 -122
q0 -27 32.5 -49t96 -35t154.5 -13q3 -37 3 -74t-3 -75q-179 -1 -281.5 54z" />
    <glyph glyph-name="uni06AA.fina.001" unicode="&#xfb93;&#x621;&#x621;" horiz-adv-x="1254" 
d="M1175 24.5q-33 24.5 -51 63.5t-17 81q0 4 35.5 20.5t35.5 13.5q5 -31 20.5 -42.5t51.5 -11.5h10v-149h-10q-42 0 -75 24.5zM429 136h9q219 0 391 7t268 19q0 33 -23 49.5t-89 23.5t-203 7q-171 0 -259 12t-130 43q-6 30 -6 58q0 87 51 161t138.5 121.5t192.5 61.5
l27 -135q-82 -13 -147 -40.5t-105.5 -60t-56.5 -62.5q40 -12 121 -17t278 -5q150 0 226 -45.5t76 -142.5q0 -59 -21.5 -94t-64 -53t-112.5 -28q-104 -15 -223.5 -21.5t-328.5 -6.5h-9v148zM157.5 42q-102.5 55 -111.5 154l-1 24q0 43 12 93t29 89l96 -46q-26 -81 -26 -122
q0 -27 32.5 -49t96 -35t154.5 -13q3 -37 3 -74t-3 -75q-179 -1 -281.5 54zM485 709q76 52 159 72l12 -60q-74 -19 -143 -66.5t-108 -107.5l-28 56q32 54 108 106z" />
    <glyph glyph-name="uni06AA.medi" unicode="&#xfedc;&#xfe8c;&#xfe8c;" horiz-adv-x="918" 
d="M839 25q-33 25 -51.5 64t-18.5 80q1 4 36.5 20t35.5 14q5 -31 20.5 -42.5t51.5 -11.5h10v-149h-10q-41 0 -74 25zM-5 149h28q217 0 429 3.5t311 10.5q0 33 -23 49.5t-89 23.5t-203 7q-171 0 -259 12t-130 43q-6 30 -6 58q0 87 51 160.5t138 121.5t193 62l27 -135
q-82 -13 -147 -40.5t-106 -60t-56 -62.5q40 -13 122 -18t277 -5q150 0 226 -45t76 -142q0 -87 -49 -128.5t-149 -46.5q-113 -7 -282.5 -12t-350.5 -5h-28v149z" />
    <glyph glyph-name="uni06AA.medi.001" unicode="&#xfb95;&#xfe8c;&#xfe8c;" horiz-adv-x="918" 
d="M839 25q-33 25 -51.5 64t-18.5 80q1 4 36.5 20t35.5 14q5 -31 20.5 -42.5t51.5 -11.5h10v-149h-10q-41 0 -74 25zM-5 149h28q217 0 429 3.5t311 10.5q0 33 -23 49.5t-89 23.5t-203 7q-171 0 -259 12t-130 43q-6 30 -6 58q0 87 51 160.5t138 121.5t193 62l27 -135
q-82 -13 -147 -40.5t-106 -60t-56 -62.5q40 -13 122 -18t277 -5q150 0 226 -45t76 -142q0 -87 -49 -128.5t-149 -46.5q-113 -7 -282.5 -12t-350.5 -5h-28v149zM147 710q76 52 158 72l12 -61q-73 -18 -142.5 -65.5t-108.5 -107.5l-29 56q34 54 110 106z" />
    <glyph glyph-name="uni06AA.init" unicode="&#xfedb;&#xfe8c;&#xfe8c;" horiz-adv-x="905" 
d="M-5 149h28q217 0 429 3.5t311 10.5q0 33 -23 49.5t-89 23.5t-203 7q-171 0 -259 12t-130 43q-6 30 -6 58q0 87 51 160.5t138 121.5t193 62l27 -135q-82 -13 -147 -40.5t-106 -60t-56 -62.5q40 -13 122 -18t277 -5q150 0 226 -45t76 -142q0 -87 -49 -128.5t-149 -46.5
q-113 -7 -282.5 -12t-350.5 -5h-28v149z" />
    <glyph glyph-name="uni06AA.init.001" unicode="&#xfb94;&#xfe8c;&#xfe8c;" horiz-adv-x="905" 
d="M-5 149h28q217 0 429 3.5t311 10.5q0 33 -23 49.5t-89 23.5t-203 7q-171 0 -259 12t-130 43q-6 30 -6 58q0 87 51 160.5t138 121.5t193 62l27 -135q-82 -13 -147 -40.5t-106 -60t-56 -62.5q40 -13 122 -18t277 -5q150 0 226 -45t76 -142q0 -87 -49 -128.5t-149 -46.5
q-113 -7 -282.5 -12t-350.5 -5h-28v149zM147 710q76 52 158 72l12 -61q-73 -18 -142.5 -65.5t-108.5 -107.5l-29 56q34 54 110 106z" />
    <glyph glyph-name="uni0647.fina.alt" unicode="&#xfeea;&#x621;&#x621;&#x621;" horiz-adv-x="673" 
d="M440.5 21.5q-85.5 21.5 -132.5 71.5t-60 137q-3 18 -3 36q0 52 21 101t57.5 81t80.5 36q5 1 15 1q67 0 121 -60t74 -151q4 -15 4 -33q0 -68 -56 -122.5t-142.5 -85t-170.5 -30.5q-75 0 -128.5 26t-70.5 78q-17 56 -17 94q0 62 45 115t156 107.5t308 114.5l55 -138
q-456 -125 -456 -220q0 -6 3 -14q6 -17 30.5 -25.5t60.5 -8.5q56 0 121 17.5t109.5 47.5t44.5 64q0 24 -15 44.5t-37.5 31.5t-44.5 8q-34 -7 -56 -36.5t-17 -62.5q8 -51 84.5 -74t236.5 -23h16v-149h-16q-135 0 -220.5 21.5z" />
    <glyph glyph-name="uni0647.medi.alt" unicode="&#xfeec;&#xfe8c;&#xfe8c;" horiz-adv-x="483" 
d="M188 -222q-64 38 -103.5 112.5t-39.5 181.5q0 79 19.5 163.5t49 151t57.5 92.5l72 17q71 -40 114 -107.5t43 -143.5q0 -121 -100 -183t-275 -62h-29v149h29q82 0 143.5 13.5t94.5 36t33 48.5q0 24 -19.5 52t-53.5 50q-29 -42 -50 -117t-21 -151q0 -69 31 -119t80 -68
q-4 20 -4 43q0 58 27 106.5t74 77t105 28.5h24l8 -75l-8 -74h-23q-43 0 -70 -23t-27 -57q0 -32 24 -63l-66 -121q-75 4 -139 42z" />
    <glyph glyph-name="uni0647.init.alt" unicode="&#xfeeb;&#xfe8c;&#xfe8c;" horiz-adv-x="482" 
d="M221 176q69 27 69 81q0 29 -22.5 58.5t-52.5 46.5q-22 -48 -40 -121.5t-22 -141.5q-1 -11 -1 -33q0 -57 16 -101.5t43.5 -69t61.5 -24.5q25 0 39 14t11 34q-7 39 -50.5 67.5t-118.5 35.5l7 109q107 -17 182 -66t88 -137q2 -16 2 -25q0 -45 -21 -82t-57.5 -59t-81.5 -22
q-62 0 -113.5 38.5t-82 111.5t-30.5 171q0 26 1 39q5 100 34 195.5t63 154.5l103 47q63 -39 104.5 -101t41.5 -137q0 -80 -45 -138t-133 -89.5t-214 -31.5h-7v149h6q151 0 220 27z" />
    <glyph glyph-name="uni06C0" unicode="&#x647;&#x654;" horiz-adv-x="476" 
d="M93.5 46q-51.5 50 -51.5 129q0 31 9 65q15 62 51.5 114.5t91.5 105.5l66 -90q-112 -94 -113 -157q-2 -34 23 -53t75 -19q40 0 66.5 15t31.5 39q-10 49 -67.5 103.5t-170.5 124.5l76 113q132 -80 199 -161.5t67 -172.5q0 -61 -27.5 -107.5t-75 -72.5t-106.5 -26
q-93 0 -144.5 50zM194 658.5q33 13.5 47 32.5q-8 4 -58 20q-32 10 -46 16.5t-23.5 18.5t-9.5 33q0 40 21 74t53.5 53.5t64.5 19.5q36 0 63 -20l-30 -56q-12 5 -32 6q-30 0 -54.5 -18.5t-31.5 -44.5q10 -5 53 -18q45 -14 65 -27t21 -40q0 -34 -23.5 -65.5t-69.5 -50.5
t-110 -16l9 68q58 1 91 14.5z" />
    <glyph glyph-name="uni06C0.fina" unicode="&#xfeea;&#x654;" horiz-adv-x="518" arabic-form="final" 
d="M247 48q-90 0 -147.5 43.5t-57.5 118.5q0 92 72.5 155t192.5 107l28 -130q-67 -16 -123.5 -46.5t-59.5 -57.5q-2 -22 22 -36.5t66 -14.5q49 0 103 22l29 -140q-64 -21 -125 -21zM370.5 56.5q-47.5 56.5 -63.5 187.5l-7 53l-29 224l116 25q23 -214 32 -282q6 -50 14.5 -74
t25 -32.5t48.5 -8.5h17l8 -75l-8 -74h-17q-89 0 -136.5 56.5zM164 572.5q33 13.5 47 32.5q-8 4 -58 20q-32 10 -46 16.5t-23.5 18.5t-9.5 33q0 40 21 74t53.5 53.5t64.5 19.5q36 0 63 -20l-30 -56q-12 5 -32 6q-30 0 -54.5 -18.5t-31.5 -44.5q10 -5 53 -18q45 -14 65 -27
t21 -40q0 -34 -23.5 -65.5t-69.5 -50.5t-110 -16l9 68q58 1 91 14.5z" />
    <glyph glyph-name="uni06C1.fina" unicode="&#xfeea;&#x621;&#x621;" horiz-adv-x="579" arabic-form="final" 
d="M584 149l8 -75l-8 -74h-6q-100 0 -173.5 56t-120.5 142q-44 -20 -88.5 -78.5t-65.5 -123.5l-86 55q11 57 41.5 113.5t71.5 100.5t83 65q29 16 56 16q45 0 80 -51q5 -7 33 -51t71 -69.5t96 -25.5h8z" />
    <glyph glyph-name="uni06C1.medi" unicode="&#xfeec;&#xfe8c;&#xfe8c;&#xfe8c;&#xfe8c;" horiz-adv-x="525" arabic-form="medial" 
d="M231 -190.5q-48 52.5 -78.5 120t-34.5 138.5l32 -8q-46 -60 -142 -60h-13v148h25q52 0 72 16.5t27 50.5l101 22q-1 -13 -1 -38q0 -138 41.5 -235t123.5 -142l-60 -49q-39 59 -39 128q0 63 31 120.5t81.5 92.5t105.5 35h27l8 -75l-8 -74h-27q-55 0 -85 -36.5t-30 -86.5
q0 -41 20 -73l-74 -72q-55 25 -103 77.5z" />
    <glyph glyph-name="uni06BE" unicode="&#x647;&#x621;&#x621;" horiz-adv-x="743" 
d="M319 175q76 26 76 83q0 30 -21.5 55t-52.5 30q-3 1 -10 1q-32 0 -59 -25t-27 -58q0 -34 45 -63t110 -46t121 -17q78 0 89 32q3 8 3 14q0 49 -115.5 102.5t-339.5 116.5l54 138q196 -58 307.5 -112t156.5 -108t45 -117q0 -43 -17 -94q-17 -52 -70.5 -78t-128.5 -26
q-84 0 -170 30.5t-142 85t-56 122.5q0 11 4 33q14 63 45 113t74 76t91 21q44 -4 80.5 -36t57.5 -81t21 -101q0 -18 -3 -36q-14 -88 -61.5 -138t-139.5 -71t-246 -21l33 149q170 0 246 26z" />
    <glyph glyph-name="uni06BE.fina" unicode="&#xfeea;&#x621;&#x621;&#x621;&#x621;" horiz-adv-x="589" arabic-form="final" 
d="M398 -239q-59 0 -114 34t-90 103t-35 167q0 23 1 35q14 212 117 380l81 23q70 -38 113.5 -110t43.5 -148q0 -121 -95.5 -184t-270.5 -61l-67 1l-44 125l167 12q67 4 115 21t72.5 40.5t24.5 48.5q0 26 -23.5 59.5t-56.5 50.5q-29 -42 -50 -121t-21 -155q0 -54 20 -95.5
t52 -64.5t67 -23q19 0 36 7q4 4 4 13q0 27 -26.5 63.5t-82.5 58.5l25 131q52 -14 100.5 -18.5t132.5 -4.5l8 -75l-8 -74q-78 0 -132.5 9t-125.5 32l24 104q54 -17 98.5 -55.5t70 -87.5t25.5 -97q0 -67 -50 -108q-43 -36 -106 -36z" />
    <glyph glyph-name="uni06BE.medi" unicode="&#xfeec;&#xfe8c;&#xfe8c;&#xfe8c;" horiz-adv-x="685" arabic-form="medial" 
d="M689 149l8 -75l-8 -74q-65 0 -112.5 2.5t-91.5 11.5l110 136q26 -1 94 -1zM-4 149h16q160 0 236.5 23t84.5 74l1 10q0 31 -21.5 57t-52.5 32q-3 1 -10 1q-32 0 -59.5 -26t-27.5 -59q0 -34 44.5 -64t109.5 -47.5t121 -17.5q43 0 68.5 12t25.5 36q0 95 -456 220l55 138
q197 -60 308 -114.5t156 -107.5t45 -115q0 -38 -17 -94q-16 -52 -70 -78t-129 -26q-84 0 -170 30.5t-142.5 85t-56.5 122.5q0 11 4 33q13 63 44.5 113t75 76t90.5 21q44 -4 80.5 -36t57.5 -81t21 -101q0 -18 -3 -36q-13 -87 -60 -137t-132.5 -71.5t-220.5 -21.5h-16v149z
" />
    <glyph glyph-name="uni06D2" unicode="&#x649;&#x621;&#x621;" horiz-adv-x="975" 
d="M52 111q0 77 45.5 151.5t112.5 121.5t125 47q37 0 68.5 -23t51.5 -49t27 -40l-86 -75q-8 11 -29 24.5t-44 13.5q-37 0 -72 -23.5t-59 -53t-27 -42.5q6 -4 42.5 -11.5t101 -13.5t150.5 -6q169 -1 280 4.5t215 13.5l-51 -149l-33 -3q-87 -7 -169 -11t-217 -4
q-137 0 -221 8.5t-130 24.5t-74 41q-7 25 -7 54z" />
    <glyph glyph-name="uni06D2.fina" unicode="&#xfbfd;&#x621;&#x621;" horiz-adv-x="444" arabic-form="final" 
d="M53 -141q0 76 45.5 143t125 107t175.5 40h50l8 -75l-8 -74h-50q-68 0 -120.5 -19t-82.5 -42.5t-33 -33.5q30 -11 91.5 -18.5t147.5 -7.5q160 0 321 7l-52 -149q-108 -7 -269 -7q-136 0 -219.5 17.5t-121.5 51.5q-8 32 -8 60z" />
    <glyph glyph-name="uni06D2.fina.alt2" unicode="&#xfbfd;&#x621;&#x621;&#x621;&#x621;&#x621;" horiz-adv-x="413" 
d="M51 -141q0 76 45.5 143t125 107t175.5 40h21l8 -75l-8 -74h-21q-69 0 -121 -19t-82 -42.5t-33 -34.5q10 -6 60.5 -15.5t132.5 -9.5q105 0 239 3l-51 -149q-83 -3 -188 -3q-130 0 -196.5 17t-98.5 52q-8 32 -8 60z" />
    <glyph glyph-name="uni06D2.fina.alt3" unicode="&#xfbfd;&#x621;&#x621;&#x621;&#x621;" horiz-adv-x="444" 
d="M53 -141q0 76 45.5 143t125 107t175.5 40h50l8 -75l-8 -74h-50q-68 0 -120.5 -19t-82.5 -42.5t-33 -33.5q30 -11 91.5 -18.5t147.5 -7.5q160 0 321 7l-52 -149q-108 -7 -269 -7q-136 0 -219.5 17.5t-121.5 51.5q-8 32 -8 60z" />
    <glyph glyph-name="uni06D2.fina.alt4" unicode="&#xfbfd;&#x621;&#x621;&#x621;" horiz-adv-x="420" 
d="M40 -142q0 77 45.5 144t125 107t175.5 40h40l8 -75l-8 -74h-40q-69 0 -121.5 -19t-82.5 -42.5t-32 -33.5q39 -11 114 -18.5t177 -7.5q160 0 370 8l-52 -148q-157 -9 -318 -9q-178 0 -266.5 16.5t-127.5 52.5q-7 28 -7 59z" />
    <glyph glyph-name="uni06D3" unicode="&#x626;&#x621;&#x621;" horiz-adv-x="975" 
d="M52 111q0 77 45.5 151.5t112.5 121.5t125 47q37 0 68.5 -23t51.5 -49t27 -40l-86 -75q-8 11 -29 24.5t-44 13.5q-37 0 -72 -23.5t-59 -53t-27 -42.5q6 -4 42.5 -11.5t101 -13.5t150.5 -6q169 -1 280 4.5t215 13.5l-51 -149l-33 -3q-87 -7 -169 -11t-217 -4
q-137 0 -221 8.5t-130 24.5t-74 41q-7 25 -7 54zM222 545q-31 28 -31 71q0 34 21.5 63.5t53.5 37.5q14 3 27 3q29 0 70 -13l-17 -68q-30 11 -54 11q-23 0 -35.5 -13.5t-9.5 -28.5q3 -12 14.5 -21t31.5 -9q4 0 18 2l-12 -69q-46 6 -77 34zM159 535l220 67v-67l-220 -68v68z
" />
    <glyph glyph-name="uni06D3.fina" unicode="&#xfe8a;&#x621;&#x621;" horiz-adv-x="444" arabic-form="final" 
d="M53 -141q0 76 45.5 143t125 107t175.5 40h50l8 -75l-8 -74h-50q-68 0 -120.5 -19t-82.5 -42.5t-33 -33.5q30 -11 91.5 -18.5t147.5 -7.5q160 0 321 7l-52 -149q-108 -7 -269 -7q-136 0 -219.5 17.5t-121.5 51.5q-8 32 -8 60zM160 251q-31 28 -31 71q0 34 21.5 63.5
t53.5 37.5q14 3 27 3q29 0 70 -13l-17 -68q-30 11 -54 11q-23 0 -35.5 -13.5t-9.5 -28.5q3 -12 14.5 -21t31.5 -9q4 0 18 2l-12 -69q-46 6 -77 34zM97 241l220 67v-67l-220 -68v68z" />
    <glyph glyph-name="uni06440627" unicode="&#xfedf;&#xfe8e;" horiz-adv-x="589" arabic-form="isolated" 
d="M546 300q-1 -103 -63 -176t-163.5 -111t-221.5 -42l-35 137q107 9 184.5 27t127.5 57t50 106q-1 100 -9 188t-24 227l125 27q32 -243 29 -440zM238.5 425.5q30.5 -106.5 30.5 -190.5q0 -68 -19 -113l-103 -15q15 32 15 78q0 129 -118 395l105 73q59 -121 89.5 -227.5z
" />
    <glyph glyph-name="uni06440627.fina" unicode="&#xfee0;&#xfe8e;" horiz-adv-x="659" arabic-form="final" 
d="M507 66.5q-45 66.5 -49 184.5q-1 30 8.5 54t24.5 37.5t29 13.5q11 0 18 -9t7 -27q1 -68 10.5 -104t32 -51.5t65.5 -15.5h11v-149h-13q-99 0 -144 66.5zM546 300q-1 -103 -63 -176t-163.5 -111t-221.5 -42l-35 137q107 9 184.5 27t127.5 57t50 106q-1 100 -9 188t-24 227
l125 27q32 -243 29 -440zM238.5 425.5q30.5 -106.5 30.5 -190.5q0 -68 -19 -113l-103 -15q15 32 15 78q0 129 -118 395l105 73q59 -121 89.5 -227.5z" />
    <glyph glyph-name="uni06440623" unicode="&#xfedf;&#xfe84;" horiz-adv-x="589" arabic-form="isolated" 
d="M546 300q-1 -103 -63 -176t-163.5 -111t-221.5 -42l-35 137q107 9 184.5 27t127.5 57t50 106q-1 100 -9 188t-24 227l125 27q32 -243 29 -440zM238.5 425.5q30.5 -106.5 30.5 -190.5q0 -68 -19 -113l-103 -15q15 32 15 78q0 129 -118 395l105 73q59 -121 89.5 -227.5z
M73 733q-31 28 -31 71q0 34 21.5 63.5t53.5 37.5q14 3 27 3q29 0 70 -13l-17 -68q-30 11 -54 11q-23 0 -35.5 -13.5t-9.5 -28.5q3 -12 14.5 -21t31.5 -9q4 0 18 2l-12 -69q-46 6 -77 34zM10 723l220 67v-67l-220 -68v68z" />
    <glyph glyph-name="uni06440623.fina" unicode="&#xfee0;&#xfe84;" horiz-adv-x="659" arabic-form="final" 
d="M507 66.5q-45 66.5 -49 184.5q-1 30 8.5 54t24.5 37.5t29 13.5q11 0 18 -9t7 -27q1 -68 10.5 -104t32 -51.5t65.5 -15.5h11v-149h-13q-99 0 -144 66.5zM546 300q-1 -103 -63 -176t-163.5 -111t-221.5 -42l-35 137q107 9 184.5 27t127.5 57t50 106q-1 100 -9 188t-24 227
l125 27q32 -243 29 -440zM238.5 425.5q30.5 -106.5 30.5 -190.5q0 -68 -19 -113l-103 -15q15 32 15 78q0 129 -118 395l105 73q59 -121 89.5 -227.5zM73 733q-31 28 -31 71q0 34 21.5 63.5t53.5 37.5q14 3 27 3q29 0 70 -13l-17 -68q-30 11 -54 11q-23 0 -35.5 -13.5
t-9.5 -28.5q3 -12 14.5 -21t31.5 -9q4 0 18 2l-12 -69q-46 6 -77 34zM10 723l220 67v-67l-220 -68v68z" />
    <glyph glyph-name="uni06440625" unicode="&#xfedf;&#xfe88;" horiz-adv-x="589" arabic-form="isolated" 
d="M546 300q-1 -103 -63 -176t-163.5 -111t-221.5 -42l-35 137q107 9 184.5 27t127.5 57t50 106q-1 100 -9 188t-24 227l125 27q32 -243 29 -440zM238.5 425.5q30.5 -106.5 30.5 -190.5q0 -68 -19 -113l-103 -15q15 32 15 78q0 129 -118 395l105 73q59 -121 89.5 -227.5z
M107 -253q-31 28 -31 71q0 34 21.5 63.5t53.5 37.5q14 3 27 3q29 0 70 -13l-17 -68q-30 11 -54 11q-23 0 -35.5 -13.5t-9.5 -28.5q3 -12 14.5 -21t31.5 -9q4 0 18 2l-12 -69q-46 6 -77 34zM44 -263l220 67v-67l-220 -68v68z" />
    <glyph glyph-name="uni06440625.fina" unicode="&#xfee0;&#xfe88;" horiz-adv-x="659" arabic-form="final" 
d="M507 66.5q-45 66.5 -49 184.5q-1 30 8.5 54t24.5 37.5t29 13.5q11 0 18 -9t7 -27q1 -68 10.5 -104t32 -51.5t65.5 -15.5h11v-149h-13q-99 0 -144 66.5zM546 300q-1 -103 -63 -176t-163.5 -111t-221.5 -42l-35 137q107 9 184.5 27t127.5 57t50 106q-1 100 -9 188t-24 227
l125 27q32 -243 29 -440zM238.5 425.5q30.5 -106.5 30.5 -190.5q0 -68 -19 -113l-103 -15q15 32 15 78q0 129 -118 395l105 73q59 -121 89.5 -227.5zM107 -249q-31 28 -31 71q0 34 21.5 63.5t53.5 37.5q14 3 27 3q29 0 70 -13l-17 -68q-30 11 -54 11q-23 0 -35.5 -13.5
t-9.5 -28.5q3 -12 14.5 -21t31.5 -9q4 0 18 2l-12 -69q-46 6 -77 34zM44 -259l220 67v-67l-220 -68v68z" />
    <glyph glyph-name="uni06440622" unicode="&#xfedf;&#xfe82;" horiz-adv-x="589" arabic-form="isolated" 
d="M546 300q-1 -103 -63 -176t-163.5 -111t-221.5 -42l-35 137q107 9 184.5 27t127.5 57t50 106q-1 100 -9 188t-24 227l125 27q32 -243 29 -440zM238.5 425.5q30.5 -106.5 30.5 -190.5q0 -68 -19 -113l-103 -15q15 32 15 78q0 129 -118 395l105 73q59 -121 89.5 -227.5z
M55.5 768.5q28.5 24.5 62.5 24.5q17 0 30.5 -4.5t32.5 -12.5q32 -15 51 -15q17 0 34.5 10.5t29.5 27.5l45 -38q-22 -34 -50 -52.5t-59 -18.5q-17 0 -30.5 4.5t-35.5 13.5q-30 15 -47 15q-19 0 -36 -13.5t-27 -38.5l-49 29q20 44 48.5 68.5z" />
    <glyph glyph-name="uni06440622.fina" unicode="&#xfee0;&#xfe82;" horiz-adv-x="659" arabic-form="final" 
d="M507 66.5q-45 66.5 -49 184.5q-1 30 8.5 54t24.5 37.5t29 13.5q11 0 18 -9t7 -27q1 -68 10.5 -104t32 -51.5t65.5 -15.5h11v-149h-13q-99 0 -144 66.5zM546 300q-1 -103 -63 -176t-163.5 -111t-221.5 -42l-35 137q107 9 184.5 27t127.5 57t50 106q-1 100 -9 188t-24 227
l125 27q32 -243 29 -440zM238.5 425.5q30.5 -106.5 30.5 -190.5q0 -68 -19 -113l-103 -15q15 32 15 78q0 129 -118 395l105 73q59 -121 89.5 -227.5zM57.5 768.5q28.5 24.5 62.5 24.5q17 0 30.5 -4.5t32.5 -12.5q32 -15 51 -15q17 0 34.5 10.5t29.5 27.5l45 -38
q-22 -34 -50 -52.5t-59 -18.5q-17 0 -30.5 4.5t-35.5 13.5q-30 15 -47 15q-19 0 -36 -13.5t-27 -38.5l-49 29q20 44 48.5 68.5z" />
    <glyph glyph-name="uni06440671" unicode="&#xfedf;&#xfb51;" horiz-adv-x="589" 
d="M546 300q-1 -103 -63 -176t-163.5 -111t-221.5 -42l-35 137q107 9 184.5 27t127.5 57t50 106q-1 100 -9 188t-24 227l125 27q32 -243 29 -440zM238.5 425.5q30.5 -106.5 30.5 -190.5q0 -68 -19 -113l-103 -15q15 32 15 78q0 129 -118 395l105 73q59 -121 89.5 -227.5z
M85 764q5 1 14 1q12 0 27.5 -4t33.5 -10q43 -15 68 -15q6 0 18 2q28 4 44 15.5t16 23.5q0 10 -11.5 17.5t-26.5 7.5q-28 0 -56.5 -23t-48.5 -64l-44 24q26 57 66.5 92t82.5 35q36 0 60.5 -24t24.5 -60q0 -39 -27 -68.5t-70 -37.5q-18 -3 -33 -3q-34 0 -79 15
q-18 5 -29.5 7.5t-20.5 1.5q-20 -1 -29.5 -13t-10.5 -13l-44 29q31 58 75 64z" />
    <glyph glyph-name="uni06440671.fina" unicode="&#xfee0;&#xfb51;" horiz-adv-x="659" 
d="M507 66.5q-45 66.5 -49 184.5q-1 30 8.5 54t24.5 37.5t29 13.5q11 0 18 -9t7 -27q1 -68 10.5 -104t32 -51.5t65.5 -15.5h11v-149h-13q-99 0 -144 66.5zM546 300q-1 -103 -63 -176t-163.5 -111t-221.5 -42l-35 137q107 9 184.5 27t127.5 57t50 106q-1 100 -9 188t-24 227
l125 27q32 -243 29 -440zM238.5 425.5q30.5 -106.5 30.5 -190.5q0 -68 -19 -113l-103 -15q15 32 15 78q0 129 -118 395l105 73q59 -121 89.5 -227.5zM79 764q5 1 14 1q12 0 27.5 -4t33.5 -10q43 -15 68 -15q6 0 18 2q28 4 44 15.5t16 23.5q0 10 -11.5 17.5t-26.5 7.5
q-28 0 -56.5 -23t-48.5 -64l-44 24q26 57 66.5 92t82.5 35q36 0 60.5 -24t24.5 -60q0 -39 -27 -68.5t-70 -37.5q-18 -3 -33 -3q-34 0 -79 15q-18 5 -29.5 7.5t-20.5 1.5q-20 -1 -29.5 -13t-10.5 -13l-44 29q31 58 75 64z" />
    <glyph glyph-name="uni06A90644" unicode="&#xfb90;&#xfede;" horiz-adv-x="1147" 
d="M618 71.5q-51 71.5 -54 188.5l73 16q5 -67 35 -97t99 -30t105.5 13t55.5 37q-10 53 -63 128t-146 159l13 130l371 156l41 -119l-290 -123q26 -22 70 -78t79 -125.5t35 -129.5q0 -21 -4 -37q-19 -80 -92 -120t-175 -40t-153 71.5zM187 -229q-67 32 -107 92.5t-40 140.5
q0 58 21.5 130t48.5 129l97 -44q-27 -59 -40.5 -102.5t-13.5 -88.5q0 -62 50 -101t131 -39q102 0 154 52t49 157q-5 173 -18 346.5t-26 269.5l125 27q17 -128 29 -636q2 -113 -34.5 -195t-107.5 -126t-171 -44q-80 0 -147 32z" />
    <glyph glyph-name="uni06A90644.fina" unicode="&#xfb91;&#xfede;" horiz-adv-x="1211" 
d="M618 71.5q-51 71.5 -54 188.5l73 16q5 -67 35 -97t99 -30t105.5 13t55.5 37q-10 53 -63 128t-146 159l13 130l371 156l41 -119l-290 -123q26 -22 70 -78t79 -125.5t35 -128.5q0 -22 -4 -38q-20 -80 -92.5 -120t-174.5 -40t-153 71.5zM1113 28.5q-41 28.5 -82.5 83.5
t-103.5 155l64 91q68 -114 115.5 -161.5t96.5 -47.5h16l8 -75l-8 -74h-16q-49 0 -90 28.5zM187 -229q-67 32 -107 92.5t-40 140.5q0 58 21.5 130t48.5 129l97 -44q-27 -59 -40.5 -102.5t-13.5 -88.5q0 -62 50 -101t131 -39q102 0 154 52t49 157q-5 173 -18 346.5t-26 269.5
l125 27q17 -128 29 -636q2 -113 -34.5 -195t-107.5 -126t-171 -44q-80 0 -147 32z" />
    <glyph glyph-name="uni06AF0644" unicode="&#xfb94;&#xfede;" horiz-adv-x="1147" 
d="M618 71.5q-51 71.5 -53 188.5l72 16q5 -67 35 -97t99 -30q125 0 161 50q-13 51 -63 116.5t-146 143.5l13 130l371 156l41 -119l-290 -123q29 -25 72 -73.5t77.5 -111.5t34.5 -121q0 -21 -4 -37q-20 -80 -92.5 -120t-174.5 -40t-153 71.5zM187 -229q-67 32 -107 92.5
t-40 140.5q0 58 21.5 130t48.5 129l97 -44q-27 -59 -40.5 -102.5t-13.5 -88.5q0 -62 50 -101t131 -39q102 0 154 52t49 157q-5 173 -18 346.5t-26 269.5l125 27q17 -128 29 -636q2 -113 -34.5 -195t-107.5 -126t-171 -44q-80 0 -147 32zM743 706l325 133l17 -48l-348 -146z
" />
    <glyph glyph-name="uni06AF0644.fina" unicode="&#xfb95;&#xfede;" horiz-adv-x="1212" 
d="M618 71.5q-51 71.5 -54 188.5l73 16q5 -67 35 -97t99 -30q125 0 161 50q-13 51 -63 116.5t-146 143.5l13 130l371 156l41 -119l-290 -123q29 -25 72 -73.5t77.5 -111.5t34.5 -121q0 -21 -4 -37q-20 -80 -92.5 -120t-174.5 -40t-153 71.5zM187 -229q-67 32 -107 92.5
t-40 140.5q0 58 21.5 130t48.5 129l97 -44q-27 -59 -40.5 -102.5t-13.5 -88.5q0 -62 50 -101t131 -39q102 0 154 52t49 157q-5 173 -18 346.5t-26 269.5l125 27q17 -128 29 -636q2 -113 -34.5 -195t-107.5 -126t-171 -44q-80 0 -147 32zM1112 28.5q-43 28.5 -86.5 84.5
t-104.5 154l69 83q53 -82 87.5 -124.5t63 -59.5t63.5 -17h16l8 -75l-8 -74h-16q-49 0 -92 28.5zM743 706l325 133l17 -48l-348 -146z" />
    <glyph glyph-name="uni064406440647" unicode="&#xfedf;&#xfee0;&#x651;&#x670;&#xfeea;" horiz-adv-x="991" 
d="M660.5 26.5q-43.5 29.5 -67 77.5t-28.5 103q-7 172 -19 309l117 27q11 -133 21 -347q3 -16 22.5 -33t54.5 -17q37 0 56 19.5t19 54.5q0 34 -12 166.5t-23 227.5l117 26q11 -93 21.5 -226t10.5 -184q0 -72 -23.5 -124.5t-65.5 -80.5t-96 -28q-61 0 -104.5 29.5zM235 46
q-87 0 -141 41t-54 113q0 89 73.5 152.5t197.5 98.5l18 -112q-73 -20 -131 -53t-58 -64q0 -20 26 -33t67 -13q50 0 103 22l27 -131q-67 -21 -128 -21zM303 189q-7 44 -26 197l-15 111l117 26q2 -33 28 -273q4 -38 11 -60t23 -34t46 -12q38 0 58 20t20 45l101 -81
q-25 -65 -69.5 -98.5t-107.5 -33.5q-158 0 -186 193zM515 688q0 -11 7 -17.5t19 -6.5q37 0 37 51q0 13 -1 20l47 8q8 -71 44 -71q13 0 20 6.5t7 18.5l-2 12q-5 15 -28 55l47 27q16 -24 26 -47t10 -47q0 -40 -20.5 -65.5t-57.5 -25.5q-32 0 -56 23t-27 68l33 1
q1 -42 -22.5 -70t-56.5 -28q-38 0 -58.5 22.5t-20.5 54.5q0 31 15 68l47 -18q-9 -24 -9 -39zM634 858q0 -46 -1 -69l-54 2q1 22 1 66q0 53 -3 92l54 4q3 -39 3 -95z" />
    <glyph glyph-name="uniFDF2" unicode="&#x627;&#xfedf;&#xfee0;&#xfeea;" horiz-adv-x="1209" 
d="M660.5 26.5q-43.5 29.5 -67 77.5t-28.5 103q-7 172 -19 309l117 27q11 -133 21 -347q3 -16 22.5 -33t54.5 -17q37 0 56 19.5t19 54.5q0 34 -12 166.5t-23 227.5l117 26q11 -93 21.5 -226t10.5 -184q0 -72 -23.5 -124.5t-65.5 -80.5t-96 -28q-61 0 -104.5 29.5zM235 46
q-87 0 -141 41t-54 113q0 89 73.5 152.5t197.5 98.5l18 -112q-73 -20 -131 -53t-58 -64q0 -20 26 -33t67 -13q50 0 103 22l27 -131q-67 -21 -128 -21zM303 189q-7 44 -26 197l-15 111l117 26q2 -33 28 -273q4 -38 11 -60t23 -34t46 -12q38 0 58 20t20 45l101 -81
q-25 -65 -69.5 -98.5t-107.5 -33.5q-158 0 -186 193zM515 688q0 -11 7 -17.5t19 -6.5q37 0 37 51q0 13 -1 20l47 8q8 -71 44 -71q13 0 20 6.5t7 18.5l-2 12q-5 15 -28 55l47 27q16 -24 26 -47t10 -47q0 -40 -20.5 -65.5t-57.5 -25.5q-32 0 -56 23t-27 68l33 1
q1 -42 -22.5 -70t-56.5 -28q-38 0 -58.5 22.5t-20.5 54.5q0 31 15 68l47 -18q-9 -24 -9 -39zM634 858q0 -46 -1 -69l-54 2q1 22 1 66q0 53 -3 92l54 4q3 -39 3 -95zM1037 210q0 138 -8.5 289.5t-19.5 212.5l125 29q9 -58 16 -203t7 -285q0 -173 -12 -260l-118 13
q10 66 10 204z" />
    <glyph glyph-name="uniFDFC.001" unicode="&#x631;&#xfbfe;&#xfe8e;&#x644;&#x621;" horiz-adv-x="1484" 
d="M1198.5 -27q56.5 28 90 58t36.5 55q1 5 1 18q0 39 -8.5 112t-15.5 119l118 26q17 -94 17 -190q0 -48 -7 -101q-15 -99 -98 -168.5t-217 -103.5l-41 129q68 18 124.5 46zM750 -249q-70 0 -120 7l25 114q11 -1 36 -1q72 0 157 10t142 25l37 -126q-134 -29 -277 -29z
M739 723q36 0 56.5 -24.5t22.5 -70.5l15 -366q2 -54 8.5 -79t25.5 -35.5t60 -10.5q151 0 170 52q-3 40 -24 102.5t-32 83.5l105 57q19 -38 40 -111.5t21 -126.5q0 -103 -69 -154.5t-215 -51.5q-76 0 -120 28t-63 83t-21 144q-5 212 -13 351l-100 -27l4 -103q6 -134 13 -347
q4 -175 -70 -268.5t-218 -93.5q-78 0 -143 32t-103.5 92t-38.5 141q0 59 20.5 126.5t48.5 127.5l97 -45q-27 -61 -40.5 -103t-13.5 -86q0 -63 46.5 -99.5t126.5 -36.5q95 0 139 49t40 157q-7 213 -28 440l78 133l145 36q15 4 30 4z" />
    <glyph glyph-name="uniFDFC.002" unicode="&#x631;&#xfbfe;&#xfe8e;&#x644;&#x621;&#x621;" horiz-adv-x="1378" 
d="M1161 145.5q60 39.5 60 82.5q0 37 -15 114.5t-32 144.5l115 45q17 -63 27.5 -136.5t10.5 -132.5q0 -32 -2 -46q-9 -105 -82 -170t-210 -102l-40 129q108 32 168 71.5zM684 -99q-82 0 -146 10l27 113q16 -1 52 -1q73 0 152.5 8.5t129.5 20.5l33 -126q-112 -25 -248 -25z
M647 830q36 0 57 -25t22 -71l15 -334q2 -54 9 -79t26 -35.5t60 -10.5q75 0 112.5 13.5t44.5 39.5q-4 51 -36 139l105 53q14 -33 27.5 -89t13.5 -109q0 -97 -68 -146.5t-203 -49.5q-76 0 -120 28t-63.5 83.5t-21.5 144.5v24q-4 188 -12 296l-101 -28q16 -250 20 -427
q3 -137 -45 -212t-159 -75q-146 0 -213 51.5t-67 154.5q0 53 20.5 125t39.5 113l103 -57q-16 -35 -33.5 -90.5t-19.5 -95.5q19 -53 169 -53q42 0 63.5 11t29 37.5t4.5 77.5q-15 247 -30 423l78 133l142 36q15 4 31 4z" />
    <glyph glyph-name="tomaan" unicode="&#xfe97;&#xfeee;&#xfee3;&#xfe8e;&#x646;&#x621;" horiz-adv-x="2384" 
d="M174 307.5q-14 -44.5 -14 -91.5q0 -81 52.5 -122t150.5 -41q69 0 121.5 25t81 64t28.5 80q0 39 -25 124.5t-53 162.5l77 151l175 61q24 10 46 10q35 0 55.5 -24t22.5 -65q3 -47 5.5 -121t3.5 -113q2 -93 4 -134q2 -53 9.5 -78.5t26 -36t57.5 -10.5v-149q-76 0 -120.5 28
t-64 83.5t-21.5 143.5l-1 69q-1 92 -3 151.5t-8 117.5l-151 -50q26 -75 47.5 -162t21.5 -156q0 -90 -44.5 -163.5t-121 -115.5t-169.5 -42t-163.5 35.5t-110 101.5t-39.5 154q0 18 1 28q6 100 68 234l97 -45q-28 -60 -42 -104.5zM1314 155q52 -25 76 -25q9 0 13 3
q20 13 20 51q0 40 -23 75.5t-59 35.5q-28 0 -57 -36t-66 -123q-28 -68 -80.5 -102t-120.5 -34h-19v149h22q37 0 70 23t59 70q52 95 96 141t99 46q54 0 94 -35t61.5 -91t21.5 -116q0 -58 -21 -105.5t-61 -72.5q-22 -14 -54 -14q-88 0 -240 104l56 123q61 -42 113 -67z
M1807 -65.5q90 43.5 90 125.5q0 59 -15.5 115.5t-43.5 92.5t-63 36q-20 0 -37.5 -15t-28 -37.5t-10.5 -42.5q0 -15 6 -24q16 -22 70.5 -29.5t146.5 -7.5l117 1v-149l-127 -1q-122 0 -196.5 20t-103.5 81q-17 35 -17 84q0 59 25.5 118t70 97t96.5 38q60 0 109 -52t76.5 -136
t27.5 -175q0 -94 -47.5 -164.5t-139 -110t-220.5 -42.5l-47 129q171 5 261 48.5zM2169.5 162q44.5 13 54.5 39q-3 39 -23.5 99.5t-32.5 86.5l106 57q19 -41 39.5 -113.5t20.5 -125.5q0 -102 -72 -153.5t-223 -51.5v149q86 0 130.5 13zM2054.5 655.5q87.5 10.5 169.5 10.5
q24 0 64 -2l-24 -124q-15 1 -46 1q-72 0 -153.5 -8t-136.5 -21l-23 117q62 16 149.5 26.5zM434 597l5 -126l-127 -13l-20 123z" />
    <glyph glyph-name="tomaan.001" unicode="&#xfe97;&#xfeee;&#xfee3;&#xfe8e;&#x646;&#x621;&#x621;" horiz-adv-x="1955" 
d="M175.5 306.5q-13.5 -43.5 -13.5 -90.5q0 -81 52.5 -122.5t150.5 -41.5q69 0 121.5 25t80.5 64.5t28 80.5q0 66 -77 286l77 152l207 60q18 6 34 6q35 0 55.5 -25t21.5 -69l8 -211q1 -34 2 -71.5t3 -75.5q2 -52 9 -77.5t26 -36.5t58 -11v-149q-76 0 -120.5 28t-64 83.5
t-21.5 143.5l-1 68q-1 92 -3 152t-8 118l-170 -50q68 -207 68 -318q0 -90 -44.5 -163.5t-120.5 -115.5t-169 -42t-164.5 35.5t-110.5 102t-39 154.5q0 63 21.5 133.5t48.5 127.5l96 -45q-28 -62 -41.5 -105.5zM1335.5 -81.5q84.5 28.5 115.5 81.5l-49 1q-69 4 -119 21
t-83 52q-31 -37 -73 -55.5t-92 -18.5h-18v149h21q78 0 129 93q36 65 62.5 104t57 62t67.5 23q60 0 105.5 -42t72.5 -106.5t36 -133.5h44v-149h-48q-26 -111 -128.5 -175t-269.5 -68l-47 129q132 4 216.5 32.5zM1396 150q17 -1 52 -1q2 30 -8 65t-31.5 59t-51.5 24
q-49 0 -92 -100q41 -44 131 -47zM1798 199q-3 40 -24.5 104.5t-31.5 84.5l102 56q19 -41 39.5 -113t20.5 -125q0 -103 -72 -154.5t-223 -51.5v149q166 0 189 50zM1641 682.5q93 11.5 178 11.5q32 0 47 -1l-23 -119q-77 2 -175.5 -7.5t-161.5 -25.5l-23 112q65 18 158 29.5z
M430 604l5 -126l-127 -13l-20 123z" />
    <glyph glyph-name="tomaan.002" unicode="&#xfe97;&#xfeee;&#xfee3;&#xfe8e;&#x646;&#x621;&#x621;&#x621;" horiz-adv-x="1820" 
d="M1234.5 2q85.5 27 117.5 70l-46 1q-131 5 -194 64q-57 -66 -148 -66q-65 0 -104 24t-58 73.5t-23 131.5l-13 246l-161 -47q64 -165 64 -290q0 -87 -41.5 -158.5t-114.5 -113t-163 -41.5t-158 35.5t-105 100t-37 148.5q0 105 59 233l97 -47q-23 -53 -33.5 -89t-10.5 -79
q0 -74 46.5 -113.5t141.5 -39.5q63 0 111.5 24t75 61t26.5 76q0 45 -19.5 109.5t-51.5 145.5l77 154l200 56q18 5 32 5q34 0 54.5 -25t22.5 -70q3 -54 5 -96.5t4 -73.5q2 -64 4 -94q2 -40 8.5 -60.5t22.5 -28.5t47 -8q38 0 61.5 16t48.5 65q36 69 59.5 106t53 60t67.5 23
q58 0 102 -40t70.5 -102.5t35.5 -130.5q98 1 141 12.5t53 35.5q-2 36 -21.5 93.5t-31.5 83.5l105 56q19 -47 38 -112.5t19 -115.5q0 -100 -71.5 -148t-235.5 -49q-28 -106 -129.5 -167t-255.5 -64l-50 130q121 3 206.5 30zM1329 311q-27 42 -65 42q-25 0 -48 -25.5
t-39 -68.5q43 -37 124 -39q16 -1 60 -1q-5 50 -32 92zM268 550l140 16l5 -125l-125 -13zM1496 715.5q85 10.5 166 10.5q36 0 53 -1l-21 -119l-37 1q-70 0 -149 -8.5t-132 -21.5l-24 112q59 16 144 26.5z" />
    <glyph glyph-name="tomaan.003" unicode="&#xfe97;&#xfeee;&#xfee3;&#xfee6;&#x621;" horiz-adv-x="1546" 
d="M961.5 0.5q84.5 27.5 116.5 71.5q-32 0 -46 1q-131 5 -194 64q-55 -64 -152 -64h-82l39 145l46 -1q41 0 65.5 16.5t50.5 67.5q36 69 59.5 106t53 60t67.5 23q58 0 102 -40t70.5 -102.5t35.5 -130.5q98 1 141 12.5t53 35.5q-2 36 -21.5 93.5t-31.5 83.5l105 56
q19 -47 38 -112.5t19 -115.5q0 -100 -71.5 -148t-235.5 -49q-28 -107 -128.5 -168.5t-253.5 -64.5l-50 130q120 3 204.5 30.5zM1055 311q-27 42 -65 42q-25 0 -48 -25.5t-40 -68.5q43 -37 125 -39q16 -1 60 -1q-5 50 -32 92zM192 -68.5q-68 35.5 -105 100t-37 148.5
q0 105 59 233l97 -47q-23 -53 -33.5 -89t-10.5 -79q0 -74 46.5 -113.5t141.5 -39.5q64 0 113.5 23.5t76 60.5t23.5 75q-7 72 -49 220l105 41q46 -151 50 -261q1 -86 -40 -156.5t-114.5 -111t-164.5 -40.5q-90 0 -158 35.5zM274 564l140 16l4 -124l-124 -13zM1218 710
q85 11 165 11q36 0 53 -1l-21 -119l-35 1q-69 0 -149 -9t-134 -22l-25 112q61 16 146 27z" />
    <glyph glyph-name="uni0621" unicode="&#x621;" horiz-adv-x="430" arabic-form="isolated" 
d="M248 16q-45 0 -83 20.5t-61 56t-23 79.5q0 41 21 76.5t56.5 58t76.5 23.5q23 0 55.5 -7t58.5 -18l-32 -94q-17 6 -41 11.5t-38 5.5q-29 -1 -50.5 -18.5t-21.5 -39.5t23.5 -39.5t58.5 -17.5q14 0 29 3l18 -94q-24 -6 -47 -6zM40 42l338 106l12 -102l-337 -105z" />
    <glyph glyph-name="uni0627" unicode="&#x627;" horiz-adv-x="247" arabic-form="isolated" 
d="M74 210q0 138 -8.5 289.5t-19.5 212.5l125 29q9 -58 16 -203t7 -285q0 -173 -12 -260l-118 13q10 66 10 204z" />
    <glyph glyph-name="uni0627.fina" unicode="&#x627;" horiz-adv-x="279" arabic-form="final" 
d="M120.5 63q-48.5 63 -48.5 192q-1 123 -7.5 249.5t-18.5 208.5l124 27q10 -73 16 -197.5t6 -230.5v-38q-1 -51 5 -77t24.5 -37t57.5 -11h5l8 -75l-8 -74h-5q-110 0 -158.5 63z" />
    <glyph glyph-name="uni0623" unicode="&#x623;" horiz-adv-x="251" arabic-form="isolated" 
d="M69 171q0 119 -7.5 253t-16.5 198l125 28q7 -63 13.5 -189t6.5 -247q0 -129 -9 -221l-118 13q6 50 6 165zM69 747q-31 28 -31 71q0 34 21.5 63.5t53.5 37.5q14 3 27 3q29 0 70 -13l-17 -68q-30 11 -54 11q-23 0 -35.5 -13.5t-9.5 -28.5q3 -12 14.5 -21t31.5 -9q4 0 18 2
l-12 -69q-46 6 -77 34zM6 737l220 67v-67l-220 -68v68z" />
    <glyph glyph-name="uni0623.fina" unicode="&#x623;" horiz-adv-x="268" arabic-form="final" 
d="M111 63q-48 63 -50 192q-2 116 -5.5 199.5t-12.5 167.5l124 28q14 -148 14 -386q0 -46 6.5 -70t25 -34.5t55.5 -10.5h5l8 -75l-8 -74h-5q-109 0 -157 63zM80 745q-31 28 -31 71q0 34 21.5 63.5t53.5 37.5q14 3 27 3q29 0 70 -13l-17 -68q-30 11 -54 11q-23 0 -35.5 -13.5
t-9.5 -28.5q3 -12 14.5 -21t31.5 -9q4 0 18 2l-12 -69q-46 6 -77 34zM17 735l220 67v-67l-220 -68v68z" />
    <glyph glyph-name="uni0625" unicode="&#x625;" horiz-adv-x="246" arabic-form="isolated" 
d="M74 210q0 138 -8.5 289.5t-19.5 212.5l125 29q9 -58 16 -203t7 -285q0 -173 -12 -260l-118 13q10 66 10 204zM78 -224q-31 28 -31 71q0 34 21.5 63.5t53.5 37.5q14 3 27 3q29 0 70 -13l-17 -68q-30 11 -54 11q-23 0 -35.5 -13.5t-9.5 -28.5q3 -12 14.5 -21t31.5 -9
q4 0 18 2l-12 -69q-46 6 -77 34zM15 -234l220 67v-67l-220 -68v68z" />
    <glyph glyph-name="uni0625.fina" unicode="&#x625;" horiz-adv-x="279" arabic-form="final" 
d="M120.5 63q-48.5 63 -48.5 192q-1 123 -7.5 249.5t-18.5 208.5l124 27q10 -73 16 -197.5t6 -230.5v-38q-1 -51 5 -77t24.5 -37t57.5 -11h5l8 -75l-8 -74h-5q-110 0 -158.5 63zM96 -211q-31 28 -31 71q0 34 21.5 63.5t53.5 37.5q14 3 27 3q29 0 70 -13l-17 -68
q-30 11 -54 11q-23 0 -35.5 -13.5t-9.5 -28.5q3 -12 14.5 -21t31.5 -9q4 0 18 2l-12 -69q-46 6 -77 34zM33 -221l220 67v-67l-220 -68v68z" />
    <glyph glyph-name="uni0622" unicode="&#x622;" horiz-adv-x="270" arabic-form="isolated" 
d="M69 171q0 119 -7.5 253t-16.5 198l125 28q7 -63 13.5 -189t6.5 -247q0 -129 -9 -221l-118 13q6 50 6 165zM-15.5 787.5q28.5 24.5 62.5 24.5q17 0 30.5 -4.5t32.5 -12.5q32 -15 51 -15q17 0 34.5 10.5t29.5 27.5l45 -38q-22 -34 -50 -52.5t-59 -18.5q-17 0 -30.5 4.5
t-35.5 13.5q-30 15 -47 15q-19 0 -36 -13.5t-27 -38.5l-49 29q20 44 48.5 68.5z" />
    <glyph glyph-name="uni0622.fina" unicode="&#x622;" horiz-adv-x="268" arabic-form="final" 
d="M111 63q-48 63 -50 192q-2 116 -5.5 199.5t-12.5 167.5l124 28q14 -148 14 -386q0 -46 6.5 -70t25 -34.5t55.5 -10.5h5l8 -75l-8 -74h-5q-109 0 -157 63zM-8.5 787.5q28.5 24.5 62.5 24.5q17 0 30.5 -4.5t32.5 -12.5q32 -15 51 -15q17 0 34.5 10.5t29.5 27.5l45 -38
q-22 -34 -50 -52.5t-59 -18.5q-17 0 -30.5 4.5t-35.5 13.5q-30 15 -47 15q-19 0 -36 -13.5t-27 -38.5l-49 29q20 44 48.5 68.5z" />
    <glyph glyph-name="uni0671" unicode="&#x671;" horiz-adv-x="270" arabic-form="isolated" 
d="M69 171q0 119 -7.5 253t-16.5 198l125 28q7 -63 13.5 -189t6.5 -247q0 -129 -9 -221l-118 13q6 50 6 165zM15 775q5 1 14 1q12 0 27.5 -4t33.5 -10q43 -15 68 -15q6 0 18 2q28 4 44 15.5t16 23.5q0 10 -11.5 17.5t-26.5 7.5q-28 0 -56.5 -23t-48.5 -64l-44 24
q26 57 66.5 92t82.5 35q36 0 60.5 -24t24.5 -60q0 -39 -27 -68.5t-70 -37.5q-18 -3 -33 -3q-34 0 -79 15q-18 5 -29.5 7.5t-20.5 1.5q-20 -1 -29.5 -13t-10.5 -13l-44 29q31 58 75 64z" />
    <glyph glyph-name="uni0671.fina" unicode="&#x671;" horiz-adv-x="268" arabic-form="final" 
d="M111 63q-48 63 -50 192q-2 116 -5.5 199.5t-12.5 167.5l124 28q14 -148 14 -386q0 -46 6.5 -70t25 -34.5t55.5 -10.5h5l8 -75l-8 -74h-5q-109 0 -157 63zM35 778q5 1 14 1q12 0 27.5 -4t33.5 -10q43 -15 68 -15q6 0 18 2q28 4 44 15.5t16 23.5q0 10 -11.5 17.5t-26.5 7.5
q-28 0 -56.5 -23t-48.5 -64l-44 24q26 57 66.5 92t82.5 35q36 0 60.5 -24t24.5 -60q0 -39 -27 -68.5t-70 -37.5q-18 -3 -33 -3q-34 0 -79 15q-18 5 -29.5 7.5t-20.5 1.5q-20 -1 -29.5 -13t-10.5 -13l-44 29q31 58 75 64z" />
    <glyph glyph-name="uni066E.init" unicode="&#x66e;" horiz-adv-x="336" 
d="M-5 149h53q72 0 103.5 16t31.5 48q0 21 -21 82.5t-33 90.5l105 58q19 -42 39.5 -112.5t20.5 -123.5q0 -102 -63.5 -155t-182.5 -53h-53v149z" />
    <glyph glyph-name="uni066E.medi" unicode="&#x66e;" horiz-adv-x="335" 
d="M-5 149h6q76 0 110.5 16t39.5 52q2 16 2 25q0 24 -5 55.5t-6 39.5l104 20q13 -74 13 -165q4 -17 22.5 -30t52.5 -13h6l8 -75l-8 -74h-6q-47 0 -85.5 25t-61.5 65l27 -3q-27 -45 -79.5 -66t-133.5 -21h-6v149z" />
    <glyph glyph-name="uni066E.fina" unicode="&#x66e;" horiz-adv-x="950" 
d="M424 62q0 25 2 75q131 0 203.5 16.5t110.5 53.5t64 108l104 -12q-19 -56 -19 -91q0 -33 16.5 -48t49.5 -15l8 -74l-8 -75q-41 0 -76 18.5t-55.5 51.5t-20.5 75l20 -4q-62 -86 -156 -119.5t-241 -33.5q-2 50 -2 74zM152.5 42q-102.5 55 -111.5 154q-1 8 -1 24q0 43 12 93
t29 89l96 -46q-26 -81 -26 -122q0 -27 32.5 -49t96 -35t154.5 -13q2 -25 2 -74q0 -50 -2 -75q-179 -1 -281.5 54z" />
    <glyph glyph-name="uni0628" unicode="&#x628;" horiz-adv-x="857" arabic-form="isolated" 
d="M422 55q0 28 2 82q92 0 157 10t97.5 23t34.5 21q-8 47 -27.5 104.5t-33.5 90.5l105 58q24 -55 42 -123t18 -120q0 -105 -108 -159t-285 -54q-2 23 -2 67zM152.5 42q-102.5 55 -111.5 154q-1 8 -1 24q0 43 12 93t29 89l96 -46q-26 -81 -26 -122q0 -27 32.5 -49t96 -35
t154.5 -13q2 -25 2 -74q0 -50 -2 -75q-179 -1 -281.5 54zM426 -87q31 -30 61 -61l31 -31l-92 -92l-93 92z" />
    <glyph glyph-name="uni0628.fina" unicode="&#x628;" horiz-adv-x="950" arabic-form="final" 
d="M424 62q0 25 2 75q131 0 203.5 16.5t110.5 53.5t64 108l104 -12q-19 -56 -19 -91q0 -33 16.5 -48t49.5 -15l8 -74l-8 -75q-41 0 -76 18.5t-55.5 51.5t-20.5 75l20 -4q-62 -86 -156 -119.5t-241 -33.5q-2 50 -2 74zM152.5 42q-102.5 55 -111.5 154q-1 8 -1 24q0 43 12 93
t29 89l96 -46q-26 -81 -26 -122q0 -27 32.5 -49t96 -35t154.5 -13q2 -25 2 -74q0 -50 -2 -75q-179 -1 -281.5 54zM449 -86q31 -30 61 -61l31 -31l-92 -92l-93 92z" />
    <glyph glyph-name="uni0628.medi" unicode="&#x628;" horiz-adv-x="335" arabic-form="medial" 
d="M-5 149h6q76 0 110.5 16t39.5 52q2 16 2 25q0 24 -5 55.5t-6 39.5l104 20q13 -74 13 -165q4 -17 22.5 -30t52.5 -13h6l8 -75l-8 -74h-6q-47 0 -85.5 25t-61.5 65l27 -3q-27 -45 -79.5 -66t-133.5 -21h-6v149zM57 -80q31 -30 61 -61l31 -31l-92 -92l-93 92z" />
    <glyph glyph-name="uni0628.init" unicode="&#x628;" horiz-adv-x="336" arabic-form="initial" 
d="M-5 149h53q72 0 103.5 16t31.5 48q0 21 -21 82.5t-33 90.5l105 58q19 -42 39.5 -112.5t20.5 -123.5q0 -102 -63.5 -155t-182.5 -53h-53v149zM73 -79q31 -30 61 -61l31 -31l-92 -92l-93 92z" />
    <glyph glyph-name="uni067E" unicode="&#x67e;" horiz-adv-x="857" arabic-form="isolated" 
d="M422 55q0 28 2 82q92 0 157 10t97.5 23t34.5 21q-8 47 -27.5 104.5t-33.5 90.5l105 58q24 -55 42 -123t18 -120q0 -105 -108 -159t-285 -54q-2 23 -2 67zM152.5 42q-102.5 55 -111.5 154q-1 8 -1 24q0 43 12 93t29 89l96 -46q-26 -81 -26 -122q0 -27 32.5 -49t96 -35
t154.5 -13q2 -25 2 -74q0 -50 -2 -75q-179 -1 -281.5 54zM520 -232l-80 79l80 81q25 -28 60 -61l20 -20zM331 -232l-79 79l31 32l48 49l54 -54l27 -27zM426 -341l-70 70l70 71l47 -47l24 -24z" />
    <glyph glyph-name="uni067E.fina" unicode="&#x67e;" horiz-adv-x="950" arabic-form="final" 
d="M424 62q0 25 2 75q131 0 203.5 16.5t110.5 53.5t64 108l104 -12q-19 -56 -19 -91q0 -33 16.5 -48t49.5 -15l8 -74l-8 -75q-41 0 -76 18.5t-55.5 51.5t-20.5 75l20 -4q-62 -86 -156 -119.5t-241 -33.5q-2 50 -2 74zM152.5 42q-102.5 55 -111.5 154q-1 8 -1 24q0 43 12 93
t29 89l96 -46q-26 -81 -26 -122q0 -27 32.5 -49t96 -35t154.5 -13q2 -25 2 -74q0 -50 -2 -75q-179 -1 -281.5 54zM539 -228l-80 79l80 81q25 -28 60 -61l20 -20zM350 -228l-79 79l31 32l48 49l54 -54l27 -27zM445 -337l-70 70l70 71l47 -47l24 -24z" />
    <glyph glyph-name="uni067E.medi" unicode="&#x67e;" horiz-adv-x="390" arabic-form="medial" 
d="M-5 149h7q90 0 134 9.5t58 28.5t14 55q0 29 -10 95l103 20q14 -73 14 -165q4 -17 22 -30t52 -13h6l8 -75l-8 -74h-6q-46 0 -85 25.5t-61 64.5l25 -5q-27 -46 -87.5 -65.5t-178.5 -19.5h-7v149zM177 -229l-80 79l80 81q25 -28 60 -61l20 -20zM-12 -229l-79 79l31 32l48 49
l54 -54l27 -27zM83 -338l-70 70l70 71l47 -47l24 -24z" />
    <glyph glyph-name="uni067E.init" unicode="&#x67e;" horiz-adv-x="376" arabic-form="initial" 
d="M-5 149h48q99 0 140 17t41 52q-1 22 -23 84.5t-32 83.5l106 58q20 -42 40 -111.5t20 -121.5q-1 -102 -69 -156.5t-201 -54.5h-70v149zM202 -229l-80 79l80 81q25 -28 60 -61l20 -20zM13 -229l-79 79l31 32l48 49l54 -54l27 -27zM108 -338l-70 70l70 71l47 -47l24 -24z
" />
    <glyph glyph-name="uni062A" unicode="&#x62a;" horiz-adv-x="857" arabic-form="isolated" 
d="M422 55q0 28 2 82q92 0 157 10t97.5 23t34.5 21q-8 47 -27.5 104.5t-33.5 90.5l105 58q24 -55 42 -123t18 -120q0 -105 -108 -159t-285 -54q-2 23 -2 67zM152.5 42q-102.5 55 -111.5 154q-1 8 -1 24q0 43 12 93t29 89l96 -46q-26 -81 -26 -122q0 -27 32.5 -49t96 -35
t154.5 -13q2 -25 2 -74q0 -50 -2 -75q-179 -1 -281.5 54zM340 492l84 -84l-84 -85l-28 28l-57 57zM516 492l84 -84l-84 -85l-28 28l-57 57z" />
    <glyph glyph-name="uni062A.fina" unicode="&#x62a;" horiz-adv-x="950" arabic-form="final" 
d="M424 62q0 25 2 75q131 0 203.5 16.5t110.5 53.5t64 108l104 -12q-19 -56 -19 -91q0 -33 16.5 -48t49.5 -15l8 -74l-8 -75q-41 0 -76 18.5t-55.5 51.5t-20.5 75l20 -4q-62 -86 -156 -119.5t-241 -33.5q-2 50 -2 74zM152.5 42q-102.5 55 -111.5 154q-1 8 -1 24q0 43 12 93
t29 89l96 -46q-26 -81 -26 -122q0 -27 32.5 -49t96 -35t154.5 -13q2 -25 2 -74q0 -50 -2 -75q-179 -1 -281.5 54zM376 496l84 -84l-84 -85l-28 28l-57 57zM552 496l84 -84l-84 -85l-28 28l-57 57z" />
    <glyph glyph-name="uni062A.medi" unicode="&#x62a;" horiz-adv-x="390" arabic-form="medial" 
d="M-5 149h7q90 0 134 9.5t58 28.5t14 55q0 29 -10 95l103 20q14 -73 14 -165q4 -17 22 -30t52 -13h6l8 -75l-8 -74h-6q-46 0 -85 25.5t-61 64.5l25 -5q-27 -46 -87.5 -65.5t-178.5 -19.5h-7v149zM74 596l84 -84l-84 -85l-28 28l-57 57zM250 596l84 -84l-84 -85l-28 28
l-57 57z" />
    <glyph glyph-name="uni062A.init" unicode="&#x62a;" horiz-adv-x="376" arabic-form="initial" 
d="M-5 149h48q99 0 140 17t41 52q-1 22 -23 84.5t-32 83.5l106 58q20 -42 40 -111.5t20 -121.5q-1 -102 -69 -156.5t-201 -54.5h-70v149zM88 650l84 -84l-84 -85l-28 28l-57 57zM264 650l84 -84l-84 -85l-28 28l-57 57z" />
    <glyph glyph-name="uni062B" unicode="&#x62b;" horiz-adv-x="857" arabic-form="isolated" 
d="M422 55q0 28 2 82q92 0 157 10t97.5 23t34.5 21q-8 47 -27.5 104.5t-33.5 90.5l105 58q24 -55 42 -123t18 -120q0 -105 -108 -159t-285 -54q-2 23 -2 67zM152.5 42q-102.5 55 -111.5 154q-1 8 -1 24q0 43 12 93t29 89l96 -46q-26 -81 -26 -122q0 -27 32.5 -49t96 -35
t154.5 -13q2 -25 2 -74q0 -50 -2 -75q-179 -1 -281.5 54zM335 501l80 -79l-80 -81q-9 11 -60 61l-20 20zM524 501l79 -79l-32 -32l-47 -49l-54 54l-27 27zM429 610l70 -70l-70 -71l-47 47l-24 24z" />
    <glyph glyph-name="uni062B.fina" unicode="&#x62b;" horiz-adv-x="950" arabic-form="final" 
d="M424 62q0 25 2 75q131 0 203.5 16.5t110.5 53.5t64 108l104 -12q-19 -56 -19 -91q0 -33 16.5 -48t49.5 -15l8 -74l-8 -75q-41 0 -76 18.5t-55.5 51.5t-20.5 75l20 -4q-62 -86 -156 -119.5t-241 -33.5q-2 50 -2 74zM152.5 42q-102.5 55 -111.5 154q-1 8 -1 24q0 43 12 93
t29 89l96 -46q-26 -81 -26 -122q0 -27 32.5 -49t96 -35t154.5 -13q2 -25 2 -74q0 -50 -2 -75q-179 -1 -281.5 54zM369 497l80 -79l-80 -81q-9 11 -60 61l-20 20zM558 497l79 -79l-32 -32l-47 -49l-54 54l-27 27zM463 606l70 -70l-70 -71l-47 47l-24 24z" />
    <glyph glyph-name="uni062B.medi" unicode="&#x62b;" horiz-adv-x="390" arabic-form="medial" 
d="M-5 149h7q90 0 134 9.5t58 28.5t14 55q0 29 -10 95l103 20q14 -73 14 -165q4 -17 22 -30t52 -13h6l8 -75l-8 -74h-6q-46 0 -85 25.5t-61 64.5l25 -5q-27 -46 -87.5 -65.5t-178.5 -19.5h-7v149zM63 593l80 -79l-80 -81q-9 11 -60 61l-20 20zM252 593l79 -79l-32 -32
l-47 -49l-54 54l-27 27zM157 702l70 -70l-70 -71l-47 47l-24 24z" />
    <glyph glyph-name="uni062B.init" unicode="&#x62b;" horiz-adv-x="376" arabic-form="initial" 
d="M-5 149h48q99 0 140 17t41 52q-1 22 -23 84.5t-32 83.5l106 58q20 -42 40 -111.5t20 -121.5q-1 -102 -69 -156.5t-201 -54.5h-70v149zM87 645l80 -79l-80 -81q-9 11 -60 61l-20 20zM276 645l79 -79l-32 -32l-47 -49l-54 54l-27 27zM181 754l70 -70l-70 -71l-47 47l-24 24
z" />
    <glyph glyph-name="uni0679" unicode="&#x679;" horiz-adv-x="857" arabic-form="isolated" 
d="M422 55q0 28 2 82q92 0 157 10t97.5 23t34.5 21q-8 47 -27.5 104.5t-33.5 90.5l105 58q24 -55 42 -123t18 -120q0 -105 -108 -159t-285 -54q-2 23 -2 67zM152.5 42q-102.5 55 -111.5 154q-1 8 -1 24q0 43 12 93t29 89l96 -46q-26 -81 -26 -122q0 -27 32.5 -49t96 -35
t154.5 -13q2 -25 2 -74q0 -50 -2 -75q-179 -1 -281.5 54zM368 416q21 -4 59 -4q92 0 92 37q0 9 -7 16.5t-21 7.5q-31 0 -65.5 -31t-59.5 -75l-42 33q32 59 74 99.5t87 40.5q39 0 61.5 -28.5t22.5 -61.5q0 -44 -40 -76t-119 -32q-39 0 -73 10.5t-50 18.5l21 60q39 -11 60 -15
zM356 458q0 28 -4.5 73.5t-10.5 79.5l54 11q7 -43 12 -103.5t2 -86.5l-54 7q1 5 1 19z" />
    <glyph glyph-name="uni0679.fina" unicode="&#x679;" horiz-adv-x="950" arabic-form="final" 
d="M424 62q0 25 2 75q131 0 203.5 16.5t110.5 53.5t64 108l104 -12q-19 -56 -19 -91q0 -33 16.5 -48t49.5 -15l8 -74l-8 -75q-41 0 -76 18.5t-55.5 51.5t-20.5 75l20 -4q-62 -86 -156 -119.5t-241 -33.5q-2 50 -2 74zM152.5 42q-102.5 55 -111.5 154q-1 8 -1 24q0 43 12 93
t29 89l96 -46q-26 -81 -26 -122q0 -27 32.5 -49t96 -35t154.5 -13q2 -25 2 -74q0 -50 -2 -75q-179 -1 -281.5 54zM399 392q22 -4 59 -4q51 0 71.5 11t20.5 26q0 10 -7 17.5t-21 7.5q-32 0 -66 -31t-59 -76l-42 33q32 59 74 99.5t87 40.5q40 0 62.5 -28t22.5 -62
q0 -27 -17 -52t-52.5 -40.5t-88.5 -15.5q-39 0 -74 10.5t-51 18.5l21 60q38 -11 60 -15zM387 434q0 29 -4.5 74.5t-10.5 78.5l54 11q7 -43 12 -103.5t2 -86.5l-54 7q1 5 1 19z" />
    <glyph glyph-name="uni0679.medi" unicode="&#x679;" horiz-adv-x="390" arabic-form="medial" 
d="M-5 149h7q90 0 134 9.5t58 28.5t14 55q0 29 -10 95l103 20q14 -73 14 -165q4 -17 22 -30t52 -13h6l8 -75l-8 -74h-6q-46 0 -85 25.5t-61 64.5l25 -5q-27 -46 -87.5 -65.5t-178.5 -19.5h-7v149zM94.5 475.5q22.5 -4.5 60.5 -4.5q92 0 92 37q0 10 -7 17t-21 7
q-31 0 -66 -31t-59 -75l-42 33q32 59 74 99.5t87 40.5q39 0 61.5 -28.5t22.5 -61.5q0 -27 -17 -52t-52.5 -40.5t-89.5 -15.5q-39 0 -73 10.5t-50 18.5l21 60q36 -10 58.5 -14.5zM84 517q0 29 -4.5 74.5t-10.5 78.5l54 11q7 -43 12 -103.5t2 -86.5l-54 7q1 5 1 19z" />
    <glyph glyph-name="uni0679.init" unicode="&#x679;" horiz-adv-x="376" arabic-form="initial" 
d="M-5 149h48q99 0 140 17t41 52q-1 22 -23 84.5t-32 83.5l106 58q20 -42 40 -111.5t20 -121.5q-1 -102 -69 -156.5t-201 -54.5h-70v149zM80.5 579.5q22.5 -4.5 60.5 -4.5q92 0 92 37q0 10 -7 17t-21 7q-31 0 -66 -31t-59 -75l-42 33q32 59 74 99.5t87 40.5q39 0 61.5 -28.5
t22.5 -61.5q0 -27 -17 -52t-52.5 -40.5t-89.5 -15.5q-39 0 -73 10.5t-50 18.5l21 60q36 -10 58.5 -14.5zM70 621q0 29 -4.5 74.5t-10.5 78.5l54 11q7 -43 12 -103.5t2 -86.5l-54 7q1 5 1 19z" />
    <glyph glyph-name="uni062C" unicode="&#x62c;" horiz-adv-x="722" arabic-form="isolated" 
d="M212 -354q-79 34 -125 98.5t-46 151.5q0 20 1 30q10 111 88 192.5t213.5 129t316.5 55.5l-29 -107q-61 24 -139 80q-71 50 -115.5 71.5t-85.5 21.5q-38 0 -67.5 -21t-45.5 -47l-84 61q77 150 200 150q57 0 111.5 -26.5t145.5 -92.5q49 -35 76 -51.5t58 -27.5l-17 -143
q-151 0 -265.5 -36t-179 -95t-73.5 -124q-4 -44 29.5 -79.5t94.5 -56t137 -20.5q70 0 132 15t98 29l54 -114q-136 -78 -308 -78q-96 0 -175 34zM402 42q31 -30 61 -61l31 -31l-92 -92l-93 92z" />
    <glyph glyph-name="uni062C.fina" unicode="&#x62c;" horiz-adv-x="742" arabic-form="final" 
d="M613 242q0 -47 28.5 -70t88.5 -23h17l8 -75l-8 -74h-17q-66 0 -115 29.5t-75 82t-26 119.5q0 32 6 66l97 -18q-4 -26 -4 -37zM212 -354q-79 34 -125 98.5t-46 151.5q0 20 1 30q10 111 88 192.5t213.5 129t316.5 55.5l-29 -107q-61 24 -139 80q-71 50 -115.5 71.5
t-85.5 21.5q-38 0 -67.5 -21t-45.5 -47l-84 61q77 150 200 150q57 0 111.5 -26.5t145.5 -92.5q49 -35 76 -51.5t58 -27.5l-17 -143q-151 0 -265.5 -36t-179 -95t-73.5 -124q-4 -44 29.5 -79.5t94.5 -56t137 -20.5q70 0 132 15t98 29l54 -114q-136 -78 -308 -78
q-96 0 -175 34zM397 37q31 -30 61 -61l31 -31l-92 -92l-93 92z" />
    <glyph glyph-name="uni062C.medi" unicode="&#x62c;" horiz-adv-x="756" arabic-form="medial" 
d="M480 167l76 69q5 -20 25.5 -40.5t54 -33.5t76.5 -13h49l8 -75l-8 -74h-10q-219 1 -271 167zM-6 149h75q118 0 221.5 26t220.5 88q83 43 121 55l4 -105q-53 6 -102 22t-115 50q-88 45 -153 45q-38 0 -67.5 -20.5t-45.5 -46.5l-84 61q76 149 201 149q42 0 81 -14t114 -52
q58 -30 98.5 -46t89.5 -26l5 -134q-27 -8 -106 -51q-6 -4 -11 -6.5l-9 -4.5q-99 -52 -172 -81t-149 -43.5t-172 -14.5h-45v149zM334 -75q31 -30 61 -61l31 -31l-92 -92l-93 92z" />
    <glyph glyph-name="uni062C.init" unicode="&#x62c;" horiz-adv-x="688" arabic-form="initial" 
d="M-6 149h75q118 0 221.5 26t220.5 88q83 43 121 55l4 -105q-53 6 -102 22t-115 50q-88 45 -153 45q-38 0 -67.5 -20.5t-45.5 -46.5l-84 61q76 149 201 149q42 0 81 -14t114 -52q58 -30 98.5 -46t89.5 -26l5 -134q-27 -8 -106 -51q-6 -4 -11 -6.5l-9 -4.5q-99 -52 -172 -81
t-149 -43.5t-172 -14.5h-45v149zM334 -76q31 -30 61 -61l31 -31l-92 -92l-93 92z" />
    <glyph glyph-name="uni0686" unicode="&#x686;" horiz-adv-x="722" arabic-form="isolated" 
d="M212 -354q-79 34 -125 98.5t-46 151.5q0 20 1 30q10 111 88 192.5t213.5 129t316.5 55.5l-29 -107q-61 24 -139 80q-71 50 -115.5 71.5t-85.5 21.5q-38 0 -67.5 -21t-45.5 -47l-84 61q77 150 200 150q57 0 111.5 -26.5t145.5 -92.5q49 -35 76 -51.5t58 -27.5l-17 -143
q-151 0 -265.5 -36t-179 -95t-73.5 -124q-4 -44 29.5 -79.5t94.5 -56t137 -20.5q70 0 132 15t98 29l54 -114q-136 -78 -308 -78q-96 0 -175 34zM515 -94l-77 76q51 51 77 79q25 -28 58 -59l20 -20q-27 -25 -78 -76zM332 -94l-76 76l30 31q31 31 46 48l52 -53l27 -26
q1 1 -79 -76zM424 -200l-68 68q24 23 68 69q24 -22 46 -46l23 -23z" />
    <glyph glyph-name="uni0686.fina" unicode="&#x686;" horiz-adv-x="742" arabic-form="final" 
d="M613 242q0 -47 28.5 -70t88.5 -23h17l8 -75l-8 -74h-17q-66 0 -115 29.5t-75 82t-26 119.5q0 32 6 66l97 -18q-4 -26 -4 -37zM212 -354q-79 34 -125 98.5t-46 151.5q0 20 1 30q10 111 88 192.5t213.5 129t316.5 55.5l-29 -107q-61 24 -139 80q-71 50 -115.5 71.5
t-85.5 21.5q-38 0 -67.5 -21t-45.5 -47l-84 61q77 150 200 150q57 0 111.5 -26.5t145.5 -92.5q49 -35 76 -51.5t58 -27.5l-17 -143q-151 0 -265.5 -36t-179 -95t-73.5 -124q-4 -44 29.5 -79.5t94.5 -56t137 -20.5q70 0 132 15t98 29l54 -114q-136 -78 -308 -78
q-96 0 -175 34zM512 -94l-77 76q51 51 77 79q25 -28 58 -59l20 -20q-27 -25 -78 -76zM329 -94l-76 76l30 31q31 31 46 48l52 -53l27 -26q1 1 -79 -76zM421 -200l-68 68q24 23 68 69q24 -22 46 -46l23 -23z" />
    <glyph glyph-name="uni0686.medi" unicode="&#x686;" horiz-adv-x="756" arabic-form="medial" 
d="M480 167l76 69q5 -20 25.5 -40.5t54 -33.5t76.5 -13h49l8 -75l-8 -74h-10q-219 1 -271 167zM-6 149h75q118 0 221.5 26t220.5 88q83 43 121 55l4 -105q-53 6 -102 22t-115 50q-88 45 -153 45q-38 0 -67.5 -20.5t-45.5 -46.5l-84 61q76 149 201 149q42 0 81 -14t114 -52
q58 -30 98.5 -46t89.5 -26l5 -134q-27 -8 -106 -51q-6 -4 -11 -6.5l-9 -4.5q-99 -52 -172 -81t-149 -43.5t-172 -14.5h-45v149zM446 -227l-80 79l80 81q25 -28 60 -61l20 -20zM257 -227l-79 79l31 32l48 49l54 -54l27 -27zM352 -336l-70 70l70 71l47 -47l24 -24z" />
    <glyph glyph-name="uni0686.init" unicode="&#x686;" horiz-adv-x="688" arabic-form="initial" 
d="M-6 149h75q118 0 221.5 26t220.5 88q83 43 121 55l4 -105q-53 6 -102 22t-115 50q-88 45 -153 45q-38 0 -67.5 -20.5t-45.5 -46.5l-84 61q76 149 201 149q42 0 81 -14t114 -52q58 -30 98.5 -46t89.5 -26l5 -134q-27 -8 -106 -51q-6 -4 -11 -6.5l-9 -4.5q-99 -52 -172 -81
t-149 -43.5t-172 -14.5h-45v149zM442 -227l-80 79l80 81q25 -28 60 -61l20 -20zM253 -227l-79 79l31 32l48 49l54 -54l27 -27zM348 -336l-70 70l70 71l47 -47l24 -24z" />
    <glyph glyph-name="uni062D" unicode="&#x62d;" horiz-adv-x="722" arabic-form="isolated" 
d="M212 -354q-79 34 -125 98.5t-46 151.5q0 20 1 30q10 111 88 192.5t213.5 129t316.5 55.5l-29 -107q-61 24 -139 80q-71 50 -115.5 71.5t-85.5 21.5q-38 0 -67.5 -21t-45.5 -47l-84 61q77 150 200 150q57 0 111.5 -26.5t145.5 -92.5q49 -35 76 -51.5t58 -27.5l-17 -143
q-151 0 -265.5 -36t-179 -95t-73.5 -124q-4 -44 29.5 -79.5t94.5 -56t137 -20.5q70 0 132 15t98 29l54 -114q-136 -78 -308 -78q-96 0 -175 34z" />
    <glyph glyph-name="uni062D.fina" unicode="&#x62d;" horiz-adv-x="742" arabic-form="final" 
d="M613 242q0 -47 28.5 -70t88.5 -23h17l8 -75l-8 -74h-17q-66 0 -115 29.5t-75 82t-26 119.5q0 32 6 66l97 -18q-4 -26 -4 -37zM212 -354q-79 34 -125 98.5t-46 151.5q0 20 1 30q10 111 88 192.5t213.5 129t316.5 55.5l-29 -107q-61 24 -139 80q-71 50 -115.5 71.5
t-85.5 21.5q-38 0 -67.5 -21t-45.5 -47l-84 61q77 150 200 150q57 0 111.5 -26.5t145.5 -92.5q49 -35 76 -51.5t58 -27.5l-17 -143q-151 0 -265.5 -36t-179 -95t-73.5 -124q-4 -44 29.5 -79.5t94.5 -56t137 -20.5q70 0 132 15t98 29l54 -114q-136 -78 -308 -78
q-96 0 -175 34z" />
    <glyph glyph-name="uni062D.medi" unicode="&#x62d;" horiz-adv-x="757" arabic-form="medial" 
d="M480 167l76 69q5 -20 25.5 -40.5t54 -33.5t76.5 -13h49l8 -75l-8 -74h-10q-219 1 -271 167zM-6 149h75q118 0 221.5 26t220.5 88q83 43 121 55l4 -105q-53 6 -102 22t-115 50q-88 45 -153 45q-38 0 -67.5 -20.5t-45.5 -46.5l-84 61q76 149 201 149q42 0 81 -14t114 -52
q58 -30 98.5 -46t89.5 -26l5 -134q-27 -8 -106 -51q-6 -4 -11 -6.5l-9 -4.5q-99 -52 -172 -81t-149 -43.5t-172 -14.5h-45v149z" />
    <glyph glyph-name="uni062D.init" unicode="&#x62d;" horiz-adv-x="688" arabic-form="initial" 
d="M-6 149h75q118 0 221.5 26t220.5 88q83 43 121 55l4 -105q-53 6 -102 22t-115 50q-88 45 -153 45q-38 0 -67.5 -20.5t-45.5 -46.5l-84 61q76 149 201 149q42 0 81 -14t114 -52q58 -30 98.5 -46t89.5 -26l5 -134q-27 -8 -106 -51q-6 -4 -11 -6.5l-9 -4.5q-99 -52 -172 -81
t-149 -43.5t-172 -14.5h-45v149z" />
    <glyph glyph-name="uni062E" unicode="&#x62e;" horiz-adv-x="722" arabic-form="isolated" 
d="M286 758q31 -30 61 -61l31 -31l-92 -92l-93 92zM212 -354q-79 34 -125 98.5t-46 151.5q0 20 1 30q10 111 88 192.5t213.5 129t316.5 55.5l-29 -107q-61 24 -139 80q-71 50 -115.5 71.5t-85.5 21.5q-38 0 -67.5 -21t-45.5 -47l-84 61q77 150 200 150q57 0 111.5 -26.5
t145.5 -92.5q49 -35 76 -51.5t58 -27.5l-17 -143q-151 0 -265.5 -36t-179 -95t-73.5 -124q-4 -44 29.5 -79.5t94.5 -56t137 -20.5q70 0 132 15t98 29l54 -114q-136 -78 -308 -78q-96 0 -175 34z" />
    <glyph glyph-name="uni062E.fina" unicode="&#x62e;" horiz-adv-x="742" arabic-form="final" 
d="M613 242q0 -47 28.5 -70t88.5 -23h17l8 -75l-8 -74h-17q-66 0 -115 29.5t-75 82t-26 119.5q0 32 6 66l97 -18q-4 -26 -4 -37zM212 -354q-79 34 -125 98.5t-46 151.5q0 20 1 30q10 111 88 192.5t213.5 129t316.5 55.5l-29 -107q-61 24 -139 80q-71 50 -115.5 71.5
t-85.5 21.5q-38 0 -67.5 -21t-45.5 -47l-84 61q77 150 200 150q57 0 111.5 -26.5t145.5 -92.5q49 -35 76 -51.5t58 -27.5l-17 -143q-151 0 -265.5 -36t-179 -95t-73.5 -124q-4 -44 29.5 -79.5t94.5 -56t137 -20.5q70 0 132 15t98 29l54 -114q-136 -78 -308 -78
q-96 0 -175 34zM267 758q31 -30 61 -61l31 -31l-92 -92l-93 92z" />
    <glyph glyph-name="uni062E.medi" unicode="&#x62e;" horiz-adv-x="756" arabic-form="medial" 
d="M480 167l76 69q5 -20 25.5 -40.5t54 -33.5t76.5 -13h49l8 -75l-8 -74h-10q-219 1 -271 167zM-6 149h75q118 0 221.5 26t220.5 88q83 43 121 55l4 -105q-53 6 -102 22t-115 50q-88 45 -153 45q-38 0 -67.5 -20.5t-45.5 -46.5l-84 61q76 149 201 149q42 0 81 -14t114 -52
q58 -30 98.5 -46t89.5 -26l5 -134q-27 -8 -106 -51q-6 -4 -11 -6.5l-9 -4.5q-99 -52 -172 -81t-149 -43.5t-172 -14.5h-45v149zM283 726q31 -30 61 -61l31 -31l-92 -92l-93 92z" />
    <glyph glyph-name="uni062E.init" unicode="&#x62e;" horiz-adv-x="688" arabic-form="initial" 
d="M-6 149h75q118 0 221.5 26t220.5 88q83 43 121 55l4 -105q-53 6 -102 22t-115 50q-88 45 -153 45q-38 0 -67.5 -20.5t-45.5 -46.5l-84 61q76 149 201 149q42 0 81 -14t114 -52q58 -30 98.5 -46t89.5 -26l5 -134q-27 -8 -106 -51q-6 -4 -11 -6.5l-9 -4.5q-99 -52 -172 -81
t-149 -43.5t-172 -14.5h-45v149zM283 726q31 -30 61 -61l31 -31l-92 -92l-93 92z" />
    <glyph glyph-name="uni062F" unicode="&#x62f;" horiz-adv-x="529" arabic-form="isolated" 
d="M114 21.5q-58 26.5 -90 53.5l54 105q36 -18 74 -31t93 -13q54 1 88.5 12.5t45.5 25.5q1 2 1 8q0 21 -18.5 55.5t-65 82t-124.5 100.5l72 131q116 -82 183.5 -179t67.5 -185q0 -42 -16 -77q-24 -56 -85 -85.5t-135 -29.5q-87 0 -145 26.5z" />
    <glyph glyph-name="uni062F.fina" unicode="&#x62f;" horiz-adv-x="582" arabic-form="final" 
d="M461.5 38q-45.5 38 -80.5 120l-143 328l103 56l137 -324q16 -40 37 -54.5t60 -14.5h12l8 -75l-8 -74h-12q-68 0 -113.5 38zM24 75l54 105q32 -17 70 -30.5t90 -13.5q65 0 105 19.5t62 41.5l67 -87q-23 -29 -44.5 -50.5t-66.5 -43t-108 -21.5q-122 0 -229 80z" />
    <glyph glyph-name="uni0630" unicode="&#x630;" horiz-adv-x="529" arabic-form="isolated" 
d="M114 21.5q-58 26.5 -90 53.5l54 105q36 -18 74 -31t93 -13q54 1 88.5 12.5t45.5 25.5q1 2 1 8q0 21 -18.5 55.5t-65 82t-124.5 100.5l72 131q116 -82 183.5 -179t67.5 -185q0 -42 -16 -77q-24 -56 -85 -85.5t-135 -29.5q-87 0 -145 26.5zM224 793q31 -30 61 -61l31 -31
l-92 -92l-93 92z" />
    <glyph glyph-name="uni0630.fina" unicode="&#x630;" horiz-adv-x="582" arabic-form="final" 
d="M461.5 38q-45.5 38 -80.5 120l-143 328l103 56l137 -324q16 -40 37 -54.5t60 -14.5h12l8 -75l-8 -74h-12q-68 0 -113.5 38zM24 75l54 105q32 -17 70 -30.5t90 -13.5q65 0 105 19.5t62 41.5l67 -87q-23 -29 -44.5 -50.5t-66.5 -43t-108 -21.5q-122 0 -229 80zM299 793
q31 -30 61 -61l31 -31l-92 -92l-93 92z" />
    <glyph glyph-name="uni0688.fina" unicode="&#x688;" horiz-adv-x="582" arabic-form="final" 
d="M461.5 38q-45.5 38 -80.5 120l-143 328l103 56l137 -324q16 -40 37 -54.5t60 -14.5h12l8 -75l-8 -74h-12q-68 0 -113.5 38zM24 75l54 105q32 -17 70 -30.5t90 -13.5q65 0 105 19.5t62 41.5l67 -87q-23 -29 -44.5 -50.5t-66.5 -43t-108 -21.5q-122 0 -229 80zM263.5 689.5
q22.5 -4.5 60.5 -4.5q92 0 92 37q0 10 -7 17t-21 7q-31 0 -66 -31t-59 -75l-42 33q32 59 74 99.5t87 40.5q39 0 61.5 -28.5t22.5 -61.5q0 -27 -17 -52t-52.5 -40.5t-89.5 -15.5q-39 0 -73 10.5t-50 18.5l21 60q36 -10 58.5 -14.5zM253 731q0 29 -4.5 74.5t-10.5 78.5l54 11
q7 -43 12 -103.5t2 -86.5l-54 7q1 5 1 19z" />
    <glyph glyph-name="uni0631" unicode="&#x631;" horiz-adv-x="386" arabic-form="isolated" 
d="M121 -103.5q55 35.5 86.5 70.5t31.5 60q0 41 -53 223l-5 20l112 44q24 -69 38 -147.5t14 -139.5q0 -98 -77 -181.5t-207 -137.5l-61 126q66 27 121 62.5z" />
    <glyph glyph-name="uni0631.fina" unicode="&#x631;" horiz-adv-x="408" arabic-form="final" 
d="M293 50q-42 50 -70 140l90 55q14 -53 34 -74.5t56 -21.5h9l8 -75l-8 -74h-9q-68 0 -110 50zM121 -103.5q55 35.5 86.5 70.5t31.5 60q0 41 -53 223l-5 20l112 44q24 -69 38 -147.5t14 -139.5q0 -98 -77 -181.5t-207 -137.5l-61 126q66 27 121 62.5z" />
    <glyph glyph-name="uni0632" unicode="&#x632;" horiz-adv-x="386" arabic-form="isolated" 
d="M121 -103.5q55 35.5 86.5 70.5t31.5 60q0 41 -53 223l-5 20l112 44q24 -69 38 -147.5t14 -139.5q0 -98 -77 -181.5t-207 -137.5l-61 126q66 27 121 62.5zM221 589q31 -30 61 -61l31 -31l-92 -92l-93 92z" />
    <glyph glyph-name="uni0632.fina" unicode="&#x632;" horiz-adv-x="408" arabic-form="final" 
d="M293 50q-42 50 -70 140l90 55q14 -53 34 -74.5t56 -21.5h9l8 -75l-8 -74h-9q-68 0 -110 50zM121 -103.5q55 35.5 86.5 70.5t31.5 60q0 41 -53 223l-5 20l112 44q24 -69 38 -147.5t14 -139.5q0 -98 -77 -181.5t-207 -137.5l-61 126q66 27 121 62.5zM220 589q31 -30 61 -61
l31 -31l-92 -92l-93 92z" />
    <glyph glyph-name="uni0691.fina" unicode="&#x691;" horiz-adv-x="408" arabic-form="final" 
d="M293 50q-42 50 -70 140l90 55q14 -53 34 -74.5t56 -21.5h9l8 -75l-8 -74h-9q-68 0 -110 50zM121 -103.5q55 35.5 86.5 70.5t31.5 60q0 41 -53 223l-5 20l112 44q24 -69 38 -147.5t14 -139.5q0 -98 -77 -181.5t-207 -137.5l-61 126q66 27 121 62.5zM191.5 452.5
q22.5 -4.5 60.5 -4.5q92 0 92 37q0 10 -7 17t-21 7q-31 0 -66 -31t-59 -75l-42 33q32 59 74 99.5t87 40.5q39 0 61.5 -28.5t22.5 -61.5q0 -27 -17 -52t-52.5 -40.5t-89.5 -15.5q-39 0 -73 10.5t-50 18.5l21 60q36 -10 58.5 -14.5zM181 494q0 29 -4.5 74.5t-10.5 78.5l54 11
q7 -43 12 -103.5t2 -86.5l-54 7q1 5 1 19z" />
    <glyph glyph-name="uni0695.fina" unicode="&#x695;" horiz-adv-x="408" 
d="M293 50q-42 50 -70 140l90 55q14 -53 34 -74.5t56 -21.5h9l8 -75l-8 -74h-9q-68 0 -110 50zM121 -103.5q55 35.5 86.5 70.5t31.5 60q0 41 -53 223l-5 20l112 44q24 -69 38 -147.5t14 -139.5q0 -98 -77 -181.5t-207 -137.5l-61 126q66 27 121 62.5zM201 -422
q-20 -39 -32 -72l-48 -16q-10 31 -31.5 73t-41.5 71l43 42q12 -16 28 -47.5t24 -57.5q7 27 23 61t29 53l44 -40q-18 -28 -38 -67z" />
    <glyph glyph-name="uni0698" unicode="&#x698;" horiz-adv-x="421" arabic-form="isolated" 
d="M121 -103.5q55 35.5 86.5 70.5t31.5 60q0 41 -53 223l-5 20l112 44q24 -69 38 -147.5t14 -139.5q0 -98 -77 -181.5t-207 -137.5l-61 126q66 27 121 62.5zM132 565l80 -79l-80 -81q-9 11 -60 61l-20 20zM321 565l79 -79l-32 -32l-47 -49l-54 54l-27 27zM226 674l70 -70
l-70 -71l-47 47l-24 24z" />
    <glyph glyph-name="uni0698.fina" unicode="&#x698;" horiz-adv-x="408" arabic-form="final" 
d="M293 50q-42 50 -70 140l90 55q14 -53 34 -74.5t56 -21.5h9l8 -75l-8 -74h-9q-68 0 -110 50zM121 -103.5q55 35.5 86.5 70.5t31.5 60q0 41 -53 223l-5 20l112 44q24 -69 38 -147.5t14 -139.5q0 -98 -77 -181.5t-207 -137.5l-61 126q66 27 121 62.5zM132 565l80 -79
l-80 -81q-9 11 -60 61l-20 20zM321 565l79 -79l-32 -32l-47 -49l-54 54l-27 27zM226 674l70 -70l-70 -71l-47 47l-24 24z" />
    <glyph glyph-name="uni0633" unicode="&#x633;" horiz-adv-x="1225" arabic-form="isolated" 
d="M1013 149h3q29 0 46 17t17 44t-20.5 86t-34.5 90l102 56q19 -39 40 -111.5t21 -126.5q0 -56 -22 -102.5t-61 -74t-88 -27.5h-3v149zM745 149h5q51 0 79 55q19 38 34 117l103 -5q-11 -66 -11 -94q0 -73 61 -73h2l8 -75l-8 -74h-2q-54 0 -91 29t-52 82l25 2
q-61 -113 -151 -113h-2v149zM637.5 53.5q-44.5 53.5 -65.5 137.5l84 52q12 -36 22.5 -55.5t28.5 -29t48 -9.5l-7 -149q-66 0 -110.5 53.5zM192 -256.5q-71 35.5 -110.5 101.5t-39.5 155q0 18 1 28q3 57 23.5 119t45.5 114l96 -44q-26 -60 -40 -105.5t-14 -92.5
q0 -82 52 -122.5t150 -40.5q70 0 122.5 24.5t80 64t27.5 83.5q0 59 -64 240l107 56q63 -171 63 -296q0 -87 -42 -160t-118.5 -116.5t-175.5 -43.5q-93 0 -164 35.5z" />
    <glyph glyph-name="uni0633.fina" unicode="&#x633;" horiz-adv-x="1276" arabic-form="final" 
d="M1170.5 38q-44.5 38 -67.5 108q-9 30 -36 170l103 28q11 -64 18.5 -97t13.5 -52q8 -23 25.5 -34.5t48.5 -11.5h6l7 -75l-8 -74h-5q-61 0 -105.5 38zM1012 149h3q33 0 60.5 16.5t29.5 39.5l90 -11q-4 -53 -29.5 -97.5t-65 -70.5t-85.5 -26h-3v149zM745 149h5q51 0 79 55
q19 38 34 117l103 -5q-11 -66 -11 -94q0 -73 61 -73h2l8 -75l-8 -74h-2q-54 0 -91 29t-52 82l25 2q-61 -113 -151 -113h-2v149zM637.5 53.5q-44.5 53.5 -65.5 137.5l84 52q12 -36 22.5 -55.5t28.5 -29t48 -9.5l-7 -149q-66 0 -110.5 53.5zM192 -256.5q-71 35.5 -110.5 101.5
t-39.5 155q0 18 1 28q3 57 23.5 119t45.5 114l96 -44q-26 -60 -40 -105.5t-14 -92.5q0 -82 52 -122.5t150 -40.5q70 0 122.5 24.5t80 64t27.5 83.5q0 59 -64 240l107 56q63 -171 63 -296q0 -87 -42 -160t-118.5 -116.5t-175.5 -43.5q-93 0 -164 35.5z" />
    <glyph glyph-name="uni0633.medi" unicode="&#x633;" horiz-adv-x="815" arabic-form="medial" 
d="M709.5 38q-44.5 38 -67.5 108q-9 30 -36 170l103 28q11 -64 18.5 -97t13.5 -52q8 -23 25.5 -34.5t48.5 -11.5h6l7 -75l-8 -74h-5q-61 0 -105.5 38zM551 149h3q33 0 60.5 16.5t29.5 39.5l90 -11q-4 -53 -29.5 -97.5t-65 -70.5t-85.5 -26h-3v149zM284 149h5q51 0 79 55
q19 38 34 117l103 -5q-11 -66 -11 -94q0 -73 61 -73h2l8 -75l-8 -74h-2q-54 0 -91 29t-52 82l25 2q-61 -113 -151 -113h-2v149zM-2 0l-8 74l8 75h5q31 0 61 13.5t45 33.5q21 24 32 54t20 64l104 -11q-1 -5 -11 -39.5t-10 -62.5q0 -52 42 -52h2l8 -75l-8 -74h-5q-43 0 -75 23
t-45 61q-32 -41 -73.5 -62.5t-88.5 -21.5h-3z" />
    <glyph glyph-name="uni0633.init" unicode="&#x633;" horiz-adv-x="763" arabic-form="initial" 
d="M552 149h3q29 0 46 17t17 44t-20.5 86t-34.5 90l102 56q19 -39 40 -111.5t21 -126.5q0 -56 -22 -102.5t-61 -74t-88 -27.5h-3v149zM284 149h5q51 0 79 55q19 38 34 117l103 -5q-11 -66 -11 -94q0 -73 61 -73h2l8 -75l-8 -74h-2q-54 0 -91 29t-52 82l25 2
q-61 -113 -151 -113h-2v149zM-2 0l-8 74l8 75h5q31 0 61 13.5t45 33.5q21 24 32 54t20 64l104 -11q-1 -5 -11 -39.5t-10 -62.5q0 -52 42 -52h2l8 -75l-8 -74h-5q-43 0 -75 23t-45 61q-32 -41 -73.5 -62.5t-88.5 -21.5h-3z" />
    <glyph glyph-name="uni0634" unicode="&#x634;" horiz-adv-x="1225" arabic-form="isolated" 
d="M1013 149h3q29 0 46 17t17 44t-20.5 86t-34.5 90l102 56q19 -39 40 -111.5t21 -126.5q0 -56 -22 -102.5t-61 -74t-88 -27.5h-3v149zM745 149h5q51 0 79 55q19 38 34 117l103 -5q-11 -66 -11 -94q0 -73 61 -73h2l8 -75l-8 -74h-2q-54 0 -91 29t-52 82l25 2
q-61 -113 -151 -113h-2v149zM637.5 53.5q-44.5 53.5 -65.5 137.5l84 52q12 -36 22.5 -55.5t28.5 -29t48 -9.5l-7 -149q-66 0 -110.5 53.5zM192 -256.5q-71 35.5 -110.5 101.5t-39.5 155q0 18 1 28q3 57 23.5 119t45.5 114l96 -44q-26 -60 -40 -105.5t-14 -92.5
q0 -82 52 -122.5t150 -40.5q70 0 122.5 24.5t80 64t27.5 83.5q0 59 -64 240l107 56q63 -171 63 -296q0 -87 -42 -160t-118.5 -116.5t-175.5 -43.5q-93 0 -164 35.5zM803 595l80 -79l-80 -81q-9 11 -60 61l-20 20zM992 595l79 -79l-32 -32l-47 -49l-54 54l-27 27zM897 704
l70 -70l-70 -71l-47 47l-24 24z" />
    <glyph glyph-name="uni0634.fina" unicode="&#x634;" horiz-adv-x="1276" arabic-form="final" 
d="M1170.5 38q-44.5 38 -67.5 108q-9 30 -36 170l103 28q11 -64 18.5 -97t13.5 -52q8 -23 25.5 -34.5t48.5 -11.5h6l7 -75l-8 -74h-5q-61 0 -105.5 38zM1012 149h3q33 0 60.5 16.5t29.5 39.5l90 -11q-4 -53 -29.5 -97.5t-65 -70.5t-85.5 -26h-3v149zM745 149h5q51 0 79 55
q19 38 34 117l103 -5q-11 -66 -11 -94q0 -73 61 -73h2l8 -75l-8 -74h-2q-54 0 -91 29t-52 82l25 2q-61 -113 -151 -113h-2v149zM637.5 53.5q-44.5 53.5 -65.5 137.5l84 52q12 -36 22.5 -55.5t28.5 -29t48 -9.5l-7 -149q-66 0 -110.5 53.5zM192 -256.5q-71 35.5 -110.5 101.5
t-39.5 155q0 18 1 28q3 57 23.5 119t45.5 114l96 -44q-26 -60 -40 -105.5t-14 -92.5q0 -82 52 -122.5t150 -40.5q70 0 122.5 24.5t80 64t27.5 83.5q0 59 -64 240l107 56q63 -171 63 -296q0 -87 -42 -160t-118.5 -116.5t-175.5 -43.5q-93 0 -164 35.5zM815 587l80 -79
l-80 -81q-9 11 -60 61l-20 20zM1004 587l79 -79l-32 -32l-47 -49l-54 54l-27 27zM909 696l70 -70l-70 -71l-47 47l-24 24z" />
    <glyph glyph-name="uni0634.medi" unicode="&#x634;" horiz-adv-x="815" arabic-form="medial" 
d="M709.5 38q-44.5 38 -67.5 108q-9 30 -36 170l103 28q11 -64 18.5 -97t13.5 -52q8 -23 25.5 -34.5t48.5 -11.5h6l7 -75l-8 -74h-5q-61 0 -105.5 38zM551 149h3q33 0 60.5 16.5t29.5 39.5l90 -11q-4 -53 -29.5 -97.5t-65 -70.5t-85.5 -26h-3v149zM284 149h5q51 0 79 55
q19 38 34 117l103 -5q-11 -66 -11 -94q0 -73 61 -73h2l8 -75l-8 -74h-2q-54 0 -91 29t-52 82l25 2q-61 -113 -151 -113h-2v149zM-2 0l-8 74l8 75h5q31 0 61 13.5t45 33.5q21 24 32 54t20 64l104 -11q-1 -5 -11 -39.5t-10 -62.5q0 -52 42 -52h2l8 -75l-8 -74h-5q-43 0 -75 23
t-45 61q-32 -41 -73.5 -62.5t-88.5 -21.5h-3zM370 579l80 -79l-80 -81q-9 11 -60 61l-20 20zM559 579l79 -79l-32 -32l-47 -49l-54 54l-27 27zM464 688l70 -70l-70 -71l-47 47l-24 24z" />
    <glyph glyph-name="uni0634.init" unicode="&#x634;" horiz-adv-x="763" arabic-form="initial" 
d="M552 149h3q29 0 46 17t17 44t-20.5 86t-34.5 90l102 56q19 -39 40 -111.5t21 -126.5q0 -56 -22 -102.5t-61 -74t-88 -27.5h-3v149zM284 149h5q51 0 79 55q19 38 34 117l103 -5q-11 -66 -11 -94q0 -73 61 -73h2l8 -75l-8 -74h-2q-54 0 -91 29t-52 82l25 2
q-61 -113 -151 -113h-2v149zM-2 0l-8 74l8 75h5q31 0 61 13.5t45 33.5q21 24 32 54t20 64l104 -11q-1 -5 -11 -39.5t-10 -62.5q0 -52 42 -52h2l8 -75l-8 -74h-5q-43 0 -75 23t-45 61q-32 -41 -73.5 -62.5t-88.5 -21.5h-3zM355 622l80 -79l-80 -81q-9 11 -60 61l-20 20z
M544 622l79 -79l-32 -32l-47 -49l-54 54l-27 27zM449 731l70 -70l-70 -71l-47 47l-24 24z" />
    <glyph glyph-name="uni0635" unicode="&#x635;" horiz-adv-x="1290" arabic-form="isolated" 
d="M192 -256.5q-71 35.5 -110.5 101.5t-39.5 155q0 18 1 28q3 57 23.5 119t45.5 114l96 -44q-26 -60 -40 -105.5t-14 -92.5q0 -82 52 -122.5t150 -40.5q70 0 122.5 24.5t80 64t27.5 83.5q0 37 -21.5 107.5t-37.5 106.5l106 57q59 -136 59 -271q0 -87 -42 -160t-118.5 -116.5
t-175.5 -43.5q-93 0 -164 35.5zM681.5 30.5q-81.5 52.5 -131.5 176.5l95 63q23 -60 46 -89t57 -41.5t95 -15.5q12 -1 35 -1q79 0 141.5 20t97 50.5t34.5 58.5q0 24 -23.5 40.5t-63.5 16.5q-83 0 -167 -73.5t-143 -183.5l-79 61q69 145 171 241t209 97q61 0 108.5 -28.5
t72 -78t19.5 -109.5q-7 -79 -58 -137t-136 -89t-192 -31q-106 0 -187.5 52.5z" />
    <glyph glyph-name="uni0635.fina" unicode="&#x635;" horiz-adv-x="1295" arabic-form="final" 
d="M192 -256.5q-71 35.5 -110.5 101.5t-39.5 155q0 18 1 28q3 57 23.5 119t45.5 114l96 -44q-26 -60 -40 -105.5t-14 -92.5q0 -82 52 -122.5t150 -40.5q70 0 122.5 24.5t80 64t27.5 83.5q0 37 -21.5 107.5t-37.5 106.5l106 57q59 -136 59 -271q0 -87 -42 -160t-118.5 -116.5
t-175.5 -43.5q-93 0 -164 35.5zM681.5 30.5q-81.5 52.5 -131.5 176.5l95 63q23 -60 46 -89t57 -41.5t95 -15.5q12 -1 35 -1q79 0 141.5 20t97 50.5t34.5 58.5q0 24 -23.5 40.5t-63.5 16.5q-83 0 -167 -73.5t-143 -183.5l-79 61q69 145 171 241t209 97q61 0 108.5 -28.5
t72 -78t19.5 -109.5q-7 -79 -58 -137t-136 -89t-192 -31q-106 0 -187.5 52.5zM1300 149l8 -75l-8 -74q-101 0 -163 7t-96 35l63 97q130 10 196 10z" />
    <glyph glyph-name="uni0635.medi" unicode="&#x635;" horiz-adv-x="875" arabic-form="medial" 
d="M681.5 7q-58.5 7 -93.5 35l79 92q22 2 35 4q108 11 173 11h4l8 -75l-8 -74h-5q-134 0 -192.5 7zM-6 149h14q47 0 76 20.5t46 64t27 117.5l104 -22q-6 -39 -6 -69q0 -73 39.5 -104t136.5 -31q87 0 156.5 19.5t107.5 49.5t38 60q0 24 -22.5 40.5t-62.5 16.5q-80 0 -164 -69
t-151 -193l-80 61q77 159 179 250t205 91q57 0 102.5 -24.5t71.5 -68t26 -98.5q0 -85 -51 -149t-142 -98t-207 -34q-184 0 -246 118q-30 -48 -74 -72.5t-109 -24.5h-14v149z" />
    <glyph glyph-name="uni0635.init" unicode="&#x635;" horiz-adv-x="877" arabic-form="initial" 
d="M-6 149h14q47 0 76 20.5t46 64t27 117.5l104 -22q-6 -39 -6 -69q0 -73 39.5 -104t136.5 -31q87 0 156.5 19.5t107.5 49.5t38 60q0 24 -22.5 40.5t-62.5 16.5q-80 0 -164 -69t-151 -193l-80 61q77 159 179 250t205 91q57 0 102.5 -24.5t71.5 -68t26 -98.5q0 -85 -51 -149
t-142 -98t-207 -34q-184 0 -246 118q-30 -48 -74 -72.5t-109 -24.5h-14v149z" />
    <glyph glyph-name="uni0636" unicode="&#x636;" horiz-adv-x="1290" arabic-form="isolated" 
d="M192 -256.5q-71 35.5 -110.5 101.5t-39.5 155q0 18 1 28q3 57 23.5 119t45.5 114l96 -44q-26 -60 -40 -105.5t-14 -92.5q0 -82 52 -122.5t150 -40.5q70 0 122.5 24.5t80 64t27.5 83.5q0 37 -21.5 107.5t-37.5 106.5l106 57q59 -136 59 -271q0 -87 -42 -160t-118.5 -116.5
t-175.5 -43.5q-93 0 -164 35.5zM681.5 30.5q-81.5 52.5 -131.5 176.5l95 63q23 -60 46 -89t57 -41.5t95 -15.5q12 -1 35 -1q79 0 141.5 20t97 50.5t34.5 58.5q0 24 -23.5 40.5t-63.5 16.5q-83 0 -167 -73.5t-143 -183.5l-79 61q69 145 171 241t209 97q61 0 108.5 -28.5
t72 -78t19.5 -109.5q-7 -79 -58 -137t-136 -89t-192 -31q-106 0 -187.5 52.5zM1022 713q31 -30 61 -61l31 -31l-92 -92l-93 92z" />
    <glyph glyph-name="uni0636.fina" unicode="&#x636;" horiz-adv-x="1295" arabic-form="final" 
d="M192 -256.5q-71 35.5 -110.5 101.5t-39.5 155q0 18 1 28q3 57 23.5 119t45.5 114l96 -44q-26 -60 -40 -105.5t-14 -92.5q0 -82 52 -122.5t150 -40.5q70 0 122.5 24.5t80 64t27.5 83.5q0 37 -21.5 107.5t-37.5 106.5l106 57q59 -136 59 -271q0 -87 -42 -160t-118.5 -116.5
t-175.5 -43.5q-93 0 -164 35.5zM681.5 30.5q-81.5 52.5 -131.5 176.5l95 63q23 -60 46 -89t57 -41.5t95 -15.5q12 -1 35 -1q79 0 141.5 20t97 50.5t34.5 58.5q0 24 -23.5 40.5t-63.5 16.5q-83 0 -167 -73.5t-143 -183.5l-79 61q69 145 171 241t209 97q61 0 108.5 -28.5
t72 -78t19.5 -109.5q-7 -79 -58 -137t-136 -89t-192 -31q-106 0 -187.5 52.5zM1300 149l8 -75l-8 -74q-101 0 -163 7t-96 35l63 97q130 10 196 10zM1016 713q31 -30 61 -61l31 -31l-92 -92l-93 92z" />
    <glyph glyph-name="uni0636.medi" unicode="&#x636;" horiz-adv-x="875" arabic-form="medial" 
d="M681.5 7q-58.5 7 -93.5 35l79 92q22 2 35 4q108 11 173 11h4l8 -75l-8 -74h-5q-134 0 -192.5 7zM-6 149h14q47 0 76 20.5t46 64t27 117.5l104 -22q-6 -39 -6 -69q0 -73 39.5 -104t136.5 -31q87 0 156.5 19.5t107.5 49.5t38 60q0 24 -22.5 40.5t-62.5 16.5q-80 0 -164 -69
t-151 -193l-80 61q77 159 179 250t205 91q57 0 102.5 -24.5t71.5 -68t26 -98.5q0 -85 -51 -149t-142 -98t-207 -34q-184 0 -246 118q-30 -48 -74 -72.5t-109 -24.5h-14v149zM598 710q31 -30 61 -61l31 -31l-92 -92l-93 92z" />
    <glyph glyph-name="uni0636.init" unicode="&#x636;" horiz-adv-x="877" arabic-form="initial" 
d="M-6 149h14q47 0 76 20.5t46 64t27 117.5l104 -22q-6 -39 -6 -69q0 -73 39.5 -104t136.5 -31q87 0 156.5 19.5t107.5 49.5t38 60q0 24 -22.5 40.5t-62.5 16.5q-80 0 -164 -69t-151 -193l-80 61q77 159 179 250t205 91q57 0 102.5 -24.5t71.5 -68t26 -98.5q0 -85 -51 -149
t-142 -98t-207 -34q-184 0 -246 118q-30 -48 -74 -72.5t-109 -24.5h-14v149zM598 710q31 -30 61 -61l31 -31l-92 -92l-93 92z" />
    <glyph glyph-name="uni0637" unicode="&#x637;" horiz-adv-x="791" arabic-form="isolated" 
d="M201.5 145q71.5 -15 152.5 -15q86 0 154.5 20t106 50t37.5 60q0 23 -22 39.5t-60 16.5q-81 0 -166.5 -69.5t-153.5 -196.5l-80 61q79 161 181.5 253t204.5 92q58 0 103.5 -24.5t71.5 -68.5t26 -99q0 -85 -51.5 -148.5t-143 -97.5t-206.5 -34q-88 0 -171 17.5t-152 48.5
l42 135q55 -25 126.5 -40zM236 286q0 98 -11 230.5t-21 195.5l125 28q8 -57 15 -158t7 -204q0 -80 -4 -140l-114 -27q3 32 3 75z" />
    <glyph glyph-name="uni0637.fina" unicode="&#x637;" horiz-adv-x="793" arabic-form="final" 
d="M619 146l92 1q66 2 95 2l8 -75l-8 -74q-125 0 -195.5 8.5t-105.5 34.5l83 103h31zM201.5 145q71.5 -15 152.5 -15q86 0 154.5 20t106 50t37.5 60q0 23 -22 39.5t-60 16.5q-81 0 -166.5 -69.5t-153.5 -196.5l-80 61q79 161 181.5 253t204.5 92q58 0 103.5 -24.5
t71.5 -68.5t26 -99q0 -85 -51.5 -148.5t-143 -97.5t-206.5 -34q-88 0 -171 17.5t-152 48.5l42 135q55 -25 126.5 -40zM236 286q0 98 -11 230.5t-21 195.5l125 28q8 -57 15 -158t7 -204q0 -80 -4 -140l-114 -27q3 32 3 75z" />
    <glyph glyph-name="uni0637.medi" unicode="&#x637;" horiz-adv-x="701" arabic-form="medial" 
d="M514 146l92 1q66 2 95 2l8 -75l-8 -74q-125 0 -195.5 8.5t-105.5 34.5l83 103h31zM236 146q91 -2 163 16.5t113 48.5t44 61q2 25 -20 42.5t-62 17.5q-80 0 -166.5 -71.5t-156.5 -197.5l-79 61q79 163 182.5 255.5t205.5 92.5q57 0 103 -24.5t72 -68.5t26 -99
q0 -85 -51.5 -148.5t-142.5 -97.5t-206 -34h-266v149q137 0 241 -3zM139 302q0 97 -11 224t-21 186l125 28q9 -54 16 -149t7 -195q0 -67 -5 -145l-114 -29q3 35 3 80z" />
    <glyph glyph-name="uni0637.init" unicode="&#x637;" horiz-adv-x="702" arabic-form="initial" 
d="M236 146q91 -2 163 16.5t113 48.5t44 61q2 25 -20 42.5t-62 17.5q-80 0 -166.5 -71.5t-156.5 -197.5l-79 61q79 163 182.5 255.5t205.5 92.5q57 0 103 -24.5t72 -68.5t26 -99q0 -85 -51.5 -148.5t-142.5 -97.5t-206 -34h-266v149q137 0 241 -3zM139 302q0 97 -11 224
t-21 186l125 28q9 -54 16 -149t7 -195q0 -67 -5 -145l-114 -29q3 35 3 80z" />
    <glyph glyph-name="uni0638" unicode="&#x638;" horiz-adv-x="791" arabic-form="isolated" 
d="M201.5 145q71.5 -15 152.5 -15q86 0 154.5 20t106 50t37.5 60q0 23 -22 39.5t-60 16.5q-81 0 -166.5 -69.5t-153.5 -196.5l-80 61q79 161 181.5 253t204.5 92q58 0 103.5 -24.5t71.5 -68.5t26 -99q0 -85 -51.5 -148.5t-143 -97.5t-206.5 -34q-88 0 -171 17.5t-152 48.5
l42 135q55 -25 126.5 -40zM236 286q0 98 -11 230.5t-21 195.5l125 28q8 -57 15 -158t7 -204q0 -80 -4 -140l-114 -27q3 32 3 75zM551 748q31 -30 61 -61l31 -31l-92 -92l-93 92z" />
    <glyph glyph-name="uni0638.fina" unicode="&#x638;" horiz-adv-x="793" arabic-form="final" 
d="M619 146l92 1q66 2 95 2l8 -75l-8 -74q-125 0 -195.5 8.5t-105.5 34.5l83 103h31zM201.5 145q71.5 -15 152.5 -15q86 0 154.5 20t106 50t37.5 60q0 23 -22 39.5t-60 16.5q-81 0 -166.5 -69.5t-153.5 -196.5l-80 61q79 161 181.5 253t204.5 92q58 0 103.5 -24.5
t71.5 -68.5t26 -99q0 -85 -51.5 -148.5t-143 -97.5t-206.5 -34q-88 0 -171 17.5t-152 48.5l42 135q55 -25 126.5 -40zM236 286q0 98 -11 230.5t-21 195.5l125 28q8 -57 15 -158t7 -204q0 -80 -4 -140l-114 -27q3 32 3 75zM552 748q31 -30 61 -61l31 -31l-92 -92l-93 92z" />
    <glyph glyph-name="uni0638.medi" unicode="&#x638;" horiz-adv-x="701" arabic-form="medial" 
d="M514 146l92 1q66 2 95 2l8 -75l-8 -74q-125 0 -195.5 8.5t-105.5 34.5l83 103h31zM236 146q91 -2 163 16.5t113 48.5t44 61q2 25 -20 42.5t-62 17.5q-80 0 -166.5 -71.5t-156.5 -197.5l-79 61q79 163 182.5 255.5t205.5 92.5q57 0 103 -24.5t72 -68.5t26 -99
q0 -85 -51.5 -148.5t-142.5 -97.5t-206 -34h-266v149q137 0 241 -3zM139 302q0 97 -11 224t-21 186l125 28q9 -54 16 -149t7 -195q0 -67 -5 -145l-114 -29q3 35 3 80zM453 748q31 -30 61 -61l31 -31l-92 -92l-93 92z" />
    <glyph glyph-name="uni0638.init" unicode="&#x638;" horiz-adv-x="702" arabic-form="initial" 
d="M236 146q91 -2 163 16.5t113 48.5t44 61q2 25 -20 42.5t-62 17.5q-80 0 -166.5 -71.5t-156.5 -197.5l-79 61q79 163 182.5 255.5t205.5 92.5q57 0 103 -24.5t72 -68.5t26 -99q0 -85 -51.5 -148.5t-142.5 -97.5t-206 -34h-266v149q137 0 241 -3zM139 302q0 97 -11 224
t-21 186l125 28q9 -54 16 -149t7 -195q0 -67 -5 -145l-114 -29q3 35 3 80zM453 748q31 -30 61 -61l31 -31l-92 -92l-93 92z" />
    <glyph glyph-name="uni0639" unicode="&#x639;" horiz-adv-x="708" arabic-form="isolated" 
d="M304 157q-93 0 -152.5 52.5t-64.5 144.5q-3 62 26.5 118t82 90.5t114.5 34.5q48 0 95.5 -20.5t88.5 -55.5l-49 -99q-69 28 -127 28q-35 0 -64 -13t-45 -32.5t-16 -39.5q0 -22 18 -42.5t48.5 -33t65.5 -12.5q18 0 41 5l-10 -121q-24 -4 -52 -4zM581.5 -360.5
q-77.5 -27.5 -198.5 -27.5q-95 0 -172.5 34.5t-123 99t-45.5 151.5q0 19 1 29q11 128 92 210.5t169 120t200 70.5l27 -131q-183 -56 -273.5 -126t-106.5 -154q-3 -44 30 -79.5t93.5 -56t135.5 -20.5q74 0 137 16t94 28l55 -114q-37 -23 -114.5 -50.5z" />
    <glyph glyph-name="uni0639.fina" unicode="&#x639;" horiz-adv-x="600" arabic-form="final" 
d="M604 149l8 -75l-8 -74h-20q-109 0 -195.5 37t-157.5 103t-151 170l5 99q45 44 112 67t139 23q86 0 151 -31t80 -87q4 -15 4 -32q0 -68 -62.5 -136t-162.5 -109q-87 -37 -140.5 -74.5t-54.5 -82.5q-1 -5 -1 -15q0 -32 23 -60t66.5 -44.5t101.5 -16.5q65 0 113 13t78 27
l55 -114q-43 -33 -110 -54t-136 -21q-83 0 -151.5 34t-108.5 93.5t-40 132.5q0 25 4 45q13 71 50.5 119.5t85 77.5t110.5 54q80 32 120.5 62.5t42.5 56.5q-9 17 -38.5 26t-67.5 9q-36 0 -71.5 -8.5t-61.5 -25.5q79 -96 162.5 -142.5t206.5 -46.5h20z" />
    <glyph glyph-name="uni0639.medi" unicode="&#x639;" horiz-adv-x="567" arabic-form="medial" 
d="M-5 149h27q127 0 211.5 27.5t127 64.5t58.5 72q-10 17 -39 26.5t-67 9.5q-36 0 -71.5 -9t-61.5 -26q81 -88 163.5 -126.5t197.5 -38.5h31l8 -75l-8 -74h-31q-109 0 -187.5 26.5t-149.5 87t-159 172.5l4 99q45 45 112 68t139 23q62 0 115.5 -17t86 -50t32.5 -78
q0 -71 -75 -149t-194 -130t-243 -52h-27v149z" />
    <glyph glyph-name="uni0639.init" unicode="&#x639;" horiz-adv-x="535" arabic-form="initial" 
d="M-5 149h12q164 0 277 12.5t192 40.5l28 -132q-174 -70 -497 -70h-12v149zM316 34q-63 0 -121 27t-93.5 77.5t-35.5 118.5q0 59 30 112t81.5 85t111.5 32q49 0 96 -21t87 -56l-48 -100q-64 28 -122 28q-16 0 -24 -1q-45 -4 -76 -28.5t-31 -52.5q0 -24 21.5 -46t57 -34
t76.5 -9l10 -131z" />
    <glyph glyph-name="uni063A" unicode="&#x63a;" horiz-adv-x="708" arabic-form="isolated" 
d="M304 157q-93 0 -152.5 52.5t-64.5 144.5q-3 62 26.5 118t82 90.5t114.5 34.5q48 0 95.5 -20.5t88.5 -55.5l-49 -99q-69 28 -127 28q-35 0 -64 -13t-45 -32.5t-16 -39.5q0 -22 18 -42.5t48.5 -33t65.5 -12.5q18 0 41 5l-10 -121q-24 -4 -52 -4zM581.5 -360.5
q-77.5 -27.5 -198.5 -27.5q-95 0 -172.5 34.5t-123 99t-45.5 151.5q0 19 1 29q11 128 92 210.5t169 120t200 70.5l27 -131q-183 -56 -273.5 -126t-106.5 -154q-3 -44 30 -79.5t93.5 -56t135.5 -20.5q74 0 137 16t94 28l55 -114q-37 -23 -114.5 -50.5zM295 862q31 -30 61 -61
l31 -31l-92 -92l-93 92z" />
    <glyph glyph-name="uni063A.fina" unicode="&#x63a;" horiz-adv-x="600" arabic-form="final" 
d="M604 149l8 -75l-8 -74h-20q-109 0 -195.5 37t-157.5 103t-151 170l5 99q45 44 112 67t139 23q86 0 151 -31t80 -87q4 -15 4 -32q0 -68 -62.5 -136t-162.5 -109q-87 -37 -140.5 -74.5t-54.5 -82.5q-1 -5 -1 -15q0 -32 23 -60t66.5 -44.5t101.5 -16.5q65 0 113 13t78 27
l55 -114q-43 -33 -110 -54t-136 -21q-83 0 -151.5 34t-108.5 93.5t-40 132.5q0 25 4 45q13 71 50.5 119.5t85 77.5t110.5 54q80 32 120.5 62.5t42.5 56.5q-9 17 -38.5 26t-67.5 9q-36 0 -71.5 -8.5t-61.5 -25.5q79 -96 162.5 -142.5t206.5 -46.5h20zM324 725q31 -30 61 -61
l31 -31l-92 -92l-93 92z" />
    <glyph glyph-name="uni063A.medi" unicode="&#x63a;" horiz-adv-x="567" arabic-form="medial" 
d="M-5 149h27q127 0 211.5 27.5t127 64.5t58.5 72q-10 17 -39 26.5t-67 9.5q-36 0 -71.5 -9t-61.5 -26q81 -88 163.5 -126.5t197.5 -38.5h31l8 -75l-8 -74h-31q-109 0 -187.5 26.5t-149.5 87t-159 172.5l4 99q45 45 112 68t139 23q62 0 115.5 -17t86 -50t32.5 -78
q0 -71 -75 -149t-194 -130t-243 -52h-27v149zM292 717q31 -30 61 -61l31 -31l-92 -92l-93 92z" />
    <glyph glyph-name="uni063A.init" unicode="&#x63a;" horiz-adv-x="534" arabic-form="initial" 
d="M-5 149h12q164 0 277 12.5t192 40.5l28 -132q-174 -70 -497 -70h-12v149zM316 34q-63 0 -121 27t-93.5 77.5t-35.5 118.5q0 59 30 112t81.5 85t111.5 32q49 0 96 -21t87 -56l-48 -100q-64 28 -122 28q-16 0 -24 -1q-45 -4 -76 -28.5t-31 -52.5q0 -24 21.5 -46t57 -34
t76.5 -9l10 -131zM275 739q31 -30 61 -61l31 -31l-92 -92l-93 92z" />
    <glyph glyph-name="uni0641" unicode="&#x641;" horiz-adv-x="899" arabic-form="isolated" 
d="M432 -12l-11 74l4 75h14q158 1 237 29.5t87 95.5q0 54 -16 107.5t-44 87.5t-62 34q-31 0 -53 -27.5t-22 -57.5q0 -15 8 -26q15 -19 54.5 -30.5t89.5 -11.5q36 0 70 6v-133q-52 -11 -97 -11q-72 0 -127 24.5t-79 73.5q-18 36 -18 86q0 57 24 111t67 88.5t95 34.5
q59 0 106 -46.5t73.5 -122.5t26.5 -161q0 -139 -104 -219t-318 -81h-5zM152.5 42q-102.5 55 -111.5 154q-1 8 -1 24q0 43 12 93t29 89l96 -46q-26 -81 -26 -122q0 -27 32.5 -49t96 -35t154.5 -13q2 -25 2 -74q0 -50 -2 -75q-179 -1 -281.5 54zM636 865q31 -30 61 -61l31 -31
l-92 -92l-93 92z" />
    <glyph glyph-name="uni0641.fina" unicode="&#x641;" horiz-adv-x="896" arabic-form="final" 
d="M425 -12l-8 75l8 74h12q135 0 206 27t95 82l1 11q0 31 -20.5 57.5t-54.5 26.5q-31 0 -54 -25t-26 -57q2 -26 26 -51.5t69 -42t106 -16.5h116l8 -75l-8 -74h-60q-103 0 -186 33t-130 88.5t-47 120.5q0 17 2 26q9 59 36.5 107t68 76t86.5 28q51 0 90.5 -31.5t61 -81.5
t21.5 -102q0 -11 -2 -33q-17 -120 -120.5 -181.5t-284.5 -61.5h-12zM152.5 42q-102.5 55 -111.5 154q-1 8 -1 24q0 43 12 93t29 89l96 -46q-26 -81 -26 -122q0 -27 32.5 -49t96 -35t154.5 -13q2 -25 2 -74q0 -50 -2 -75q-179 -1 -281.5 54zM679 723q31 -30 61 -61l31 -31
l-92 -92l-93 92z" />
    <glyph glyph-name="uni0641.medi" unicode="&#x641;" horiz-adv-x="469" arabic-form="medial" 
d="M-6 149h24q96 0 155 9.5t92 30.5t48 57l1 11q0 31 -20 57.5t-54 26.5q-31 0 -54 -25t-27 -57q2 -26 26.5 -51.5t69.5 -42t106 -16.5h116l8 -75l-8 -74h-60q-104 0 -187 33t-130 89t-47 121q0 7 2 25q9 59 37 107t68.5 76t85.5 28q52 0 92 -32t61 -82t21 -103
q0 -11 -2 -31q-17 -119 -116 -175t-284 -56h-24v149zM244 723q31 -30 61 -61l31 -31l-92 -92l-93 92z" />
    <glyph glyph-name="uni0641.init" unicode="&#x641;" horiz-adv-x="471" arabic-form="initial" 
d="M-5 149h15q109 0 176.5 9.5t105 34t42.5 69.5q0 54 -16 107.5t-43.5 87.5t-61.5 34q-31 0 -53 -27.5t-22 -57.5q0 -16 7 -26q15 -19 55 -30.5t90 -11.5q35 0 69 6v-133q-50 -11 -97 -11q-71 0 -126.5 25t-79.5 73q-18 39 -18 86q0 57 24 111t67 88.5t95 34.5
q59 0 106 -46.5t73.5 -122.5t26.5 -161q0 -138 -103.5 -213t-318.5 -75h-13v149zM205 865q31 -30 61 -61l31 -31l-92 -92l-93 92z" />
    <glyph glyph-name="uni06A4" unicode="&#x6a4;" horiz-adv-x="899" arabic-form="isolated" 
d="M432 -12l-11 74l4 75h14q158 1 237 29.5t87 95.5q0 54 -16 107.5t-44 87.5t-62 34q-31 0 -53 -27.5t-22 -57.5q0 -15 8 -26q15 -19 54.5 -30.5t89.5 -11.5q36 0 70 6v-133q-52 -11 -97 -11q-72 0 -127 24.5t-79 73.5q-18 36 -18 86q0 57 24 111t67 88.5t95 34.5
q59 0 106 -46.5t73.5 -122.5t26.5 -161q0 -139 -104 -219t-318 -81h-5zM152.5 42q-102.5 55 -111.5 154q-1 8 -1 24q0 43 12 93t29 89l96 -46q-26 -81 -26 -122q0 -27 32.5 -49t96 -35t154.5 -13q2 -25 2 -74q0 -50 -2 -75q-179 -1 -281.5 54zM551 836l80 -79l-80 -81
q-9 11 -60 61l-20 20zM740 836l79 -79l-32 -32l-47 -49l-54 54l-27 27zM645 945l70 -70l-70 -71l-47 47l-24 24z" />
    <glyph glyph-name="uni06A4.fina" unicode="&#x6a4;" horiz-adv-x="896" arabic-form="final" 
d="M425 -12l-8 75l8 74h12q135 0 206 27t95 82l1 11q0 31 -20.5 57.5t-54.5 26.5q-31 0 -54 -25t-26 -57q2 -26 26 -51.5t69 -42t106 -16.5h116l8 -75l-8 -74h-60q-103 0 -186 33t-130 88.5t-47 120.5q0 17 2 26q9 59 36.5 107t68 76t86.5 28q51 0 90.5 -31.5t61 -81.5
t21.5 -102q0 -11 -2 -33q-17 -120 -120.5 -181.5t-284.5 -61.5h-12zM152.5 42q-102.5 55 -111.5 154q-1 8 -1 24q0 43 12 93t29 89l96 -46q-26 -81 -26 -122q0 -27 32.5 -49t96 -35t154.5 -13q2 -25 2 -74q0 -50 -2 -75q-179 -1 -281.5 54zM579 719l80 -79l-80 -81
q-9 11 -60 61l-20 20zM768 719l79 -79l-32 -32l-47 -49l-54 54l-27 27zM673 828l70 -70l-70 -71l-47 47l-24 24z" />
    <glyph glyph-name="uni06A4.medi" unicode="&#x6a4;" horiz-adv-x="469" arabic-form="medial" 
d="M-6 149h24q96 0 155 9.5t92 30.5t48 57l1 11q0 31 -20 57.5t-54 26.5q-31 0 -54 -25t-27 -57q2 -26 26.5 -51.5t69.5 -42t106 -16.5h116l8 -75l-8 -74h-60q-104 0 -187 33t-130 89t-47 121q0 7 2 25q9 59 37 107t68.5 76t85.5 28q52 0 92 -32t61 -82t21 -103
q0 -11 -2 -31q-17 -119 -116 -175t-284 -56h-24v149zM144 711l80 -79l-80 -81q-9 11 -60 61l-20 20zM333 711l79 -79l-32 -32l-47 -49l-54 54l-27 27zM238 820l70 -70l-70 -71l-47 47l-24 24z" />
    <glyph glyph-name="uni06A4.init" unicode="&#x6a4;" horiz-adv-x="471" arabic-form="initial" 
d="M-5 149h15q109 0 176.5 9.5t105 34t42.5 69.5q0 54 -16 107.5t-43.5 87.5t-61.5 34q-31 0 -53 -27.5t-22 -57.5q0 -16 7 -26q15 -19 55 -30.5t90 -11.5q35 0 69 6v-133q-50 -11 -97 -11q-71 0 -126.5 25t-79.5 73q-18 39 -18 86q0 57 24 111t67 88.5t95 34.5
q59 0 106 -46.5t73.5 -122.5t26.5 -161q0 -138 -103.5 -213t-318.5 -75h-13v149zM131 835l80 -79l-80 -81q-9 11 -60 61l-20 20zM320 835l79 -79l-32 -32l-47 -49l-54 54l-27 27zM225 944l70 -70l-70 -71l-47 47l-24 24z" />
    <glyph glyph-name="uni06A1.init" unicode="&#x6a1;" horiz-adv-x="471" 
d="M-5 149h15q109 0 176.5 9.5t105 34t42.5 69.5q0 54 -16 107.5t-43.5 87.5t-61.5 34q-31 0 -53 -27.5t-22 -57.5q0 -16 7 -26q15 -19 55 -30.5t90 -11.5q35 0 69 6v-133q-50 -11 -97 -11q-71 0 -126.5 25t-79.5 73q-18 39 -18 86q0 57 24 111t67 88.5t95 34.5
q59 0 106 -46.5t73.5 -122.5t26.5 -161q0 -138 -103.5 -213t-318.5 -75h-13v149z" />
    <glyph glyph-name="uni06A1.medi" unicode="&#x6a1;" horiz-adv-x="469" 
d="M-6 149h24q96 0 155 9.5t92 30.5t48 57l1 11q0 31 -20 57.5t-54 26.5q-31 0 -54 -25t-27 -57q2 -26 26.5 -51.5t69.5 -42t106 -16.5h116l8 -75l-8 -74h-60q-104 0 -187 33t-130 89t-47 121q0 7 2 25q9 59 37 107t68.5 76t85.5 28q52 0 92 -32t61 -82t21 -103
q0 -11 -2 -31q-17 -119 -116 -175t-284 -56h-24v149z" />
    <glyph glyph-name="uni06A1.fina" unicode="&#x6a1;" horiz-adv-x="896" 
d="M425 -12l-8 75l8 74h12q135 0 206 27t95 82l1 11q0 31 -20.5 57.5t-54.5 26.5q-31 0 -54 -25t-26 -57q2 -26 26 -51.5t69 -42t106 -16.5h116l8 -75l-8 -74h-60q-103 0 -186 33t-130 88.5t-47 120.5q0 17 2 26q9 59 36.5 107t68 76t86.5 28q51 0 90.5 -31.5t61 -81.5
t21.5 -102q0 -11 -2 -33q-17 -120 -120.5 -181.5t-284.5 -61.5h-12zM152.5 42q-102.5 55 -111.5 154q-1 8 -1 24q0 43 12 93t29 89l96 -46q-26 -81 -26 -122q0 -27 32.5 -49t96 -35t154.5 -13q2 -25 2 -74q0 -50 -2 -75q-179 -1 -281.5 54z" />
    <glyph glyph-name="uni066F.fina" unicode="&#x66f;" horiz-adv-x="726" 
d="M192 -256.5q-71 35.5 -110.5 101.5t-39.5 155q0 18 1 28q3 57 23.5 119t45.5 114l96 -44q-27 -61 -40.5 -105.5t-13.5 -92.5q0 -81 52 -122t150 -41q89 0 151.5 39.5t76.5 104.5q-109 1 -178 22t-97 79q-18 39 -18 86q0 59 25 117t68.5 95.5t95.5 37.5q53 0 97 -40
t73.5 -106t39.5 -142h41l8 -75l-8 -74h-41q-13 -91 -59 -157t-117 -100.5t-158 -34.5q-93 0 -164 35.5zM538 259q-30 45 -70 45q-20 0 -37.5 -14.5t-27.5 -36.5t-10 -42q0 -16 7 -26q14 -20 60.5 -27.5t121.5 -8.5q-14 65 -44 110z" />
    <glyph glyph-name="uni0642" unicode="&#x642;" horiz-adv-x="736" arabic-form="isolated" 
d="M192 -210.5q-71 35.5 -110.5 101.5t-39.5 155q0 18 1 28q3 57 23.5 119t45.5 114l96 -44q-27 -61 -40.5 -105.5t-13.5 -92.5q0 -81 52 -122t150 -41q91 0 153 40.5t76 106.5q-35 -5 -64 -5q-72 0 -130 25.5t-82 76.5q-18 39 -18 86q0 59 25 117.5t68.5 96t94.5 37.5
q62 0 111 -52.5t77 -136.5t28 -175q0 -112 -44 -195t-121 -126.5t-174 -43.5q-93 0 -164 35.5zM539.5 304.5q-30.5 45.5 -71.5 45.5q-20 0 -37.5 -14.5t-27.5 -36t-10 -41.5q0 -17 8 -28q15 -19 53.5 -30t84.5 -11q23 0 44 3q-13 67 -43.5 112.5zM388 720l84 -84l-84 -85
l-28 28l-57 57zM564 720l84 -84l-84 -85l-28 28l-57 57z" />
    <glyph glyph-name="uni0642.fina" unicode="&#x642;" horiz-adv-x="727" arabic-form="final" 
d="M192 -256.5q-71 35.5 -110.5 101.5t-39.5 155q0 18 1 28q3 57 23.5 119t45.5 114l96 -44q-27 -61 -40.5 -105.5t-13.5 -92.5q0 -81 52 -122t150 -41q89 0 151.5 39.5t76.5 104.5q-109 1 -178 22t-97 79q-18 39 -18 86q0 59 25 117t68.5 95.5t95.5 37.5q53 0 97 -40
t73.5 -106t39.5 -142h41l8 -75l-8 -74h-41q-13 -91 -59 -157t-117 -100.5t-158 -34.5q-93 0 -164 35.5zM538 259q-30 45 -70 45q-20 0 -37.5 -14.5t-27.5 -36.5t-10 -42q0 -16 7 -26q14 -20 60.5 -27.5t121.5 -8.5q-14 65 -44 110zM390 675l84 -84l-84 -85l-28 28l-57 57z
M566 675l84 -84l-84 -85l-28 28l-57 57z" />
    <glyph glyph-name="uni0642.medi" unicode="&#x642;" horiz-adv-x="469" arabic-form="medial" 
d="M-6 149h24q96 0 155 9.5t92 30.5t48 57l1 11q0 31 -20 57.5t-54 26.5q-31 0 -54 -25t-27 -57q2 -26 26.5 -51.5t69.5 -42t106 -16.5h116l8 -75l-8 -74h-60q-104 0 -187 33t-130 89t-47 121q0 7 2 25q9 59 37 107t68.5 76t85.5 28q52 0 92 -32t61 -82t21 -103
q0 -11 -2 -31q-17 -119 -116 -175t-284 -56h-24v149zM158 704l84 -84l-84 -85l-28 28l-57 57zM334 704l84 -84l-84 -85l-28 28l-57 57z" />
    <glyph glyph-name="uni0642.init" unicode="&#x642;" horiz-adv-x="471" arabic-form="initial" 
d="M-5 149h15q109 0 176.5 9.5t105 34t42.5 69.5q0 54 -16 107.5t-43.5 87.5t-61.5 34q-31 0 -53 -27.5t-22 -57.5q0 -16 7 -26q15 -19 55 -30.5t90 -11.5q35 0 69 6v-133q-50 -11 -97 -11q-71 0 -126.5 25t-79.5 73q-18 39 -18 86q0 57 24 111t67 88.5t95 34.5
q59 0 106 -46.5t73.5 -122.5t26.5 -161q0 -138 -103.5 -213t-318.5 -75h-13v149zM136 839l84 -84l-84 -85l-28 28l-57 57zM312 839l84 -84l-84 -85l-28 28l-57 57z" />
    <glyph glyph-name="uni0643" unicode="&#x643;" horiz-adv-x="814" arabic-form="isolated" 
d="M423 137h7q115 0 168.5 26t55.5 76q2 26 2 52q0 88 -9.5 231t-17.5 191l124 27q9 -61 16 -235.5t7 -258.5q0 -128 -90 -193t-256 -65h-7v149zM152.5 42q-102.5 55 -111.5 154q-1 8 -1 24q0 43 12 93t29 89l96 -46q-26 -81 -26 -122q0 -27 32.5 -49t96 -35t154.5 -13
q2 -25 2 -74q0 -50 -2 -75q-179 -1 -281.5 54zM499 431l-69 -30q47 -47 47 -87q0 -37 -39 -56t-100 -14l7 63q63 0 84 14q-4 11 -22 23.5t-47 30.5l4 68l113 52z" />
    <glyph glyph-name="uni0643.fina" unicode="&#x643;" horiz-adv-x="825" arabic-form="final" 
d="M733 30q-38 30 -60.5 82t-24.5 117l-1 24q-3 115 -9.5 254t-16.5 204l123 28q13 -91 22 -460l1 -50q2 -45 13 -62.5t39 -17.5h10l8 -75l-8 -74h-10q-48 0 -86 30zM152.5 42q-102.5 55 -111.5 154q-1 8 -1 24q0 43 12 93t29 89l96 -46q-26 -81 -26 -122q0 -27 32.5 -49
t96 -35t154.5 -13q2 -25 2 -74q0 -50 -2 -75q-179 -1 -281.5 54zM423 137h7q81 0 128.5 9t69.5 30t20 58q0 13 10.5 20t26.5 7q21 0 38 -11t17 -29q0 -105 -77.5 -169t-232.5 -64h-7v149zM499 431l-69 -30q47 -47 47 -87q0 -37 -39 -56t-100 -14l7 63q63 0 84 14
q-4 11 -22 23.5t-47 30.5l4 68l113 52z" />
    <glyph glyph-name="uni0643.medi" unicode="&#x643;" horiz-adv-x="526" arabic-form="medial" 
d="M423.5 28q-42.5 28 -86.5 83.5t-105 153.5l69 85q53 -83 87.5 -125t63 -59t62.5 -17h17l8 -75l-8 -74h-17q-48 0 -90.5 28zM-5 149h34q85 0 141 13.5t74 36.5q-8 48 -59 114t-150 146l14 130l371 156l40 -119l-289 -123q33 -28 75.5 -76.5t76 -109.5t33.5 -118
q0 -17 -5 -39q-20 -81 -106 -120.5t-216 -39.5h-34v149z" />
    <glyph glyph-name="uni0643.init" unicode="&#x643;" horiz-adv-x="461" arabic-form="initial" 
d="M-5 149h34q85 0 141 13.5t74 36.5q-8 48 -59 114t-150 146l14 130l371 156l40 -119l-289 -123q33 -28 75.5 -76.5t76 -109.5t33.5 -118q0 -17 -5 -39q-20 -81 -106 -120.5t-216 -39.5h-34v149z" />
    <glyph glyph-name="uni06A9" unicode="&#x6a9;" horiz-adv-x="889" arabic-form="isolated" 
d="M424 -12l-8 74l8 74h34q82 0 139 18t76 43q-8 50 -58.5 116t-150.5 146l14 130l371 156l40 -119l-289 -123q29 -25 72 -73.5t77.5 -111.5t34.5 -120q0 -22 -4 -38q-21 -82 -108 -127t-214 -45h-34zM152.5 42q-102.5 55 -111.5 154q-1 8 -1 24q0 43 12 93t29 89l96 -46
q-26 -81 -26 -122q0 -27 32.5 -49t96 -35t154.5 -13q2 -25 2 -74q0 -50 -2 -75q-179 -1 -281.5 54z" />
    <glyph glyph-name="uni06A9.fina" unicode="&#x6a9;" horiz-adv-x="952" arabic-form="final" 
d="M848 29q-44 29 -89 86t-105 154l70 85q53 -83 88.5 -126t65 -61t63.5 -18h16l8 -75l-8 -74h-16q-49 0 -93 29zM152.5 42q-102.5 55 -111.5 154q-1 8 -1 24q0 43 12 93t29 89l96 -46q-26 -81 -26 -122q0 -27 32.5 -49t96 -35t154.5 -13q2 -25 2 -74q0 -50 -2 -75
q-179 -1 -281.5 54zM419 -12l-8 74l8 74h34q82 0 139 18t76 43q-8 50 -58.5 116t-150.5 146l14 130l371 156l40 -119l-289 -123q30 -25 72.5 -73.5t77.5 -111.5t35 -120q0 -18 -5 -38q-21 -82 -108 -127t-214 -45h-34z" />
    <glyph glyph-name="uni06A9.medi" unicode="&#x6a9;" horiz-adv-x="526" arabic-form="medial" 
d="M423.5 28q-42.5 28 -86.5 83.5t-105 153.5l69 85q53 -83 87.5 -125t63 -59t62.5 -17h17l8 -75l-8 -74h-17q-48 0 -90.5 28zM-5 149h34q85 0 141 13.5t74 36.5q-8 48 -59 114t-150 146l14 130l371 156l40 -119l-289 -123q33 -28 75.5 -76.5t76 -109.5t33.5 -118
q0 -17 -5 -39q-20 -81 -106 -120.5t-216 -39.5h-34v149z" />
    <glyph glyph-name="uni06A9.init" unicode="&#x6a9;" horiz-adv-x="460" arabic-form="initial" 
d="M-5 149h34q85 0 141 13.5t74 36.5q-8 48 -59 114t-150 146l14 130l371 156l40 -119l-289 -123q33 -28 75.5 -76.5t76 -109.5t33.5 -118q0 -17 -5 -39q-20 -81 -106 -120.5t-216 -39.5h-34v149z" />
    <glyph glyph-name="uni06AF" unicode="&#x6af;" horiz-adv-x="889" arabic-form="isolated" 
d="M424 -12l-8 74l8 74h34q84 0 139 13.5t74 36.5q-19 101 -207 249l13 130l372 157l40 -119l-289 -123q68 -57 125 -130t57 -150q0 -18 -5 -40q-21 -82 -107 -127t-212 -45h-34zM487 686l325 133l17 -48l-348 -146zM152.5 42q-102.5 55 -111.5 154q-1 8 -1 24q0 43 12 93
t29 89l96 -46q-26 -81 -26 -122q0 -27 32.5 -49t96 -35t154.5 -13q2 -25 2 -74q0 -50 -2 -75q-179 -1 -281.5 54z" />
    <glyph glyph-name="uni06AF.fina" unicode="&#x6af;" horiz-adv-x="944" arabic-form="final" 
d="M793 64.5q-70 64.5 -151 195.5l87 76q67 -99 115 -143t91 -44h14l8 -75l-8 -74h-14q-72 0 -142 64.5zM152.5 42q-102.5 55 -111.5 154q-1 8 -1 24q0 43 12 93t29 89l96 -46q-26 -81 -26 -122q0 -27 32.5 -49t96 -35t154.5 -13q2 -25 2 -74q0 -50 -2 -75
q-179 -1 -281.5 54zM419 -12l-8 74l8 74h34q84 0 139 13.5t74 36.5q-19 101 -207 249l13 130l372 157l40 -119l-289 -123q68 -57 125 -130t57 -150q0 -18 -5 -40q-21 -82 -107 -127t-212 -45h-34zM482 686l325 133l17 -48l-348 -146z" />
    <glyph glyph-name="uni06AF.medi" unicode="&#x6af;" horiz-adv-x="520" arabic-form="medial" 
d="M421 31q-43 31 -81.5 78.5t-101.5 134.5l-23 31l77 78q72 -103 123 -153.5t94 -50.5h17l8 -75l-8 -74h-17q-45 0 -88 31zM-5 149h34q85 0 140 13t74 35q-14 93 -208 246l13 130l372 157l40 -119l-289 -123q64 -55 123 -134t59 -157q0 -17 -5 -37q-20 -81 -105 -120.5
t-214 -39.5h-34v149zM59 694l325 133l17 -48l-348 -146z" />
    <glyph glyph-name="uni06AF.init" unicode="&#x6af;" horiz-adv-x="460" arabic-form="initial" 
d="M-5 149h34q85 0 140 13t74 35q-14 93 -208 246l13 130l372 157l40 -119l-289 -123q64 -55 123 -134t59 -157q0 -17 -5 -37q-20 -81 -105 -120.5t-214 -39.5h-34v149zM59 694l325 133l17 -48l-348 -146z" />
    <glyph glyph-name="uni0644" unicode="&#x644;" horiz-adv-x="689" arabic-form="isolated" 
d="M188 -229q-67 32 -106.5 92.5t-39.5 140.5q0 58 21 129.5t48 129.5l97 -44q-27 -59 -40.5 -102.5t-13.5 -88.5q0 -62 50 -101t131 -39q102 0 154 52t49 157q-5 173 -18 346.5t-26 269.5l125 27q17 -128 29 -636q2 -113 -34.5 -195t-107.5 -126t-171 -44q-80 0 -147 32z
" />
    <glyph glyph-name="uni0644.fina" unicode="&#x644;" horiz-adv-x="758" arabic-form="final" 
d="M622.5 61.5q-42.5 61.5 -49.5 174.5l72 15q3 -44 11.5 -65t30 -29t65.5 -8h11l8 -75l-8 -74h-11q-87 0 -129.5 61.5zM188 -229q-67 32 -106.5 92.5t-39.5 140.5q0 58 21 129.5t48 129.5l97 -44q-27 -59 -40.5 -102.5t-13.5 -88.5q0 -62 50 -101t131 -39q102 0 154 52
t49 157q-5 173 -18 346.5t-26 269.5l125 27q17 -128 29 -636q2 -113 -34.5 -195t-107.5 -126t-171 -44q-80 0 -147 32z" />
    <glyph glyph-name="uni0644.medi" unicode="&#x644;" horiz-adv-x="302" arabic-form="medial" 
d="M205.5 31q-42.5 31 -68.5 84t-26 117q-3 71 -12 239t-16 240l125 28q8 -81 17 -367l6 -141q2 -44 18.5 -63t47.5 -19h10l8 -75l-8 -74h-10q-49 0 -91.5 31zM-5 149h21q51 0 73.5 18.5t21.5 64.5l89 -11q0 -97 -48 -159t-133 -62h-24v149z" />
    <glyph glyph-name="uni0644.init" unicode="&#x644;" horiz-adv-x="284" arabic-form="initial" 
d="M-5 149h31q52 0 75.5 21t23.5 65q-1 69 -11.5 243.5t-18.5 234.5l125 27q7 -59 15.5 -242.5t8.5 -254.5q0 -68 -27.5 -123.5t-76.5 -87.5t-111 -32h-34v149z" />
    <glyph glyph-name="uni06B5.init" unicode="&#x6b5;" horiz-adv-x="284" 
d="M-5 149h31q52 0 75.5 21t23.5 65q-1 69 -11.5 243.5t-18.5 234.5l125 27q7 -59 15.5 -242.5t8.5 -254.5q0 -68 -27.5 -123.5t-76.5 -87.5t-111 -32h-34v149zM201 840q-20 -39 -32 -72l-48 -16q-10 31 -31.5 73t-41.5 71l43 42q12 -16 28 -47.5t24 -57.5q7 27 23 61t29 53
l44 -40q-18 -28 -38 -67z" />
    <glyph glyph-name="uni06B5.medi" unicode="&#x6b5;" horiz-adv-x="303" 
d="M205.5 31q-42.5 31 -68.5 84t-26 117q-3 71 -12 239t-16 240l125 28q8 -81 17 -367l6 -141q2 -44 18.5 -63t47.5 -19h10l8 -75l-8 -74h-10q-49 0 -91.5 31zM-5 149h21q51 0 73.5 18.5t21.5 64.5l89 -11q0 -97 -48 -159t-133 -62h-24v149zM200 845q-20 -39 -32 -72
l-48 -16q-10 31 -31.5 73t-41.5 71l43 42q12 -16 28 -47.5t24 -57.5q7 27 23 61t29 53l44 -40q-18 -28 -38 -67z" />
    <glyph glyph-name="uni06B5.fina" unicode="&#x6b5;" horiz-adv-x="758" 
d="M622.5 61.5q-42.5 61.5 -49.5 174.5l72 15q3 -44 11.5 -65t30 -29t65.5 -8h11l8 -75l-8 -74h-11q-87 0 -129.5 61.5zM188 -229q-67 32 -106.5 92.5t-39.5 140.5q0 58 21 129.5t48 129.5l97 -44q-27 -59 -40.5 -102.5t-13.5 -88.5q0 -62 50 -101t131 -39q102 0 154 52
t49 157q-5 173 -18 346.5t-26 269.5l125 27q17 -128 29 -636q2 -113 -34.5 -195t-107.5 -126t-171 -44q-80 0 -147 32zM608 857q-20 -39 -32 -72l-48 -16q-10 31 -31.5 73t-41.5 71l43 42q12 -16 28 -47.5t24 -57.5q7 27 23 61t29 53l44 -40q-18 -28 -38 -67z" />
    <glyph glyph-name="uni0645" unicode="&#x645;" horiz-adv-x="604" arabic-form="isolated" 
d="M38 50q0 46 1 66q2 57 37.5 93.5t88.5 36.5q8 0 24 -2q39 87 91.5 136t109.5 49q54 0 95 -34.5t62.5 -89t21.5 -114.5q0 -59 -21.5 -108t-63.5 -74q-23 -14 -54 -14q-39 0 -101 23.5t-157 75.5q-2 1 -5 1q-7 0 -8 -8q-2 -122 26 -415l3 -36l-124 -28q-26 277 -26 442z
M459 147q9 16 9 39q0 40 -22 74.5t-57 34.5q-44 0 -99 -101q102 -63 144 -63q16 0 25 16z" />
    <glyph glyph-name="uni0645.fina" unicode="&#x645;" horiz-adv-x="632" arabic-form="final" 
d="M39 44q0 50 1 72q2 57 36 93.5t86 36.5q8 0 24 -2q40 85 93 135t109 50q62 0 100.5 -40t65.5 -117q23 -69 39 -96t38 -27h6l8 -75l-8 -74h-6q-31 0 -57.5 16.5t-45.5 46.5q-7 -17 -19.5 -31.5t-27.5 -22.5q-23 -14 -52 -14q-38 0 -99 23.5t-160 75.5q-4 2 -6 2
q-7 0 -7 -9q-2 -119 23 -389q1 -20 3 -36t2 -26l-123 -28q-23 284 -23 436zM471 144q0 31 -10 66.5t-30 60t-47 24.5q-22 0 -46 -25t-52 -76q47 -31 87 -47t65.5 -20t31.5 -2q1 6 1 19z" />
    <glyph glyph-name="uni0645.medi" unicode="&#x645;" horiz-adv-x="593" arabic-form="medial" 
d="M-5 149h21q77 0 128 94q51 92 98 139t103 47q61 0 100 -40t65 -117q23 -70 38.5 -96.5t37.5 -26.5h12l8 -75l-8 -74h-12q-31 0 -57 16.5t-44 46.5q-7 -17 -20 -31t-29 -23q-21 -14 -54 -14q-76 0 -203 80q-31 -38 -73 -56.5t-92 -18.5h-19v149zM429 141q0 31 -10.5 67
t-31 61.5t-47.5 25.5q-45 0 -98 -102q50 -36 97.5 -53t76.5 -17q9 0 12 1q1 5 1 17z" />
    <glyph glyph-name="uni0645.init" unicode="&#x645;" horiz-adv-x="562" arabic-form="initial" 
d="M-2 149h18q78 0 128 94q50 93 96 139.5t103 46.5q54 0 95 -34.5t62.5 -89t21.5 -114.5q0 -58 -22 -107.5t-64 -74.5q-22 -14 -54 -14q-88 0 -240 104l56 123q62 -42 112.5 -66.5t75.5 -24.5q9 0 13 3q10 7 15.5 20.5t5.5 31.5q0 40 -22 74.5t-58 34.5q-56 0 -125 -159
q-30 -68 -82 -102t-119 -34h-19z" />
    <glyph glyph-name="uni0646" unicode="&#x646;" horiz-adv-x="727" arabic-form="isolated" 
d="M168 158.5q-14 -45.5 -14 -92.5q0 -82 52 -122.5t150 -40.5q70 0 122.5 24.5t80 64t27.5 83.5q0 57 -64 240l107 56q63 -169 63 -296q0 -87 -42 -160t-118.5 -116.5t-175.5 -43.5q-93 0 -164 35.5t-110.5 101.5t-39.5 155q0 18 1 28q3 57 23.5 119t45.5 114l96 -44
q-26 -60 -40 -105.5zM377 460q31 -30 61 -61l31 -31l-92 -92l-93 92z" />
    <glyph glyph-name="uni0646.fina" unicode="&#x646;" horiz-adv-x="749" arabic-form="final" 
d="M644.5 51.5q-38.5 51.5 -71.5 144.5l81 51q19 -56 37.5 -77t55.5 -21h7l8 -75l-8 -74h-7q-64 0 -102.5 51.5zM168 111.5q-14 -45.5 -14 -92.5q0 -82 52 -122.5t150 -40.5q70 0 122.5 24.5t80 64t27.5 83.5q0 57 -64 240l107 56q63 -169 63 -296q0 -87 -42 -160
t-118.5 -116.5t-175.5 -43.5q-93 0 -164 35.5t-110.5 101.5t-39.5 155q0 18 1 28q3 57 23.5 119t45.5 114l96 -44q-26 -60 -40 -105.5zM377 413q31 -30 61 -61l31 -31l-92 -92l-93 92z" />
    <glyph glyph-name="uni0646.medi" unicode="&#x646;" horiz-adv-x="335" arabic-form="medial" 
d="M-5 149h6q76 0 110.5 16t39.5 52q2 16 2 25q0 24 -5 55.5t-6 39.5l104 20q13 -74 13 -165q4 -17 22.5 -30t52.5 -13h6l8 -75l-8 -74h-6q-47 0 -85.5 25t-61.5 65l27 -3q-27 -45 -79.5 -66t-133.5 -21h-6v149zM127 612q31 -30 61 -61l31 -31l-92 -92l-93 92z" />
    <glyph glyph-name="uni0646.init" unicode="&#x646;" horiz-adv-x="336" arabic-form="initial" 
d="M-5 149h53q72 0 103.5 16t31.5 48q0 21 -21 82.5t-33 90.5l105 58q19 -42 39.5 -112.5t20.5 -123.5q0 -102 -63.5 -155t-182.5 -53h-53v149zM148 668q31 -30 61 -61l31 -31l-92 -92l-93 92z" />
    <glyph glyph-name="uni06BA.fina" unicode="&#x6ba;" horiz-adv-x="749" arabic-form="final" 
d="M644.5 51.5q-38.5 51.5 -71.5 144.5l81 51q19 -56 37.5 -77t55.5 -21h7l8 -75l-8 -74h-7q-64 0 -102.5 51.5zM168 111.5q-14 -45.5 -14 -92.5q0 -82 52 -122.5t150 -40.5q70 0 122.5 24.5t80 64t27.5 83.5q0 57 -64 240l107 56q63 -169 63 -296q0 -87 -42 -160
t-118.5 -116.5t-175.5 -43.5q-93 0 -164 35.5t-110.5 101.5t-39.5 155q0 18 1 28q3 57 23.5 119t45.5 114l96 -44q-26 -60 -40 -105.5z" />
    <glyph glyph-name="uni0647" unicode="&#x647;" horiz-adv-x="476" arabic-form="isolated" 
d="M93.5 46q-51.5 50 -51.5 129q0 31 9 65q15 62 51.5 114.5t91.5 105.5l66 -90q-112 -94 -113 -157q-2 -34 23 -53t75 -19q40 0 66.5 15t31.5 39q-10 49 -67.5 103.5t-170.5 124.5l76 113q132 -80 199 -161.5t67 -172.5q0 -61 -27.5 -107.5t-75 -72.5t-106.5 -26
q-93 0 -144.5 50z" />
    <glyph glyph-name="uni0647.fina" unicode="&#x647;" horiz-adv-x="518" arabic-form="final" 
d="M247 48q-90 0 -147.5 43.5t-57.5 118.5q0 92 72.5 155t192.5 107l28 -130q-67 -16 -123.5 -46.5t-59.5 -57.5q-2 -22 22 -36.5t66 -14.5q49 0 103 22l29 -140q-64 -21 -125 -21zM370.5 56.5q-47.5 56.5 -63.5 187.5l-7 53l-29 224l116 25q23 -214 32 -282q6 -50 14.5 -74
t25 -32.5t48.5 -8.5h17l8 -75l-8 -74h-17q-89 0 -136.5 56.5z" />
    <glyph glyph-name="uni0647.medi" unicode="&#x647;" horiz-adv-x="495" arabic-form="medial" 
d="M-4 149h81q116 0 178 27.5t62 71.5q0 26 -23.5 59.5t-56.5 50.5q-28 -40 -49 -115.5t-24 -150.5q-1 -57 19 -101t53 -68t69 -24q19 0 36 7q3 4 3 14q0 28 -26.5 62.5t-82.5 58.5l26 131q52 -14 103.5 -18.5t136.5 -4.5l8 -75l-8 -74q-79 0 -137.5 9.5t-128.5 31.5l25 104
q54 -17 98 -55.5t69 -88.5t25 -98q0 -67 -48 -106q-43 -36 -106 -36q-59 0 -114 34.5t-90 103.5t-35 168q0 22 1 33q15 216 117 380l80 23q70 -38 113.5 -110t43.5 -148q0 -121 -98.5 -182.5t-273.5 -63.5h-46v150z" />
    <glyph glyph-name="uni0647.init" unicode="&#x647;" horiz-adv-x="673" arabic-form="initial" 
d="M-4 149h16q160 0 236.5 23t84.5 74l1 10q0 31 -21.5 57t-52.5 32q-3 1 -10 1q-32 0 -59.5 -26t-27.5 -59q0 -34 44.5 -64t109.5 -47.5t121 -17.5q43 0 68.5 12t25.5 36q0 95 -456 220l55 138q197 -60 308 -114.5t156 -107.5t45 -115q0 -38 -17 -94q-16 -52 -70 -78
t-129 -26q-84 0 -170 30.5t-142.5 85t-56.5 122.5q0 11 4 33q13 63 44.5 113t75 76t90.5 21q44 -4 80.5 -36t57.5 -81t21 -101q0 -18 -3 -36q-13 -87 -60 -137t-132.5 -71.5t-220.5 -21.5h-16v149z" />
    <glyph glyph-name="uni06C1.init" unicode="&#x6c1;" horiz-adv-x="419" arabic-form="initial" 
d="M39 149h48q99 0 140 17t41 52q-1 22 -23 84.5t-32 83.5l106 58q20 -42 40 -111.5t20 -121.5q-1 -102 -69 -156.5t-201 -54.5h-70v149zM-3 0l-8 74l8 75h49v-149h-49zM93 -366.5q-31 32.5 -31 84.5q0 62 38.5 126.5t100.5 103.5l56 -55q-74 -55 -101 -118q2 0 7 1.5
t10 1.5q35 0 60 -25.5t25 -61.5t-26 -62t-60 -26q-48 -2 -79 30.5z" />
    <glyph glyph-name="uni06C2.fina" unicode="&#x6c2;" horiz-adv-x="579" 
d="M198 441q-31 28 -31 71q0 34 21.5 63.5t53.5 37.5q14 3 27 3q29 0 70 -13l-17 -68q-30 11 -54 11q-23 0 -35.5 -13.5t-9.5 -28.5q3 -12 14.5 -21t31.5 -9q4 0 18 2l-12 -69q-46 6 -77 34zM135 431l220 67v-67l-220 -68v68zM584 149l8 -75l-8 -74h-6q-100 0 -173.5 56
t-120.5 142q-44 -20 -88.5 -78.5t-65.5 -123.5l-86 55q11 57 41.5 113.5t71.5 100.5t83 65q29 16 56 16q45 0 80 -51q5 -7 33 -51t71 -69.5t96 -25.5h8z" />
    <glyph glyph-name="uni06BE.init" unicode="&#x6be;" horiz-adv-x="673" arabic-form="initial" 
d="M-4 149h16q160 0 236.5 23t84.5 74l1 10q0 31 -21.5 57t-52.5 32q-3 1 -10 1q-32 0 -59.5 -26t-27.5 -59q0 -34 44.5 -64t109.5 -47.5t121 -17.5q43 0 68.5 12t25.5 36q0 95 -456 220l55 138q197 -60 308 -114.5t156 -107.5t45 -115q0 -38 -17 -94q-16 -52 -70 -78
t-129 -26q-84 0 -170 30.5t-142.5 85t-56.5 122.5q0 11 4 33q13 63 44.5 113t75 76t90.5 21q44 -4 80.5 -36t57.5 -81t21 -101q0 -18 -3 -36q-13 -87 -60 -137t-132.5 -71.5t-220.5 -21.5h-16v149z" />
    <glyph glyph-name="uni0629" unicode="&#x629;" horiz-adv-x="476" arabic-form="isolated" 
d="M93.5 46q-51.5 50 -51.5 129q0 31 9 65q15 62 51.5 114.5t91.5 105.5l66 -90q-112 -94 -113 -157q-2 -34 23 -53t75 -19q40 0 66.5 15t31.5 39q-10 49 -67.5 103.5t-170.5 124.5l76 113q132 -80 199 -161.5t67 -172.5q0 -61 -27.5 -107.5t-75 -72.5t-106.5 -26
q-93 0 -144.5 50zM160 755l84 -84l-84 -85l-28 28l-57 57zM336 755l84 -84l-84 -85l-28 28l-57 57z" />
    <glyph glyph-name="uni0629.fina" unicode="&#x629;" horiz-adv-x="518" arabic-form="final" 
d="M247 48q-90 0 -147.5 43.5t-57.5 118.5q0 92 72.5 155t192.5 107l28 -130q-67 -16 -123.5 -46.5t-59.5 -57.5q-2 -22 22 -36.5t66 -14.5q49 0 103 22l29 -140q-64 -21 -125 -21zM370.5 56.5q-47.5 56.5 -63.5 187.5l-7 53l-29 224l116 25q23 -214 32 -282q6 -50 14.5 -74
t25 -32.5t48.5 -8.5h17l8 -75l-8 -74h-17q-89 0 -136.5 56.5zM180 771l84 -84l-84 -85l-28 28l-57 57zM356 771l84 -84l-84 -85l-28 28l-57 57z" />
    <glyph glyph-name="uni06C3.fina" unicode="&#x6c3;" horiz-adv-x="579" 
d="M584 149l8 -75l-8 -74h-6q-100 0 -173.5 56t-120.5 142q-44 -20 -88.5 -78.5t-65.5 -123.5l-86 55q11 57 41.5 113.5t71.5 100.5t83 65q29 16 56 16q45 0 80 -51q5 -7 33 -51t71 -69.5t96 -25.5h8zM208 568l84 -84l-84 -85l-28 28l-57 57zM384 568l84 -84l-84 -85l-28 28
l-57 57z" />
    <glyph glyph-name="uni0648" unicode="&#x648;" horiz-adv-x="500" arabic-form="isolated" 
d="M281 -74q77 52 77 134q-1 59 -17 115.5t-44.5 92.5t-63.5 36q-20 0 -37.5 -15t-28 -37t-10.5 -41q0 -16 8 -27q15 -20 55.5 -30.5t91.5 -10.5q38 0 75 6v-139q-49 -12 -101 -12q-73 0 -131 25.5t-82 76.5q-18 39 -18 86q0 59 25 117.5t69 96t96 37.5q60 0 109 -52
t77 -136t28 -175q0 -140 -101 -236t-279 -130l-46 129q171 37 248 89z" />
    <glyph glyph-name="uni0648.fina" unicode="&#x648;" horiz-adv-x="488" arabic-form="final" 
d="M281 -74q77 52 77 134q0 59 -16.5 115.5t-45 92.5t-63.5 36q-20 0 -37.5 -14.5t-27.5 -36.5t-10 -42q0 -17 7 -27q16 -22 73.5 -28.5t158.5 -6.5h99l8 -75l-8 -74l-127 -1q-121 0 -194 20t-102 81q-18 39 -18 86q0 59 25 117.5t69 96t96 37.5q60 0 109 -52t77 -136
t28 -175q0 -140 -101 -236t-279 -130l-46 129q171 37 248 89z" />
    <glyph glyph-name="uni0624" unicode="&#x624;" horiz-adv-x="500" arabic-form="isolated" 
d="M281 -74q77 52 77 134q-1 59 -17 115.5t-44.5 92.5t-63.5 36q-20 0 -37.5 -15t-28 -37t-10.5 -41q0 -16 8 -27q15 -20 55.5 -30.5t91.5 -10.5q38 0 75 6v-139q-49 -12 -101 -12q-73 0 -131 25.5t-82 76.5q-18 39 -18 86q0 59 25 117.5t69 96t96 37.5q60 0 109 -52
t77 -136t28 -175q0 -140 -101 -236t-279 -130l-46 129q171 37 248 89zM153 561q-31 28 -31 71q0 34 21.5 63.5t53.5 37.5q14 3 27 3q29 0 70 -13l-17 -68q-30 11 -54 11q-23 0 -35.5 -13.5t-9.5 -28.5q3 -12 14.5 -21t31.5 -9q4 0 18 2l-12 -69q-46 6 -77 34zM90 551l220 67
v-67l-220 -68v68z" />
    <glyph glyph-name="uni0624.fina" unicode="&#x624;" horiz-adv-x="488" arabic-form="final" 
d="M281 -74q77 52 77 134q0 59 -16.5 115.5t-45 92.5t-63.5 36q-20 0 -37.5 -14.5t-27.5 -36.5t-10 -42q0 -17 7 -27q16 -22 73.5 -28.5t158.5 -6.5h99l8 -75l-8 -74l-127 -1q-121 0 -194 20t-102 81q-18 39 -18 86q0 59 25 117.5t69 96t96 37.5q60 0 109 -52t77 -136
t28 -175q0 -140 -101 -236t-279 -130l-46 129q171 37 248 89zM153 561q-31 28 -31 71q0 34 21.5 63.5t53.5 37.5q14 3 27 3q29 0 70 -13l-17 -68q-30 11 -54 11q-23 0 -35.5 -13.5t-9.5 -28.5q3 -12 14.5 -21t31.5 -9q4 0 18 2l-12 -69q-46 6 -77 34zM90 551l220 67v-67
l-220 -68v68z" />
    <glyph glyph-name="uni06C6" unicode="&#x6c6;" horiz-adv-x="500" arabic-form="isolated" 
d="M281 -74q77 52 77 134q-1 59 -17 115.5t-44.5 92.5t-63.5 36q-20 0 -37.5 -15t-28 -37t-10.5 -41q0 -16 8 -27q15 -20 55.5 -30.5t91.5 -10.5q38 0 75 6v-139q-49 -12 -101 -12q-73 0 -131 25.5t-82 76.5q-18 39 -18 86q0 59 25 117.5t69 96t96 37.5q60 0 109 -52
t77 -136t28 -175q0 -140 -101 -236t-279 -130l-46 129q171 37 248 89zM282 589q-20 -39 -32 -72l-48 -16q-10 31 -31.5 73t-41.5 71l43 42q12 -16 28 -47.5t24 -57.5q7 27 23 61t29 53l44 -40q-18 -28 -38 -67z" />
    <glyph glyph-name="uni06C6.fina" unicode="&#x6c6;" horiz-adv-x="488" arabic-form="final" 
d="M281 -74q77 52 77 134q0 59 -16.5 115.5t-45 92.5t-63.5 36q-20 0 -37.5 -14.5t-27.5 -36.5t-10 -42q0 -17 7 -27q16 -22 73.5 -28.5t158.5 -6.5h99l8 -75l-8 -74l-127 -1q-121 0 -194 20t-102 81q-18 39 -18 86q0 59 25 117.5t69 96t96 37.5q60 0 109 -52t77 -136
t28 -175q0 -140 -101 -236t-279 -130l-46 129q171 37 248 89zM282 587q-20 -39 -32 -72l-48 -16q-10 31 -31.5 73t-41.5 71l43 42q12 -16 28 -47.5t24 -57.5q7 27 23 61t29 53l44 -40q-18 -28 -38 -67z" />
    <glyph glyph-name="uni06C7" unicode="&#x6c7;" horiz-adv-x="500" arabic-form="isolated" 
d="M281 -74q77 52 77 134q-1 59 -17 115.5t-44.5 92.5t-63.5 36q-20 0 -37.5 -15t-28 -37t-10.5 -41q0 -16 8 -27q15 -20 55.5 -30.5t91.5 -10.5q38 0 75 6v-139q-49 -12 -101 -12q-73 0 -131 25.5t-82 76.5q-18 39 -18 86q0 59 25 117.5t69 96t96 37.5q60 0 109 -52
t77 -136t28 -175q0 -140 -101 -236t-279 -130l-46 129q171 37 248 89zM209.5 565q41.5 12 61.5 43q13 20 13 45q0 23 -11 39.5t-28 16.5q-13 0 -22.5 -10t-9.5 -23q0 -20 21.5 -33.5t57.5 -10.5l2 -52q-8 -1 -23 -1q-49 0 -79 23.5t-30 66.5q0 39 29 68t65 29q12 0 23 -4
q27 -10 41 -37t14 -61q0 -48 -22 -86q-24 -42 -76 -63.5t-109 -23.5l-17 59q58 3 99.5 15z" />
    <glyph glyph-name="uni06C7.fina" unicode="&#x6c7;" horiz-adv-x="488" arabic-form="final" 
d="M281 -74q77 52 77 134q0 59 -16.5 115.5t-45 92.5t-63.5 36q-20 0 -37.5 -14.5t-27.5 -36.5t-10 -42q0 -17 7 -27q16 -22 73.5 -28.5t158.5 -6.5h99l8 -75l-8 -74l-127 -1q-121 0 -194 20t-102 81q-18 39 -18 86q0 59 25 117.5t69 96t96 37.5q60 0 109 -52t77 -136
t28 -175q0 -140 -101 -236t-279 -130l-46 129q171 37 248 89zM216.5 567q41.5 12 61.5 43q13 20 13 45q0 23 -11 39.5t-28 16.5q-13 0 -22.5 -10t-9.5 -23q0 -20 21.5 -33.5t57.5 -10.5l2 -52q-8 -1 -23 -1q-49 0 -79 23.5t-30 66.5q0 39 29 68t65 29q12 0 23 -4
q27 -10 41 -37t14 -61q0 -48 -22 -86q-24 -42 -76 -63.5t-109 -23.5l-17 59q58 3 99.5 15z" />
    <glyph glyph-name="uni06C9.fina" unicode="&#x6c9;" horiz-adv-x="488" arabic-form="final" 
d="M281 -74q77 52 77 134q0 59 -16.5 115.5t-45 92.5t-63.5 36q-20 0 -37.5 -14.5t-27.5 -36.5t-10 -42q0 -17 7 -27q16 -22 73.5 -28.5t158.5 -6.5h99l8 -75l-8 -74l-127 -1q-121 0 -194 20t-102 81q-18 39 -18 86q0 59 25 117.5t69 96t96 37.5q60 0 109 -52t77 -136
t28 -175q0 -140 -101 -236t-279 -130l-46 129q171 37 248 89zM246 539q-16 34 -23 61q-8 -26 -24 -57.5t-28 -47.5l-43 42q20 29 41.5 71t31.5 73l48 -16q12 -33 32 -72t38 -67l-44 -40q-13 19 -29 53z" />
    <glyph glyph-name="uni0649" unicode="&#x649;" horiz-adv-x="770" arabic-form="isolated" 
d="M187 -202q-73 37 -112.5 109.5t-32.5 173.5q6 96 68 233l97 -44q-27 -61 -40.5 -105.5t-13.5 -90.5q0 -83 51.5 -124t150.5 -41q81 0 145 28.5t92 71.5q1 3 -63 19l-53 15q-79 23 -112 55t-33 90q0 81 41 155t108 120t142 46q30 0 61 -8.5t43 -20.5l-42 -129q-10 4 -29 7
t-34 3q-41 0 -78.5 -17.5t-63.5 -46t-35 -61.5q-1 -4 -1 -10q0 -17 23.5 -29.5t88.5 -27.5q91 -21 123.5 -52.5t32.5 -73.5q0 -73 -47 -138t-128.5 -104.5t-180.5 -39.5q-95 0 -168 37z" />
    <glyph glyph-name="uni0649.fina" unicode="&#x649;" horiz-adv-x="760" arabic-form="final" 
d="M186.5 -251.5q-73.5 37.5 -112.5 110t-32 173.5q6 98 68 232l97 -44q-26 -59 -40 -104t-14 -92q0 -83 52 -123.5t150 -40.5q54 0 102.5 12t83 30t47.5 36q-18 17 -76 48.5t-120 54.5l31 140q164 -32 289 -32h53l8 -75l-8 -74h-53q-67 0 -144.5 11t-175.5 30l32 91
q7 -3 76 -32t130.5 -76.5t61.5 -92.5q0 -50 -45 -101.5t-122.5 -85t-169.5 -33.5q-95 0 -168.5 37.5z" />
    <glyph glyph-name="uni064A" unicode="&#x64a;" horiz-adv-x="769" arabic-form="isolated" 
d="M187 -202q-73 37 -112.5 109.5t-32.5 173.5q6 96 68 233l97 -44q-27 -61 -40.5 -105.5t-13.5 -90.5q0 -83 51.5 -124t150.5 -41q81 0 145 28.5t92 71.5q1 3 -63 19l-53 15q-79 23 -112 55t-33 90q0 81 41 155t108 120t142 46q30 0 61 -8.5t43 -20.5l-42 -129q-10 4 -29 7
t-34 3q-41 0 -78.5 -17.5t-63.5 -46t-35 -61.5q-1 -4 -1 -10q0 -17 23.5 -29.5t88.5 -27.5q91 -21 123.5 -52.5t32.5 -73.5q0 -73 -47 -138t-128.5 -104.5t-180.5 -39.5q-95 0 -168 37zM447 -448l-84 84l84 85l28 -28l57 -57zM271 -448l-84 84l84 85l28 -28l57 -57z" />
    <glyph glyph-name="uni064A.fina" unicode="&#x64a;" horiz-adv-x="760" arabic-form="final" 
d="M186.5 -251.5q-73.5 37.5 -112.5 110t-32 173.5q6 98 68 232l97 -44q-26 -59 -40 -104t-14 -92q0 -83 52 -123.5t150 -40.5q54 0 102.5 12t83 30t47.5 36q-18 17 -76 48.5t-120 54.5l31 140q164 -32 289 -32h53l8 -75l-8 -74h-53q-67 0 -144.5 11t-175.5 30l32 91
q7 -3 76 -32t130.5 -76.5t61.5 -92.5q0 -50 -45 -101.5t-122.5 -85t-169.5 -33.5q-95 0 -168.5 37.5zM432 -525l-84 84l84 85l28 -28l57 -57zM256 -525l-84 84l84 85l28 -28l57 -57z" />
    <glyph glyph-name="uni064A.medi" unicode="&#x64a;" horiz-adv-x="390" arabic-form="medial" 
d="M-5 149h7q90 0 134 9.5t58 28.5t14 55q0 29 -10 95l103 20q14 -73 14 -165q4 -17 22 -30t52 -13h6l8 -75l-8 -74h-6q-46 0 -85 25.5t-61 64.5l25 -5q-27 -46 -87.5 -65.5t-178.5 -19.5h-7v149zM170 -253l-84 84l84 85l28 -28l57 -57zM-6 -253l-84 84l84 85l28 -28l57 -57
z" />
    <glyph glyph-name="uni064A.init" unicode="&#x64a;" horiz-adv-x="376" arabic-form="initial" 
d="M-5 149h48q99 0 140 17t41 52q-1 22 -23 84.5t-32 83.5l106 58q20 -42 40 -111.5t20 -121.5q-1 -102 -69 -156.5t-201 -54.5h-70v149zM181 -254l-84 84l84 85l28 -28l57 -57zM5 -254l-84 84l84 85l28 -28l57 -57z" />
    <glyph glyph-name="uni0626" unicode="&#x626;" horiz-adv-x="769" arabic-form="isolated" 
d="M187 -202q-73 37 -112.5 109.5t-32.5 173.5q6 96 68 233l97 -44q-27 -61 -40.5 -105.5t-13.5 -90.5q0 -83 51.5 -124t150.5 -41q81 0 145 28.5t92 71.5q1 3 -63 19l-53 15q-79 23 -112 55t-33 90q0 81 41 155t108 120t142 46q30 0 61 -8.5t43 -20.5l-42 -129q-10 4 -29 7
t-34 3q-41 0 -78.5 -17.5t-63.5 -46t-35 -61.5q-1 -4 -1 -10q0 -17 23.5 -29.5t88.5 -27.5q91 -21 123.5 -52.5t32.5 -73.5q0 -73 -47 -138t-128.5 -104.5t-180.5 -39.5q-95 0 -168 37zM186 443q-31 28 -31 71q0 34 21.5 63.5t53.5 37.5q14 3 27 3q29 0 70 -13l-17 -68
q-30 11 -54 11q-23 0 -35.5 -13.5t-9.5 -28.5q3 -12 14.5 -21t31.5 -9q4 0 18 2l-12 -69q-46 6 -77 34zM123 433l220 67v-67l-220 -68v68z" />
    <glyph glyph-name="uni0626.fina" unicode="&#x626;" horiz-adv-x="760" arabic-form="final" 
d="M186.5 -251.5q-73.5 37.5 -112.5 110t-32 173.5q6 98 68 232l97 -44q-26 -59 -40 -104t-14 -92q0 -83 52 -123.5t150 -40.5q54 0 102.5 12t83 30t47.5 36q-18 17 -76 48.5t-120 54.5l31 140q164 -32 289 -32h53l8 -75l-8 -74h-53q-67 0 -144.5 11t-175.5 30l32 91
q7 -3 76 -32t130.5 -76.5t61.5 -92.5q0 -50 -45 -101.5t-122.5 -85t-169.5 -33.5q-95 0 -168.5 37.5zM198 385q-31 28 -31 71q0 34 21.5 63.5t53.5 37.5q14 3 27 3q29 0 70 -13l-17 -68q-30 11 -54 11q-23 0 -35.5 -13.5t-9.5 -28.5q3 -12 14.5 -21t31.5 -9q4 0 18 2
l-12 -69q-46 6 -77 34zM135 375l220 67v-67l-220 -68v68z" />
    <glyph glyph-name="uni0626.medi" unicode="&#x626;" horiz-adv-x="335" arabic-form="medial" 
d="M-5 149h6q76 0 110.5 16t39.5 52q2 16 2 25q0 24 -5 55.5t-6 39.5l104 20q13 -74 13 -165q4 -17 22.5 -30t52.5 -13h6l8 -75l-8 -74h-6q-47 0 -85.5 25t-61.5 65l27 -3q-27 -45 -79.5 -66t-133.5 -21h-6v149zM87 482q-31 28 -31 71q0 34 21.5 63.5t53.5 37.5q14 3 27 3
q29 0 70 -13l-17 -68q-30 11 -54 11q-23 0 -35.5 -13.5t-9.5 -28.5q3 -12 14.5 -21t31.5 -9q4 0 18 2l-12 -69q-46 6 -77 34zM24 472l220 67v-67l-220 -68v68z" />
    <glyph glyph-name="uni0626.init" unicode="&#x626;" horiz-adv-x="336" arabic-form="initial" 
d="M-5 149h53q72 0 103.5 16t31.5 48q0 21 -21 82.5t-33 90.5l105 58q19 -42 39.5 -112.5t20.5 -123.5q0 -102 -63.5 -155t-182.5 -53h-53v149zM77 547q-31 28 -31 71q0 34 21.5 63.5t53.5 37.5q14 3 27 3q29 0 70 -13l-17 -68q-30 11 -54 11q-23 0 -35.5 -13.5t-9.5 -28.5
q3 -12 14.5 -21t31.5 -9q4 0 18 2l-12 -69q-46 6 -77 34zM14 537l220 67v-67l-220 -68v68z" />
    <glyph glyph-name="uni06CE.init" unicode="&#x6ce;" horiz-adv-x="376" 
d="M230 609q-20 -39 -32 -72l-48 -16q-10 31 -31.5 73t-41.5 71l43 42q12 -16 28 -47.5t24 -57.5q7 27 23 61t29 53l44 -40q-18 -28 -38 -67zM-5 149h48q99 0 140 17t41 52q-1 22 -23 84.5t-32 83.5l106 58q20 -42 40 -111.5t20 -121.5q-1 -102 -69 -156.5t-201 -54.5h-70
v149zM181 -254l-84 84l84 85l28 -28l57 -57zM5 -254l-84 84l84 85l28 -28l57 -57z" />
    <glyph glyph-name="uni06CE.medi" unicode="&#x6ce;" horiz-adv-x="390" 
d="M223 494q-20 -39 -32 -72l-48 -16q-10 31 -31.5 73t-41.5 71l43 42q12 -16 28 -47.5t24 -57.5q7 27 23 61t29 53l44 -40q-18 -28 -38 -67zM-5 149h7q90 0 134 9.5t58 28.5t14 55q0 29 -10 95l103 20q14 -73 14 -165q4 -17 22 -30t52 -13h6l8 -75l-8 -74h-6
q-46 0 -85 25.5t-61 64.5l25 -5q-27 -46 -87.5 -65.5t-178.5 -19.5h-7v149zM170 -253l-84 84l84 85l28 -28l57 -57zM-6 -253l-84 84l84 85l28 -28l57 -57z" />
    <glyph glyph-name="uni06CE.fina" unicode="&#x6ce;" horiz-adv-x="760" 
d="M186.5 -251.5q-73.5 37.5 -112.5 110t-32 173.5q6 98 68 232l97 -44q-26 -59 -40 -104t-14 -92q0 -83 52 -123.5t150 -40.5q54 0 102.5 12t83 30t47.5 36q-18 17 -76 48.5t-120 54.5l31 140q164 -32 289 -32h53l8 -75l-8 -74h-53q-67 0 -144.5 11t-175.5 30l32 91
q7 -3 76 -32t130.5 -76.5t61.5 -92.5q0 -50 -45 -101.5t-122.5 -85t-169.5 -33.5q-95 0 -168.5 37.5zM342 369q-20 -39 -32 -72l-48 -16q-10 31 -31.5 73t-41.5 71l43 42q12 -16 28 -47.5t24 -57.5q7 27 23 61t29 53l44 -40q-18 -28 -38 -67z" />
    <glyph glyph-name="uni06CC" unicode="&#x6cc;" horiz-adv-x="769" arabic-form="isolated" 
d="M187 -202q-73 37 -112.5 109.5t-32.5 173.5q6 96 68 233l97 -44q-27 -61 -40.5 -105.5t-13.5 -90.5q0 -83 51.5 -124t150.5 -41q81 0 145 28.5t92 71.5q1 3 -63 19l-53 15q-79 23 -112 55t-33 90q0 81 41 155t108 120t142 46q30 0 61 -8.5t43 -20.5l-42 -129q-10 4 -29 7
t-34 3q-41 0 -78.5 -17.5t-63.5 -46t-35 -61.5q-1 -4 -1 -10q0 -17 23.5 -29.5t88.5 -27.5q91 -21 123.5 -52.5t32.5 -73.5q0 -73 -47 -138t-128.5 -104.5t-180.5 -39.5q-95 0 -168 37z" />
    <glyph glyph-name="uni06CC.fina" unicode="&#x6cc;" horiz-adv-x="760" arabic-form="final" 
d="M186.5 -251.5q-73.5 37.5 -112.5 110t-32 173.5q6 98 68 232l97 -44q-26 -59 -40 -104t-14 -92q0 -83 52 -123.5t150 -40.5q54 0 102.5 12t83 30t47.5 36q-18 17 -76 48.5t-120 54.5l31 140q164 -32 289 -32h53l8 -75l-8 -74h-53q-67 0 -144.5 11t-175.5 30l32 91
q7 -3 76 -32t130.5 -76.5t61.5 -92.5q0 -50 -45 -101.5t-122.5 -85t-169.5 -33.5q-95 0 -168.5 37.5z" />
    <glyph glyph-name="uni06CC.medi" unicode="&#x6cc;" horiz-adv-x="390" arabic-form="medial" 
d="M-5 149h7q90 0 134 9.5t58 28.5t14 55q0 29 -10 95l103 20q14 -73 14 -165q4 -17 22 -30t52 -13h6l8 -75l-8 -74h-6q-46 0 -85 25.5t-61 64.5l25 -5q-27 -46 -87.5 -65.5t-178.5 -19.5h-7v149zM170 -253l-84 84l84 85l28 -28l57 -57zM-6 -253l-84 84l84 85l28 -28l57 -57
z" />
    <glyph glyph-name="uni06CC.init" unicode="&#x6cc;" horiz-adv-x="376" arabic-form="initial" 
d="M-5 149h48q99 0 140 17t41 52q-1 22 -23 84.5t-32 83.5l106 58q20 -42 40 -111.5t20 -121.5q-1 -102 -69 -156.5t-201 -54.5h-70v149zM181 -254l-84 84l84 85l28 -28l57 -57zM5 -254l-84 84l84 85l28 -28l57 -57z" />
    <glyph glyph-name="uni06D5.fina" unicode="&#x6d5;" horiz-adv-x="518" 
d="M247 48q-90 0 -147.5 43.5t-57.5 118.5q0 92 72.5 155t192.5 107l28 -130q-67 -16 -123.5 -46.5t-59.5 -57.5q-2 -22 22 -36.5t66 -14.5q49 0 103 22l29 -140q-64 -21 -125 -21zM370.5 56.5q-47.5 56.5 -63.5 187.5l-7 53l-29 224l116 25q23 -214 32 -282q6 -50 14.5 -74
t25 -32.5t48.5 -8.5h17l8 -75l-8 -74h-17q-89 0 -136.5 56.5z" />
    <glyph glyph-name="uniFDFC" unicode="&#xfdfc;" horiz-adv-x="1487" arabic-form="isolated" 
d="M1198.5 -27q56.5 28 90 58t36.5 55q1 5 1 18q0 39 -8.5 112t-15.5 119l118 26q17 -94 17 -190q0 -48 -7 -101q-15 -99 -98 -168.5t-217 -103.5l-41 129q68 18 124.5 46zM750 -249q-70 0 -120 7l25 114q11 -1 36 -1q72 0 157 10t142 25l37 -126q-134 -29 -277 -29z
M739 723q36 0 56.5 -24.5t22.5 -70.5l15 -366q2 -54 8.5 -79t25.5 -35.5t60 -10.5q151 0 170 52q-3 40 -24 102.5t-32 83.5l105 57q19 -38 40 -111.5t21 -126.5q0 -103 -69 -154.5t-215 -51.5q-76 0 -120 28t-63 83t-21 144q-5 212 -13 351l-100 -27l4 -103q6 -134 13 -347
q4 -175 -70 -268.5t-218 -93.5q-78 0 -143 32t-103.5 92t-38.5 141q0 59 20.5 126.5t48.5 127.5l97 -45q-27 -61 -40.5 -103t-13.5 -86q0 -63 46.5 -99.5t126.5 -36.5q95 0 139 49t40 157q-7 213 -28 440l78 133l145 36q15 4 30 4z" />
    <glyph glyph-name=".notdef" horiz-adv-x="255" 
d="M38 429h179v-433h-179v433zM208 4v417h-161v-417h161z" />
    <glyph glyph-name=".null" 
 />
    <glyph glyph-name="nonmarkingreturn" unicode="&#xd;" horiz-adv-x="255" 
 />
    <glyph glyph-name="space" unicode=" " horiz-adv-x="224" 
 />
    <glyph glyph-name="A" unicode="A" horiz-adv-x="669" 
d="M465 154h-260l-52 -154h-148l264 711h130l266 -711h-148zM241 264h188l-95 281z" />
    <glyph glyph-name="B" unicode="B" horiz-adv-x="636" 
d="M66 0v711h245q129 0 195 -49.5t66 -144.5q0 -53 -26.5 -92t-75.5 -58q57 -15 88 -57t31 -102q0 -101 -64.5 -154t-187.5 -54h-271zM205 314v-204h130q54 0 84 26t30 73q0 105 -109 105h-135zM205 412h111q58 0 87 24t29 69q0 51 -29 73.5t-92 22.5h-106v-189z" />
    <glyph glyph-name="C" unicode="C" horiz-adv-x="654" 
d="M587 122.5q-28 -55.5 -90.5 -94t-161.5 -38.5q-89 0 -154.5 41t-101 118t-35.5 183v49q0 70 25.5 147.5t91 135t176.5 57.5q123 0 197.5 -66t85.5 -183h-140q-5 72 -40 105t-103 33q-75 0 -113 -56t-38 -167v-58q0 -115 36.5 -171t112.5 -56q68 0 103 31t41 102h140
q-4 -57 -32 -112.5z" />
    <glyph glyph-name="D" unicode="D" horiz-adv-x="650" 
d="M66 0v711h217q95 0 168 -42.5t114 -119t41 -174.5v-37q0 -99 -40 -175.5t-113 -119.5t-169 -43h-218zM205 601v-491h76q88 0 135.5 58.5t47.5 169.5v35q0 111 -46.5 169t-133.5 59h-79z" />
    <glyph glyph-name="E" unicode="E" horiz-adv-x="563" 
d="M491 312h-286v-202h334v-110h-473v711h472v-110h-333v-182h286v-107z" />
    <glyph glyph-name="F" unicode="F" horiz-adv-x="549" 
d="M491 295h-286v-295h-139v711h461v-110h-322v-196h286v-110z" />
    <glyph glyph-name="G" unicode="G" horiz-adv-x="682" 
d="M514.5 16.5q-71.5 -26.5 -160.5 -26.5q-91 0 -159.5 39.5t-106.5 113.5t-39 173l-1 62q-1 98 32.5 176t100.5 122.5t163 44.5q124 0 195 -59t85 -174h-136q-11 64 -45 93.5t-95 29.5q-76 0 -117 -59.5t-41 -170.5v-49q0 -112 43.5 -172t127.5 -60q85 0 123 38v130h-137
v102h277v-280q-38 -47 -109.5 -73.5z" />
    <glyph glyph-name="H" unicode="H" horiz-adv-x="707" 
d="M640 0h-139v310h-296v-310h-139v711h139v-292h296v292h139v-711z" />
    <glyph glyph-name="I" unicode="I" horiz-adv-x="290" 
d="M215 0h-140v711h140v-711z" />
    <glyph glyph-name="J" unicode="J" horiz-adv-x="558" 
d="M354 711h141v-494q0 -66 -29.5 -117.5t-83 -80.5t-124.5 -29q-113 0 -175 57t-62 160h140q0 -107 97 -107q45 0 70.5 31t25.5 85v495z" />
    <glyph glyph-name="K" unicode="K" horiz-adv-x="635" 
d="M282 291l-77 -82v-209h-139v711h139v-329l65 86l190 243h172l-256 -315l265 -396h-167z" />
    <glyph glyph-name="L" unicode="L" horiz-adv-x="540" 
d="M206 110h313v-110h-453v711h140v-601z" />
    <glyph glyph-name="M" unicode="M" horiz-adv-x="875" 
d="M249 711l188 -529l188 529h184v-711h-141v210l14 324l-197 -534h-96l-197 533l13 -323v-210h-139v711h183z" />
    <glyph glyph-name="N" unicode="N" horiz-adv-x="706" 
d="M640 0h-140l-294 484v-484h-140v711h140l295 -485v485h139v-711z" />
    <glyph glyph-name="O" unicode="O" horiz-adv-x="689" 
d="M608 154.5q-37 -78.5 -105 -121.5t-158 -43q-88 0 -156.5 42.5t-106.5 119t-38 176.5v45q0 102 36 181t104 123t160 44q90 0 158.5 -42.5t105.5 -121t37 -182.5v-37q0 -105 -37 -183.5zM462 548q-41 60 -118 60q-75 0 -116.5 -56.5t-42.5 -161.5v-52q0 -113 41.5 -174.5
t118.5 -61.5q76 0 116.5 59.5t41.5 171.5v41q0 114 -41 174z" />
    <glyph glyph-name="P" unicode="P" horiz-adv-x="643" 
d="M205 256v-256h-139v711h274q80 0 140.5 -29.5t92.5 -82t32 -119.5q0 -105 -70.5 -164.5t-196.5 -59.5h-133zM205 366h135q60 0 91.5 29t31.5 84t-32 88t-88 34h-138v-235z" />
    <glyph glyph-name="Q" unicode="Q" horiz-adv-x="689" 
d="M612 164.5q-32 -74.5 -91 -118.5l119 -94l-89 -78l-151 121q-32 -5 -56 -5q-88 0 -156.5 42.5t-107 119.5t-38.5 178v43q0 105 37.5 183.5t106 121.5t157.5 43q90 0 158 -43t105.5 -121.5t37.5 -180.5v-38q0 -99 -32 -173.5zM461 548q-41 60 -118 60q-76 0 -117 -59.5
t-42 -170.5v-40q0 -113 41 -174.5t119 -61.5q76 0 116.5 59.5t41.5 171.5v41q0 114 -41 174z" />
    <glyph glyph-name="R" unicode="R" horiz-adv-x="638" 
d="M328 266h-123v-266h-140v711h262q125 0 193.5 -55.5t68.5 -159.5q0 -70 -33 -119.5t-96 -76.5l155 -293v-7h-150zM205 375h123q56 0 88 30t32 82q0 54 -31 83.5t-89 30.5h-123v-226z" />
    <glyph glyph-name="S" unicode="S" horiz-adv-x="617" 
d="M430 228q-9 18 -29 31q-20 14 -46 24.5t-65 22.5q-69 23 -99 38q-132 65 -132 180q0 60 35 105t94.5 69t131.5 24q74 0 133.5 -27.5t93 -77.5t33.5 -114h-141q0 52 -32 81t-90 29q-54 0 -86 -24t-32 -65q0 -39 41 -65q20 -14 42.5 -23t67.5 -24q6 -2 44.5 -15t72.5 -32
q113 -64 113 -178q0 -91 -69 -143.5t-188 -52.5q-75 0 -140.5 26t-105.5 78t-40 126h141q0 -60 37 -91t108 -31q55 0 85.5 23t30.5 64q0 24 -9 42z" />
    <glyph glyph-name="T" unicode="T" horiz-adv-x="617" 
d="M597 601h-220v-601h-140v601h-217v110h577v-110z" />
    <glyph glyph-name="U" unicode="U" horiz-adv-x="658" 
d="M600 711v-476q0 -110 -71 -175.5t-200 -69.5q-82 0 -143.5 29.5t-94.5 84.5t-33 130v477h141v-476q0 -66 33.5 -100.5t96.5 -34.5q64 0 97.5 34.5t33.5 100.5v476h140z" />
    <glyph glyph-name="V" unicode="V" horiz-adv-x="651" 
d="M310 216l15 -50l15 51l151 494h156l-249 -711h-146l-247 711h154z" />
    <glyph glyph-name="W" unicode="W" horiz-adv-x="876" 
d="M605 280l16 -69l12 73l87 427h140l-160 -711h-141l-104 401l-16 71l-15 -71l-106 -401h-140l-160 711h140l87 -428l12 -72l16 69l107 431h119z" />
    <glyph glyph-name="X" unicode="X" horiz-adv-x="634" 
d="M317 460l138 251h162l-209 -353l214 -358h-164l-141 255l-142 -255h-163l215 358l-210 353h162z" />
    <glyph glyph-name="Y" unicode="Y" horiz-adv-x="617" 
d="M308 383l153 328h153l-235 -452v-259h-142v259l-235 452h154z" />
    <glyph glyph-name="Z" unicode="Z" horiz-adv-x="606" 
d="M209 110h367v-110h-540v82l359 519h-358v110h530v-80z" />
    <glyph glyph-name="a" unicode="a" horiz-adv-x="536" 
d="M350 51q-52 -61 -137 -61q-50 0 -91 20.5t-64.5 57t-23.5 80.5q0 84 63.5 129t181.5 45h66v33q0 41 -21 63t-62 22q-37 0 -59 -18.5t-22 -49.5h-134q0 46 28.5 84t79 60t114.5 22q97 0 153 -47.5t58 -131.5v-237q0 -72 20 -114v-8h-136q-8 18 -14 51zM304 108.5
q28 16.5 41 40.5v94h-57q-118 0 -118 -85q0 -30 20 -48t53 -18t61 16.5z" />
    <glyph glyph-name="b" unicode="b" horiz-adv-x="562" 
d="M474 61.5q-55 -71.5 -150 -71.5q-89 0 -140 67l-7 -57h-122v750h136v-270q49 58 131 58q97 0 152 -71.5t55 -199.5v-8q0 -126 -55 -197.5zM288 431q-31 0 -57 -15.5t-40 -42.5v-218q28 -58 98 -58q55 0 79.5 42.5t24.5 130.5q0 161 -105 161z" />
    <glyph glyph-name="c" unicode="c" horiz-adv-x="521" 
d="M340 119.5q26 23.5 27 60.5h127q-1 -52 -29 -95.5t-77.5 -69t-111.5 -25.5q-113 0 -178 72.5t-65 198.5v11q0 77 28 137t82.5 94.5t131.5 34.5q98 0 157.5 -55.5t61.5 -148.5h-127q-1 45 -27 71.5t-67 26.5q-104 0 -105 -160v-16q-1 -82 25.5 -121t80.5 -39q40 0 66 23.5
z" />
    <glyph glyph-name="d" unicode="d" horiz-adv-x="563" 
d="M58.5 411q25.5 61 72.5 94t110 33q79 0 130 -59v271h135v-750h-122l-7 57q-51 -67 -137 -67q-62 0 -109 33.5t-72.5 96.5t-25.5 148q0 82 25.5 143zM169 258q0 -78 27 -119.5t78 -41.5q67 0 97 58v218q-30 58 -96 58q-49 0 -76.5 -38.5t-29.5 -110.5v-24z" />
    <glyph glyph-name="e" unicode="e" horiz-adv-x="538" 
d="M160 22.5q-59 32.5 -91.5 91.5t-32.5 137v14q0 78 29.5 140t85 97.5t130.5 35.5q108 0 169.5 -69t61.5 -193v-54h-339v-2q6 -56 41.5 -90t90.5 -34q81 0 129 61l67 -70q-32 -46 -85.5 -71.5t-119.5 -25.5q-77 0 -136 32.5zM209 401.5q-28 -30.5 -35 -87.5h205v10
q-2 52 -27.5 80t-71.5 28q-43 0 -71 -30.5z" />
    <glyph glyph-name="f" unicode="f" horiz-adv-x="356" 
d="M95 0v432h-80v96h80v47q0 88 50 136.5t141 48.5q34 0 71 -9l-2 -102q-16 4 -44 4q-40 0 -60.5 -20t-20.5 -58v-47h107v-96h-107v-432h-135z" />
    <glyph glyph-name="g" unicode="g" horiz-adv-x="569" 
d="M62 412.5q27 60.5 75 93t111 32.5q89 0 138 -61l5 51h123v-511q0 -47 -23 -98.5t-79 -89t-149 -37.5q-58 0 -112.5 23t-83.5 61l61 80q49 -61 129 -61q59 0 90 31.5t31 91.5v28q-50 -56 -131 -56q-63 0 -111 34t-74.5 96t-26.5 145v6q0 81 27 141.5zM199.5 140
q29.5 -43 82.5 -43q66 0 96 53v229q-31 52 -95 52q-54 0 -83.5 -44t-29.5 -129q0 -75 29.5 -118z" />
    <glyph glyph-name="h" unicode="h" horiz-adv-x="559" 
d="M331 538q86 0 129.5 -50t44.5 -149v-339h-135v338q-1 48 -21.5 70.5t-65.5 22.5q-32 0 -56.5 -14t-38.5 -39v-378h-136v750h136v-281q56 69 143 69z" />
    <glyph glyph-name="i" unicode="i" horiz-adv-x="262" 
d="M199 0h-136v528h136v-528zM75.5 715.5q20.5 19.5 55.5 19.5q34 0 55 -19.5t21 -49.5t-21 -49.5t-55 -19.5q-35 0 -55.5 19.5t-20.5 49.5t20.5 49.5z" />
    <glyph glyph-name="j" unicode="j" horiz-adv-x="258" 
d="M199 528v-563q0 -87 -46 -132.5t-131 -45.5q-34 0 -69 8v104q21 -4 45 -4q33 0 49 17t16 53v563h136zM73 715.5q21 19.5 56 19.5q34 0 55 -19.5t21 -49.5t-21 -49.5t-56 -19.5q-34 0 -55 19.5t-21 49.5t21 49.5z" />
    <glyph glyph-name="k" unicode="k" horiz-adv-x="531" 
d="M241 216l-50 -52v-164h-135v750h135v-420l30 36l140 162h162l-194 -218l211 -310h-156z" />
    <glyph glyph-name="l" unicode="l" horiz-adv-x="262" 
d="M199 0h-136v750h136v-750z" />
    <glyph glyph-name="m" unicode="m" horiz-adv-x="867" 
d="M182 528l5 -60q55 70 153 70q104 0 141 -82q57 82 161 82q83 0 125.5 -47.5t43.5 -142.5v-348h-135v339q0 48 -18.5 70t-64.5 22q-33 0 -55 -16q-28 -18 -38 -54l1 -7v-354h-135v338q0 48 -19.5 70.5t-64.5 22.5q-31 0 -54 -13q-24 -16 -38 -43v-375h-135v528h127z" />
    <glyph glyph-name="n" unicode="n" horiz-adv-x="559" 
d="M180 528l5 -64q56 74 153 74q165 0 167 -194v-344h-135v340q-1 48 -20.5 69.5t-66.5 21.5q-32 0 -56.5 -15t-38.5 -42v-374h-135v528h127z" />
    <glyph glyph-name="o" unicode="o" horiz-adv-x="565" 
d="M60 404q29 61 85.5 97.5t136.5 36.5q75 0 131.5 -33.5t87 -95t30.5 -144.5v-6q0 -81 -31 -142t-87 -94t-130 -33q-73 0 -129 32t-87.5 90.5t-33.5 137.5v19q-2 74 27 135zM198 138q30 -42 85 -42q54 0 83.5 41t30.5 118v14q0 77 -30 120t-85 43q-52 0 -81.5 -39
t-32.5 -113v-21q0 -79 30 -121z" />
    <glyph glyph-name="p" unicode="p" horiz-adv-x="562" 
d="M503 117.5q-25 -60.5 -71.5 -94t-108.5 -33.5q-82 0 -132 56v-249h-136v731h126l5 -53q50 63 136 63q96 0 151 -71.5t55 -198.5v-9q0 -81 -25 -141.5zM365.5 389.5q-27.5 41.5 -78.5 41.5q-69 0 -96 -54v-226q28 -55 97 -55q49 0 76.5 40.5t28.5 119.5v14
q0 78 -27.5 119.5z" />
    <glyph glyph-name="q" unicode="q" horiz-adv-x="564" 
d="M89 466.5q56 71.5 152 71.5q87 0 138 -65l8 55h119v-731h-136v249q-50 -56 -130 -56q-62 0 -108.5 32.5t-72.5 93.5t-26 144v10q0 125 56 196.5zM196.5 138q27.5 -42 77.5 -42q68 0 96 54v229q-29 53 -95 53q-49 0 -76.5 -38.5t-29.5 -113.5v-21q0 -79 27.5 -121z" />
    <glyph glyph-name="r" unicode="r" horiz-adv-x="363" 
d="M299 410q-82 0 -108 -60v-350h-136v528h129l3 -65q44 75 120 75q26 0 44 -6l-2 -126q-14 4 -50 4z" />
    <glyph glyph-name="s" unicode="s" horiz-adv-x="514" 
d="M317.5 189q-26.5 16 -85.5 29q-93 20 -139.5 59t-46.5 99q0 46 26.5 83t74 58t108.5 21q65 0 114.5 -21.5t77 -59.5t27.5 -88h-135q0 34 -23 54.5t-62 20.5q-35 0 -57 -17.5t-22 -44.5q0 -29 29.5 -43t83.5 -27q28 -6 39 -10q75 -21 111.5 -57.5t36.5 -94.5
q0 -47 -28 -83.5t-77.5 -56.5t-113.5 -20q-62 0 -114 23t-82.5 63.5t-30.5 90.5h128q1 -40 28.5 -61t72.5 -21q41 0 63.5 16.5t22.5 43.5q0 28 -26.5 44z" />
    <glyph glyph-name="t" unicode="t" horiz-adv-x="337" 
d="M219 658v-130h92v-96h-92v-276q0 -31 12 -44.5t43 -13.5q14 0 42 4v-100q-40 -12 -83 -12q-149 0 -149 154v288h-79v96h79v130h135z" />
    <glyph glyph-name="u" unicode="u" horiz-adv-x="559" 
d="M378 0l-3 55q-53 -65 -147 -65q-86 0 -130.5 50t-45.5 146v342h136v-342q0 -89 78 -89q76 0 103 55v376h136v-528h-127z" />
    <glyph glyph-name="v" unicode="v" horiz-adv-x="504" 
d="M251 167l103 361h141l-180 -528h-128l-180 528h141z" />
    <glyph glyph-name="w" unicode="w" horiz-adv-x="736" 
d="M206 242l13 -63l99 349h98l100 -348l12 62l61 286h130l-136 -528h-113l-89 299l-15 49l-14 -49l-88 -299h-113l-136 528h130z" />
    <glyph glyph-name="x" unicode="x" horiz-adv-x="507" 
d="M254 364l93 164h145l-153 -259l160 -269h-146l-98 173l-98 -173h-146l159 269l-152 259h146z" />
    <glyph glyph-name="y" unicode="y" horiz-adv-x="500" 
d="M251 191l6 22l96 315h144l-214 -614l-9 -22q-46 -105 -156 -105q-26 1 -61 8v101q7 -1 22 -1q39 -1 60 13t33 49l17 42l-186 529h145z" />
    <glyph glyph-name="z" unicode="z" horiz-adv-x="507" 
d="M205 106h268v-106h-437v82l258 340h-250v106h421v-79z" />
    <glyph glyph-name="uni0627.001" horiz-adv-x="251" 
d="M69 171q0 119 -7.5 253t-16.5 198l125 28q7 -63 13.5 -189t6.5 -247q0 -129 -9 -221l-118 13q6 50 6 165z" />
    <glyph glyph-name="uni0627.fina.001" horiz-adv-x="268" 
d="M111 63q-48 63 -50 192q-2 116 -5.5 199.5t-12.5 167.5l124 28q14 -148 14 -386q0 -46 6.5 -70t25 -34.5t55.5 -10.5h5l8 -75l-8 -74h-5q-109 0 -157 63z" />
    <glyph glyph-name="uni066E" unicode="&#x66e;" horiz-adv-x="857" 
d="M422 55q0 28 2 82q92 0 157 10t97.5 23t34.5 21q-8 47 -27.5 104.5t-33.5 90.5l105 58q24 -55 42 -123t18 -120q0 -105 -108 -159t-285 -54q-2 23 -2 67zM152.5 42q-102.5 55 -111.5 154q-1 8 -1 24q0 43 12 93t29 89l96 -46q-26 -81 -26 -122q0 -27 32.5 -49t96 -35
t154.5 -13q2 -25 2 -74q0 -50 -2 -75q-179 -1 -281.5 54z" />
    <glyph glyph-name="uni066E.001" horiz-adv-x="428" 
d="M-7 55q0 28 2 82q92 0 157 10t97.5 23t34.5 21q-8 47 -27.5 104.5t-33.5 90.5l105 58q24 -54 42 -122.5t18 -120.5q0 -105 -108 -159t-285 -54q-2 46 -2 67z" />
    <glyph glyph-name="uni066E.fina.001" horiz-adv-x="429" 
d="M152.5 42q-102.5 55 -111.5 154q-1 8 -1 24q0 43 12 93t29 89l96 -46q-26 -81 -26 -122q0 -27 32.5 -49t96 -35t154.5 -13q2 -25 2 -74q0 -50 -2 -75q-179 -1 -281.5 54z" />
    <glyph glyph-name="uni066E.fina.002" horiz-adv-x="521" 
d="M-5 62q0 25 2 75q131 0 203.5 16.5t110.5 53.5t64 108l104 -12q-19 -56 -19 -91q0 -63 66 -63l8 -74l-8 -75q-41 0 -76 18.5t-55.5 51.5t-20.5 75l20 -4q-62 -86 -156 -119.5t-241 -33.5q-2 50 -2 74z" />
    <glyph glyph-name="uni066E.medi.001" horiz-adv-x="390" 
d="M-5 149h7q90 0 134 9.5t58 28.5t14 55q0 29 -10 95l103 20q14 -73 14 -165q4 -17 22 -30t52 -13h6l8 -75l-8 -74h-6q-46 0 -85 25.5t-61 64.5l25 -5q-27 -46 -87.5 -65.5t-178.5 -19.5h-7v149z" />
    <glyph glyph-name="uni066E.medi.002" horiz-adv-x="337" 
d="M228 34q-44 34 -62 103l-19 87l-23 105l100 34q22 -92 37 -150q10 -34 28 -49t48 -15h5l8 -75l-8 -74h-5q-65 0 -109 34zM-5 149h6q74 0 113 16.5t43 46.5l96 -19q-14 -100 -75.5 -146.5t-175.5 -46.5h-7v149z" />
    <glyph glyph-name="uni066E.medi.003" horiz-adv-x="395" 
d="M286 34q-44 34 -61 103q-12 46 -21 97q-6 25 -11 49t-10 46l99 34q22 -92 37 -150q10 -34 28 -49t48 -15h5l8 -75l-8 -74h-4q-66 0 -110 34zM-5 149h6q100 0 152.5 15t62.5 48l95 -19q-14 -102 -86 -147.5t-223 -45.5h-7v149z" />
    <glyph glyph-name="uni066E.init.001" horiz-adv-x="376" 
d="M-5 149h48q99 0 140 17t41 52q-1 22 -23 84.5t-32 83.5l106 58q20 -42 40 -111.5t20 -121.5q-1 -102 -69 -156.5t-201 -54.5h-70v149z" />
    <glyph glyph-name="uni0628.medi.001" horiz-adv-x="337" 
d="M228 34q-44 34 -62 103l-19 87l-23 105l100 34q22 -92 37 -150q10 -34 28 -49t48 -15h5l8 -75l-8 -74h-5q-65 0 -109 34zM-5 149h6q74 0 113 16.5t43 46.5l96 -19q-14 -100 -75.5 -146.5t-175.5 -46.5h-7v149zM60 -78q31 -30 61 -61l31 -31l-92 -92l-93 92z" />
    <glyph glyph-name="uni0628.medi.alt" horiz-adv-x="335" 
d="M-5 149h6q76 0 110.5 16t39.5 52q2 16 2 25q0 24 -5 55.5t-6 39.5l104 20q13 -74 13 -165q4 -17 22.5 -30t52.5 -13h6l8 -75l-8 -74h-6q-47 0 -85.5 25t-61.5 65l27 -3q-27 -45 -79.5 -66t-133.5 -21h-6v149zM125 -79q31 -30 61 -61l31 -31l-92 -92l-93 92z" />
    <glyph glyph-name="uni0628.medi.alt.001" horiz-adv-x="395" 
d="M286 34q-44 34 -61 103q-12 46 -21 97q-6 25 -11 49t-10 46l99 34q22 -92 37 -150q10 -34 28 -49t48 -15h5l8 -75l-8 -74h-4q-66 0 -110 34zM-5 149h6q100 0 152.5 15t62.5 48l95 -19q-14 -102 -86 -147.5t-223 -45.5h-7v149zM138 -78q31 -30 61 -61l31 -31l-92 -92
l-93 92z" />
    <glyph glyph-name="uni0628.init.alt" horiz-adv-x="336" 
d="M-5 149h53q72 0 103.5 16t31.5 48q0 21 -21 82.5t-33 90.5l105 58q19 -42 39.5 -112.5t20.5 -123.5q0 -102 -63.5 -155t-182.5 -53h-53v149zM123 -78q31 -30 61 -61l31 -31l-92 -92l-93 92z" />
    <glyph glyph-name="uni067E.medi.001" horiz-adv-x="395" 
d="M207 -228l-80 79l80 81q25 -28 60 -61l20 -20zM18 -228l-79 79l31 32l48 49l54 -54l27 -27zM113 -337l-70 70l70 71l47 -47l24 -24zM286 34q-44 34 -61 103q-12 46 -21 97q-6 25 -11 49t-10 46l99 34q22 -92 37 -150q10 -34 28 -49t48 -15h5l8 -75l-8 -74h-4
q-66 0 -110 34zM-5 149h6q100 0 152.5 15t62.5 48l95 -19q-14 -102 -86 -147.5t-223 -45.5h-7v149z" />
    <glyph glyph-name="uni067E.medi.alt" horiz-adv-x="390" 
d="M-5 149h7q90 0 134 9.5t58 28.5t14 55q0 29 -10 95l103 20q14 -73 14 -165q4 -17 22 -30t52 -13h6l8 -75l-8 -74h-6q-46 0 -85 25.5t-61 64.5l25 -5q-27 -46 -87.5 -65.5t-178.5 -19.5h-7v149zM267 -229l-80 79l80 81q25 -28 60 -61l20 -20zM78 -229l-79 79l31 32l48 49
l54 -54l27 -27zM173 -338l-70 70l70 71l47 -47l24 -24z" />
    <glyph glyph-name="uni067E.medi.alt.001" horiz-adv-x="395" 
d="M267 -229l-80 79l80 81q25 -28 60 -61l20 -20zM78 -229l-79 79l31 32l48 49l54 -54l27 -27zM173 -338l-70 70l70 71l47 -47l24 -24zM286 34q-44 34 -61 103q-12 46 -21 97q-6 25 -11 49t-10 46l99 34q22 -92 37 -150q10 -34 28 -49t48 -15h5l8 -75l-8 -74h-4
q-66 0 -110 34zM-5 149h6q100 0 152.5 15t62.5 48l95 -19q-14 -102 -86 -147.5t-223 -45.5h-7v149z" />
    <glyph glyph-name="uni067E.init.alt" horiz-adv-x="420" 
d="M39 149h48q99 0 140 17t41 52q-1 22 -23 84.5t-32 83.5l106 58q20 -42 40 -111.5t20 -121.5q-1 -102 -69 -156.5t-201 -54.5h-70v149zM274 -229l-80 79l80 81q19 -21 59 -61l21 -20zM85 -229l-79 79l31 32l48 49l54 -54l27 -27zM180 -338l-70 70l70 71l47 -47l24 -24z
M-3 0l-8 74l8 75h49v-149h-49z" />
    <glyph glyph-name="uni062A.medi.001" horiz-adv-x="395" 
d="M286 34q-44 34 -61 103q-12 46 -21 97q-6 25 -11 49t-10 46l99 34q22 -92 37 -150q10 -34 28 -49t48 -15h5l8 -75l-8 -74h-4q-66 0 -110 34zM-5 149h6q100 0 152.5 15t62.5 48l95 -19q-14 -102 -86 -147.5t-223 -45.5h-7v149zM101 598l84 -84l-84 -85l-28 28l-57 57z
M277 598l84 -84l-84 -85l-28 28l-57 57z" />
    <glyph glyph-name="uni062A.medi.002" horiz-adv-x="437" 
d="M328 34q-44 34 -61 103q-6 19 -22 97l-20 95l99 34q22 -92 37 -150q10 -34 28 -49t48 -15h5l8 -75l-8 -74h-4q-66 0 -110 34zM37 149h6q100 0 152.5 15t62.5 48l95 -19q-14 -102 -86 -147.5t-223 -45.5h-7v149zM126 598l84 -84l-84 -85l-28 28l-57 57zM302 598l84 -84
l-84 -85l-28 28l-57 57zM-3 0l-8 74l8 75h49v-149h-49z" />
    <glyph glyph-name="uni062A.medi.alt" horiz-adv-x="433" 
d="M37 149h7q90 0 134 9.5t58 28.5t14 55q0 28 -7 70l-3 25l103 20q14 -73 14 -165q4 -17 22 -30t52 -13h6l8 -75l-8 -74h-6q-46 0 -85 25.5t-61 64.5l25 -5q-27 -46 -87.5 -65.5t-178.5 -19.5h-7v149zM109 596l84 -84l-84 -85l-28 28l-57 57zM285 596l84 -84l-84 -85
l-28 28l-57 57zM-3 0l-8 74l8 75h49v-149h-49z" />
    <glyph glyph-name="uni062A.init.alt" horiz-adv-x="418" 
d="M37 149h48q99 0 140 17t41 52q-1 22 -23 84.5t-32 83.5l106 58q20 -42 40 -111.5t20 -121.5q-1 -102 -69 -156.5t-201 -54.5h-70v149zM130 650l84 -84l-84 -85l-28 28l-57 57zM306 650l84 -84l-84 -85l-28 28l-57 57zM-3 0l-8 74l8 75h49v-149h-49z" />
    <glyph glyph-name="uni062B.medi.001" horiz-adv-x="395" 
d="M286 34q-44 34 -61 103q-12 46 -21 97q-6 25 -11 49t-10 46l99 34q22 -92 37 -150q10 -34 28 -49t48 -15h5l8 -75l-8 -74h-4q-66 0 -110 34zM-5 149h6q100 0 152.5 15t62.5 48l95 -19q-14 -102 -86 -147.5t-223 -45.5h-7v149zM93 594l80 -79l-80 -81q-9 11 -60 61l-20 20
zM282 594l79 -79l-32 -32l-47 -49l-54 54l-27 27zM187 703l70 -70l-70 -71l-47 47l-24 24z" />
    <glyph glyph-name="uni062B.medi.002" horiz-adv-x="437" 
d="M328 34q-44 34 -61 103q-6 19 -22 97l-20 95l99 34q22 -92 37 -150q10 -34 28 -49t48 -15h5l8 -75l-8 -74h-4q-66 0 -110 34zM37 149h6q100 0 152.5 15t62.5 48l95 -19q-14 -102 -86 -147.5t-223 -45.5h-7v149zM117 594l80 -79l-80 -81q-9 11 -60 61l-20 20zM306 594
l79 -79l-32 -32l-47 -49l-54 54l-27 27zM211 703l70 -70l-70 -71l-47 47l-24 24zM-3 0l-8 74l8 75h49v-149h-49z" />
    <glyph glyph-name="uni062B.medi.alt" horiz-adv-x="433" 
d="M37 149h7q90 0 134 9.5t58 28.5t14 55q0 28 -7 70l-3 25l103 20q14 -73 14 -165q4 -17 22 -30t52 -13h6l8 -75l-8 -74h-6q-46 0 -85 25.5t-61 64.5l25 -5q-27 -46 -87.5 -65.5t-178.5 -19.5h-7v149zM109 593l80 -79l-80 -81q-25 28 -60 61q-9 11 -20 20zM298 593l79 -79
l-31 -32l-48 -49l-54 55l-27 26zM203 702l70 -70l-70 -71l-47 47l-24 24zM-3 0l-8 74l8 75h49v-149h-49z" />
    <glyph glyph-name="uni062B.init.alt" horiz-adv-x="418" 
d="M37 149h48q99 0 140 17t41 52q-1 22 -23 84.5t-32 83.5l106 58q20 -42 40 -111.5t20 -121.5q-1 -102 -69 -156.5t-201 -54.5h-70v149zM117 645l80 -79l-80 -81l-60 61l-20 20zM306 645l79 -79l-32 -32q-32 -32 -47 -49q-27 29 -54 54l-27 27zM211 754l70 -70l-70 -71
l-48 47l-23 24zM-3 0l-8 74l8 75h49v-149h-49z" />
    <glyph glyph-name="uni0679.medi.001" horiz-adv-x="395" 
d="M286 34q-44 34 -61 103q-12 46 -21 97q-6 25 -11 49t-10 46l99 34q22 -92 37 -150q10 -34 28 -49t48 -15h5l8 -75l-8 -74h-4q-66 0 -110 34zM-5 149h6q100 0 152.5 15t62.5 48l95 -19q-14 -102 -86 -147.5t-223 -45.5h-7v149zM94.5 493.5q22.5 -4.5 60.5 -4.5q92 0 92 37
q0 10 -7 17t-21 7q-31 0 -66 -31t-59 -75l-42 33q32 59 74 99.5t87 40.5q39 0 61.5 -28.5t22.5 -61.5q0 -27 -17 -52t-52.5 -40.5t-89.5 -15.5q-39 0 -73 10.5t-50 18.5l21 60q36 -10 58.5 -14.5zM84 535q0 29 -4.5 74.5t-10.5 78.5l54 11q7 -43 12 -103.5t2 -86.5l-54 7
q1 5 1 19z" />
    <glyph glyph-name="uni062D.fina.001" horiz-adv-x="722" 
d="M212 -354q-79 34 -125 98.5t-46 151.5q0 20 1 30q10 111 88 192.5t213.5 129t316.5 55.5l-29 -107q-61 24 -139 80q-71 50 -115.5 71.5t-85.5 21.5q-38 0 -67.5 -21t-45.5 -47l-84 61q77 150 200 150q57 0 111.5 -26.5t145.5 -92.5q49 -35 76 -51.5t58 -27.5l-17 -143
q-151 0 -265.5 -36t-179 -95t-73.5 -124q-4 -44 29.5 -79.5t94.5 -56t137 -20.5q70 0 132 15t98 29l54 -114q-136 -78 -308 -78q-96 0 -175 34z" />
    <glyph glyph-name="uni0688" unicode="&#x688;" horiz-adv-x="529" 
d="M114 21.5q-58 26.5 -90 53.5l54 105q36 -18 74 -31t93 -13q54 1 88.5 12.5t45.5 25.5q1 2 1 8q0 21 -18.5 55.5t-65 82t-124.5 100.5l72 131q116 -82 183.5 -179t67.5 -185q0 -42 -16 -77q-24 -56 -85 -85.5t-135 -29.5q-87 0 -145 26.5zM173.5 689.5
q22.5 -4.5 60.5 -4.5q92 0 92 37q0 10 -7 17t-21 7q-31 0 -66 -31t-59 -75l-42 33q32 59 74 99.5t87 40.5q39 0 61.5 -28.5t22.5 -61.5q0 -27 -17 -52t-52.5 -40.5t-89.5 -15.5q-39 0 -73 10.5t-50 18.5l21 60q36 -10 58.5 -14.5zM163 731q0 29 -4.5 74.5t-10.5 78.5l54 11
q7 -43 12 -103.5t2 -86.5l-54 7q1 5 1 19z" />
    <glyph glyph-name="uni0631.003" horiz-adv-x="408" 
d="M293 50q-42 50 -70 140l90 55q14 -53 34 -74.5t56 -21.5h9l8 -75l-8 -74h-9q-68 0 -110 50z" />
    <glyph glyph-name="uni0691" unicode="&#x691;" horiz-adv-x="386" 
d="M121 -103.5q55 35.5 86.5 70.5t31.5 60q0 41 -53 223l-5 20l112 44q24 -69 38 -147.5t14 -139.5q0 -98 -77 -181.5t-207 -137.5l-61 126q66 27 121 62.5zM179.5 452.5q22.5 -4.5 60.5 -4.5q92 0 92 37q0 10 -7 17t-21 7q-31 0 -66 -31t-59 -75l-42 33q32 59 74 99.5
t87 40.5q39 0 61.5 -28.5t22.5 -61.5q0 -27 -17 -52t-52.5 -40.5t-89.5 -15.5q-39 0 -73 10.5t-50 18.5l21 60q36 -10 58.5 -14.5zM169 494q0 29 -4.5 74.5t-10.5 78.5l54 11q7 -43 12 -103.5t2 -86.5l-54 7q1 5 1 19z" />
    <glyph glyph-name="uni0695" unicode="&#x695;" horiz-adv-x="386" 
d="M121 -103.5q55 35.5 86.5 70.5t31.5 60q0 41 -53 223l-5 20l112 44q24 -69 38 -147.5t14 -139.5q0 -98 -77 -181.5t-207 -137.5l-61 126q66 27 121 62.5zM201 -422q-20 -39 -32 -72l-48 -16q-10 31 -31.5 73t-41.5 71l43 42q12 -16 28 -47.5t24 -57.5q7 27 23 61t29 53
l44 -40q-18 -28 -38 -67z" />
    <glyph glyph-name="uni0633.001" horiz-adv-x="665" 
d="M192 -256.5q-71 35.5 -110.5 101.5t-39.5 155q0 18 1 28q3 57 23.5 119t45.5 114l96 -44q-26 -60 -40 -105.5t-14 -92.5q0 -82 52 -122.5t150 -40.5q70 0 122.5 24.5t80 64t27.5 83.5q0 59 -64 240l107 56q63 -171 63 -296q0 -87 -42 -160t-118.5 -116.5t-175.5 -43.5
q-93 0 -164 35.5z" />
    <glyph glyph-name="uni0633.fina.001" horiz-adv-x="80" 
d="M-27.5 53.5q-44.5 53.5 -65.5 137.5l84 52q12 -36 22.5 -55.5t28.5 -29t48 -9.5l-7 -149q-66 0 -110.5 53.5z" />
    <glyph glyph-name="uni0633.medi.002" horiz-adv-x="262" 
d="M156.5 38q-44.5 38 -67.5 108q-9 30 -36 170l103 28q11 -64 18.5 -97t13.5 -52q8 -23 25.5 -34.5t48.5 -11.5h6l7 -75l-8 -74h-5q-61 0 -105.5 38zM-2 149h3q33 0 60.5 16.5t29.5 39.5l90 -11q-4 -53 -29.5 -97.5t-65 -70.5t-85.5 -26h-3v149z" />
    <glyph glyph-name="uni0633.init.001" horiz-adv-x="210" 
d="M-1 149h3q29 0 46 17t17 44t-20.5 86t-34.5 90l102 56q19 -39 40 -111.5t21 -126.5q0 -56 -22 -102.5t-61 -74t-88 -27.5h-3v149z" />
    <glyph glyph-name="uni0633.init.002" horiz-adv-x="269" 
d="M-1 149h5q51 0 79 55q19 38 34 117l103 -5q-11 -66 -11 -94q0 -73 61 -73h2l8 -75l-8 -74h-2q-54 0 -91 29t-52 82l25 2q-61 -113 -151 -113h-2v149z" />
    <glyph glyph-name="uni0633.init.003" horiz-adv-x="285" 
d="M-2 0l-8 74l8 75h5q31 0 61 13.5t45 33.5q21 24 32 54t20 64l104 -11q-1 -5 -11 -39.5t-10 -62.5q0 -52 42 -52h2l8 -75l-8 -74h-5q-43 0 -75 23t-45 61q-32 -41 -73.5 -62.5t-88.5 -21.5h-3z" />
    <glyph glyph-name="uni0635.medi.001" horiz-adv-x="202" 
d="M207 149l8 -75l-8 -74q-101 0 -163 7t-96 35l63 97q130 10 196 10z" />
    <glyph glyph-name="uni06A1" unicode="&#x6a1;" horiz-adv-x="899" 
d="M432 -12l-11 74l4 75h14q158 1 237 29.5t87 95.5q0 54 -16 107.5t-44 87.5t-62 34q-31 0 -53 -27.5t-22 -57.5q0 -15 8 -26q15 -19 54.5 -30.5t89.5 -11.5q36 0 70 6v-133q-52 -11 -97 -11q-72 0 -127 24.5t-79 73.5q-18 36 -18 86q0 57 24 111t67 88.5t95 34.5
q59 0 106 -46.5t73.5 -122.5t26.5 -161q0 -139 -104 -219t-318 -81h-5zM152.5 42q-102.5 55 -111.5 154q-1 8 -1 24q0 43 12 93t29 89l96 -46q-26 -81 -26 -122q0 -27 32.5 -49t96 -35t154.5 -13q2 -25 2 -74q0 -50 -2 -75q-179 -1 -281.5 54z" />
    <glyph glyph-name="uni06A1.medi.001" horiz-adv-x="467" 
d="M-4 -12l-8 75l8 74h12q135 0 206 27t95 82l1 11q0 31 -20.5 57.5t-54.5 26.5q-31 0 -53.5 -25t-26.5 -57q2 -26 26 -51.5t69 -42t106 -16.5h116l8 -75l-8 -74h-60q-103 0 -186 33t-130 88.5t-47 120.5q0 8 2 26q9 59 36.5 107t68 76t86.5 28q51 0 90.5 -31.5t61 -81.5
t21.5 -103q0 -21 -2 -32q-17 -120 -120.5 -181.5t-284.5 -61.5h-12z" />
    <glyph glyph-name="uni06A1.init.001" horiz-adv-x="471" 
d="M3 -12l-11 74l4 75h14q158 1 237 29.5t87 95.5q0 54 -16 107.5t-43.5 87.5t-61.5 34q-31 0 -53 -27.5t-22 -57.5q0 -16 7 -26q15 -19 55 -30.5t89 -11.5q36 0 70 6v-133q-50 -11 -97 -11q-71 0 -126.5 25t-79.5 73q-18 39 -18 86q0 57 24 111t67 88.5t95 34.5
q59 0 106 -46.5t73.5 -122.5t26.5 -161q0 -139 -104 -219t-318 -81h-5z" />
    <glyph glyph-name="uni066F" unicode="&#x66f;" horiz-adv-x="736" 
d="M192 -256.5q-71 35.5 -110.5 101.5t-39.5 155q0 18 1 28q3 57 23.5 119t45.5 114l96 -44q-27 -61 -40.5 -105.5t-13.5 -92.5q0 -81 52 -122t150 -41q91 0 153 40.5t76 106.5q-35 -5 -64 -5q-72 0 -130 25.5t-82 76.5q-18 39 -18 86q0 59 25 117.5t68.5 96t94.5 37.5
q62 0 111 -52.5t77 -136.5t28 -175q0 -112 -44 -195t-121 -126.5t-174 -43.5q-93 0 -164 35.5zM539.5 258.5q-30.5 45.5 -71.5 45.5q-20 0 -37.5 -14.5t-27.5 -36t-10 -41.5q0 -17 8 -28q15 -19 53.5 -30t84.5 -11q23 0 44 3q-13 67 -43.5 112.5z" />
    <glyph glyph-name="uni0643.init.alt" horiz-adv-x="461" 
d="M-5 -12l-8 74l8 74h34q82 0 139 18t76 43q-8 50 -58.5 116t-150.5 146l14 130l371 156l40 -119l-289 -123q30 -25 72.5 -73.5t77.5 -111.5t35 -120q0 -18 -5 -38q-21 -82 -108 -127t-214 -45h-34z" />
    <glyph glyph-name="uni0643.init.alt3" horiz-adv-x="460" 
d="M-5 -12l-8 74l8 74h34q84 0 139 13.5t74 36.5q-19 101 -207 249l13 130l372 157l40 -119l-289 -123q68 -57 125 -130t57 -150q0 -18 -5 -40q-21 -82 -107 -127t-212 -45h-34zM58 686l325 133l17 -48l-348 -146z" />
    <glyph glyph-name="uni0644.001" horiz-adv-x="689" 
d="M188 -229q-67 32 -106.5 92.5t-39.5 140.5q0 58 21 129.5t48 129.5l97 -44q-27 -59 -40.5 -102.5t-13.5 -88.5q0 -62 50 -101t131 -39q102 0 154 52t49 157q-5 173 -18 346.5t-26 269.5l125 27q17 -128 29 -636q2 -113 -34.5 -195t-107.5 -126t-171 -44q-80 0 -147 32z
" />
    <glyph glyph-name="uni06B5" unicode="&#x6b5;" horiz-adv-x="689" 
d="M188 -229q-67 32 -106.5 92.5t-39.5 140.5q0 58 21 129.5t48 129.5l97 -44q-27 -59 -40.5 -102.5t-13.5 -88.5q0 -62 50 -101t131 -39q102 0 154 52t49 157q-5 173 -18 346.5t-26 269.5l125 27q17 -128 29 -636q2 -113 -34.5 -195t-107.5 -126t-171 -44q-80 0 -147 32z
M608 857q-20 -39 -32 -72l-48 -16q-10 31 -31.5 73t-41.5 71l43 42q12 -16 28 -47.5t24 -57.5q7 27 23 61t29 53l44 -40q-18 -28 -38 -67z" />
    <glyph glyph-name="uni0646.medi.001" horiz-adv-x="337" 
d="M228 34q-44 34 -62 103l-19 87l-23 105l100 34q22 -92 37 -150q10 -34 28 -49t48 -15h5l8 -75l-8 -74h-5q-65 0 -109 34zM-5 149h6q74 0 113 16.5t43 46.5l96 -19q-14 -100 -75.5 -146.5t-175.5 -46.5h-7v149zM141 611q31 -30 61 -61l31 -31l-92 -92l-93 92z" />
    <glyph glyph-name="uni06BA" unicode="&#x6ba;" horiz-adv-x="727" 
d="M168 111.5q-14 -45.5 -14 -92.5q0 -82 52 -122.5t150 -40.5q70 0 122.5 24.5t80 64t27.5 83.5q0 57 -64 240l107 56q63 -169 63 -296q0 -87 -42 -160t-118.5 -116.5t-175.5 -43.5q-93 0 -164 35.5t-110.5 101.5t-39.5 155q0 18 1 28q3 57 23.5 119t45.5 114l96 -44
q-26 -60 -40 -105.5z" />
    <glyph glyph-name="uni06C1" unicode="&#x6c1;" horiz-adv-x="476" 
d="M93.5 46q-51.5 50 -51.5 129q0 31 9 65q15 62 51.5 114.5t91.5 105.5l66 -90q-112 -94 -113 -157q-2 -34 23 -53t75 -19q40 0 66.5 15t31.5 39q-10 49 -67.5 103.5t-170.5 124.5l76 113q132 -80 199 -161.5t67 -172.5q0 -61 -27.5 -107.5t-75 -72.5t-106.5 -26
q-93 0 -144.5 50z" />
    <glyph glyph-name="uni06C2" unicode="&#x6c2;" horiz-adv-x="476" 
d="M93.5 46q-51.5 50 -51.5 129q0 31 9 65q15 62 51.5 114.5t91.5 105.5l66 -90q-112 -94 -113 -157q-2 -34 23 -53t75 -19q40 0 66.5 15t31.5 39q-10 49 -67.5 103.5t-170.5 124.5l76 113q132 -80 199 -161.5t67 -172.5q0 -61 -27.5 -107.5t-75 -72.5t-106.5 -26
q-93 0 -144.5 50zM161 663q-31 28 -31 71q0 34 21.5 63.5t53.5 37.5q14 3 27 3q29 0 70 -13l-17 -68q-30 11 -54 11q-23 0 -35.5 -13.5t-9.5 -28.5q3 -12 14.5 -21t31.5 -9q4 0 18 2l-12 -69q-46 6 -77 34zM98 653l220 67v-67l-220 -68v68z" />
    <glyph glyph-name="uni06C3" unicode="&#x6c3;" horiz-adv-x="476" 
d="M93.5 46q-51.5 50 -51.5 129q0 31 9 65q15 62 51.5 114.5t91.5 105.5l66 -90q-112 -94 -113 -157q-2 -34 23 -53t75 -19q40 0 66.5 15t31.5 39q-10 49 -67.5 103.5t-170.5 124.5l76 113q132 -80 199 -161.5t67 -172.5q0 -61 -27.5 -107.5t-75 -72.5t-106.5 -26
q-93 0 -144.5 50zM160 755l84 -84l-84 -85l-28 28l-57 57zM336 755l84 -84l-84 -85l-28 28l-57 57z" />
    <glyph glyph-name="uni06C9" unicode="&#x6c9;" horiz-adv-x="500" 
d="M281 -74q77 52 77 134q-1 59 -17 115.5t-44.5 92.5t-63.5 36q-20 0 -37.5 -15t-28 -37t-10.5 -41q0 -16 8 -27q15 -20 55.5 -30.5t91.5 -10.5q38 0 75 6v-139q-49 -12 -101 -12q-73 0 -131 25.5t-82 76.5q-18 39 -18 86q0 59 25 117.5t69 96t96 37.5q60 0 109 -52
t77 -136t28 -175q0 -140 -101 -236t-279 -130l-46 129q171 37 248 89zM246 539q-16 34 -23 61q-8 -26 -24 -57.5t-28 -47.5l-43 42q20 29 41.5 71t31.5 73l48 -16q12 -33 32 -72t38 -67l-44 -40q-13 19 -29 53z" />
    <glyph glyph-name="uni0649.fina.001" horiz-adv-x="707" 
d="M194 -255q-71 34 -112 100t-41 159q0 61 21.5 132.5t48.5 127.5l96 -44q-26 -59 -40 -104t-14 -92q0 -83 52 -123.5t150 -40.5q54 0 102.5 12t83 30t47.5 36q-18 17 -76 48.5t-120 54.5l31 140q87 -17 151 -24.5t126 -7.5h15l8 -75l-8 -74h-15q-63 1 -128 10.5t-160 26.5
q-6 2 -20 4l32 91q7 -3 76 -32t130.5 -76.5t61.5 -92.5q1 -50 -44 -101.5t-122.5 -85t-170.5 -33.5q-90 0 -161 34z" />
    <glyph glyph-name="uni064A.fina.001" horiz-adv-x="707" 
d="M194 -255q-71 34 -112 100t-41 159q0 61 21.5 132.5t48.5 127.5l96 -44q-26 -59 -40 -104t-14 -92q0 -83 52 -123.5t150 -40.5q54 0 102.5 12t83 30t47.5 36q-18 17 -76 48.5t-120 54.5l31 140q87 -17 151 -24.5t126 -7.5h15l8 -75l-8 -74h-15q-63 1 -128 10.5t-160 26.5
q-6 2 -20 4l32 91q7 -3 76 -32t130.5 -76.5t61.5 -92.5q1 -50 -44 -101.5t-122.5 -85t-170.5 -33.5q-90 0 -161 34zM432 -525l-84 84l84 85l28 -28l57 -57zM256 -525l-84 84l84 85l28 -28l57 -57z" />
    <glyph glyph-name="uni064A.medi.001" horiz-adv-x="395" 
d="M286 34q-44 34 -61 103q-12 46 -21 97q-6 25 -11 49t-10 46l99 34q22 -92 37 -150q10 -34 28 -49t48 -15h5l8 -75l-8 -74h-4q-66 0 -110 34zM-5 149h6q100 0 152.5 15t62.5 48l95 -19q-14 -102 -86 -147.5t-223 -45.5h-7v149zM195 -254l-84 84l84 85l28 -28l57 -57z
M19 -254l-84 84l84 85l28 -28l57 -57z" />
    <glyph glyph-name="uni064A.medi.alt" horiz-adv-x="390" 
d="M-5 149h7q90 0 134 9.5t58 28.5t14 55q0 29 -10 95l103 20q14 -73 14 -165q4 -17 22 -30t52 -13h6l8 -75l-8 -74h-6q-46 0 -85 25.5t-61 64.5l25 -5q-27 -46 -87.5 -65.5t-178.5 -19.5h-7v149zM258 -255l-84 84l84 85l28 -28l57 -57zM82 -255l-84 84l84 85l28 -28l57 -57
z" />
    <glyph glyph-name="uni064A.medi.alt.001" horiz-adv-x="395" 
d="M286 34q-44 34 -61 103q-12 46 -21 97q-6 25 -11 49t-10 46l99 34q22 -92 37 -150q10 -34 28 -49t48 -15h5l8 -75l-8 -74h-4q-66 0 -110 34zM-5 149h6q100 0 152.5 15t62.5 48l95 -19q-14 -102 -86 -147.5t-223 -45.5h-7v149zM258 -254l-84 84l84 85l28 -28l57 -57z
M82 -254l-84 84l84 85l28 -28l57 -57z" />
    <glyph glyph-name="uni064A.init.alt" horiz-adv-x="414" 
d="M33 149h48q99 0 140 17t41 52q-1 22 -23 84.5t-32 83.5l106 58q20 -42 40 -111.5t20 -121.5q-1 -102 -69 -156.5t-201 -54.5h-70v149zM257 -253l-84 84l84 85l28 -28l57 -57zM81 -253l-84 84l84 85l28 -28l57 -57zM-3 0l-8 74l8 75h49v-149h-49z" />
    <glyph glyph-name="uni0626.fina.001" horiz-adv-x="707" 
d="M194 -255q-71 34 -112 100t-41 159q0 61 21.5 132.5t48.5 127.5l96 -44q-26 -59 -40 -104t-14 -92q0 -83 52 -123.5t150 -40.5q54 0 102.5 12t83 30t47.5 36q-18 17 -76 48.5t-120 54.5l31 140q87 -17 151 -24.5t126 -7.5h15l8 -75l-8 -74h-15q-63 1 -128 10.5t-160 26.5
q-6 2 -20 4l32 91q7 -3 76 -32t130.5 -76.5t61.5 -92.5q1 -50 -44 -101.5t-122.5 -85t-170.5 -33.5q-90 0 -161 34zM209 396q-31 28 -31 71q0 34 21.5 63.5t53.5 37.5q14 3 27 3q29 0 70 -13l-17 -68q-30 11 -54 11q-23 0 -35.5 -13.5t-9.5 -28.5q3 -12 14.5 -21t31.5 -9
q4 0 18 2l-12 -69q-46 6 -77 34zM146 386l220 67v-67l-220 -68v68z" />
    <glyph glyph-name="uni0626.medi.001" horiz-adv-x="337" 
d="M228 34q-44 34 -62 103l-19 87l-23 105l100 34q22 -92 37 -150q10 -34 28 -49t48 -15h5l8 -75l-8 -74h-5q-65 0 -109 34zM-5 149h6q74 0 113 16.5t43 46.5l96 -19q-14 -100 -75.5 -146.5t-175.5 -46.5h-7v149zM77 498q-31 28 -31 71q0 34 21.5 63.5t53.5 37.5q14 3 27 3
q29 0 70 -13l-17 -68q-30 11 -54 11q-23 0 -35.5 -13.5t-9.5 -28.5q3 -12 14.5 -21t31.5 -9q4 0 18 2l-12 -69q-46 6 -77 34zM14 488l220 67v-67l-220 -68v68z" />
    <glyph glyph-name="uni06CE" unicode="&#x6ce;" horiz-adv-x="769" 
d="M187 -202q-73 37 -112.5 109.5t-32.5 173.5q6 96 68 233l97 -44q-27 -61 -40.5 -105.5t-13.5 -90.5q0 -83 51.5 -124t150.5 -41q81 0 145 28.5t92 71.5q1 3 -63 19l-53 15q-79 23 -112 55t-33 90q0 81 41 155t108 120t142 46q30 0 61 -8.5t43 -20.5l-42 -129q-10 4 -29 7
t-34 3q-41 0 -78.5 -17.5t-63.5 -46t-35 -61.5q-1 -4 -1 -10q0 -17 23.5 -29.5t88.5 -27.5q91 -21 123.5 -52.5t32.5 -73.5q0 -73 -47 -138t-128.5 -104.5t-180.5 -39.5q-95 0 -168 37zM298 476q-20 -39 -32 -72l-48 -16q-10 31 -31.5 73t-41.5 71l43 42q12 -16 28 -47.5
t24 -57.5q7 27 23 61t29 53l44 -40q-18 -28 -38 -67z" />
    <glyph glyph-name="uni06CE.fina.001" horiz-adv-x="707" 
d="M194 -255q-71 34 -112 100t-41 159q0 61 21.5 132.5t48.5 127.5l96 -44q-26 -59 -40 -104t-14 -92q0 -83 52 -123.5t150 -40.5q54 0 102.5 12t83 30t47.5 36q-18 17 -76 48.5t-120 54.5l31 140q87 -17 151 -24.5t126 -7.5h15l8 -75l-8 -74h-15q-63 1 -128 10.5t-160 26.5
q-6 2 -20 4l32 91q7 -3 76 -32t130.5 -76.5t61.5 -92.5q1 -50 -44 -101.5t-122.5 -85t-170.5 -33.5q-90 0 -161 34zM334 359q-20 -39 -32 -72l-48 -16q-10 31 -31.5 73t-41.5 71l43 42q12 -16 28 -47.5t24 -57.5q7 27 23 61t29 53l44 -40q-18 -28 -38 -67z" />
    <glyph glyph-name="uni06CE.medi.001" horiz-adv-x="395" 
d="M220 500q-20 -39 -32 -72l-48 -16q-10 31 -31.5 73t-41.5 71l43 42q12 -16 28 -47.5t24 -57.5q7 27 23 61t29 53l44 -40q-18 -28 -38 -67zM286 34q-44 34 -61 103q-12 46 -21 97q-6 25 -11 49t-10 46l99 34q22 -92 37 -150q10 -34 28 -49t48 -15h5l8 -75l-8 -74h-4
q-66 0 -110 34zM-5 149h6q100 0 152.5 15t62.5 48l95 -19q-14 -102 -86 -147.5t-223 -45.5h-7v149zM195 -254l-84 84l84 85l28 -28l57 -57zM19 -254l-84 84l84 85l28 -28l57 -57z" />
    <glyph glyph-name="uni06CE.medi.alt" horiz-adv-x="390" 
d="M224 500q-20 -39 -32 -72l-48 -16q-10 31 -31.5 73t-41.5 71l43 42q12 -16 28 -47.5t24 -57.5q7 27 23 61t29 53l44 -40q-18 -28 -38 -67zM-5 149h7q90 0 134 9.5t58 28.5t14 55q0 29 -10 95l103 20q14 -73 14 -165q4 -17 22 -30t52 -13h6l8 -75l-8 -74h-6
q-46 0 -85 25.5t-61 64.5l25 -5q-27 -46 -87.5 -65.5t-178.5 -19.5h-7v149zM258 -255l-84 84l84 85l28 -28l57 -57zM82 -255l-84 84l84 85l28 -28l57 -57z" />
    <glyph glyph-name="uni06CE.medi.alt.001" horiz-adv-x="395" 
d="M220 499q-20 -39 -32 -72l-48 -16q-10 31 -31.5 73t-41.5 71l43 42q12 -16 28 -47.5t24 -57.5q7 27 23 61t29 53l44 -40q-18 -28 -38 -67zM286 34q-44 34 -61 103q-12 46 -21 97q-6 25 -11 49t-10 46l99 34q22 -92 37 -150q10 -34 28 -49t48 -15h5l8 -75l-8 -74h-4
q-66 0 -110 34zM-5 149h6q100 0 152.5 15t62.5 48l95 -19q-14 -102 -86 -147.5t-223 -45.5h-7v149zM258 -254l-84 84l84 85l28 -28l57 -57zM82 -254l-84 84l84 85l28 -28l57 -57z" />
    <glyph glyph-name="uni06CE.init.alt" horiz-adv-x="414" 
d="M225 609q-20 -39 -32 -72l-48 -16q-10 31 -31.5 73t-41.5 71l43 42q12 -16 28 -47.5t24 -57.5q7 27 23 61t29 53l44 -40q-18 -28 -38 -67zM33 149h48q99 0 140 17t41 52q-1 22 -23 84.5t-32 83.5l106 58q20 -42 40 -111.5t20 -121.5q-1 -102 -69 -156.5t-201 -54.5h-70
v149zM257 -253l-84 84l84 85l28 -28l57 -57zM81 -253l-84 84l84 85l28 -28l57 -57zM-3 0l-8 74l8 75h49v-149h-49z" />
    <glyph glyph-name="uni06CC.fina.001" horiz-adv-x="707" 
d="M194 -255q-71 34 -112 100t-41 159q0 61 21.5 132.5t48.5 127.5l96 -44q-26 -59 -40 -104t-14 -92q0 -83 52 -123.5t150 -40.5q54 0 102.5 12t83 30t47.5 36q-18 17 -76 48.5t-120 54.5l31 140q87 -17 151 -24.5t126 -7.5h15l8 -75l-8 -74h-15q-63 1 -128 10.5t-160 26.5
q-6 2 -20 4l32 91q7 -3 76 -32t130.5 -76.5t61.5 -92.5q1 -50 -44 -101.5t-122.5 -85t-170.5 -33.5q-90 0 -161 34z" />
    <glyph glyph-name="uni06CC.medi.001" horiz-adv-x="395" 
d="M286 34q-44 34 -61 103q-12 46 -21 97q-6 25 -11 49t-10 46l99 34q22 -92 37 -150q10 -34 28 -49t48 -15h5l8 -75l-8 -74h-4q-66 0 -110 34zM-5 149h6q100 0 152.5 15t62.5 48l95 -19q-14 -102 -86 -147.5t-223 -45.5h-7v149zM195 -254l-84 84l84 85l28 -28l57 -57z
M19 -254l-84 84l84 85l28 -28l57 -57z" />
    <glyph glyph-name="uni06CC.medi.alt" horiz-adv-x="390" 
d="M-5 149h7q90 0 134 9.5t58 28.5t14 55q0 29 -10 95l103 20q14 -73 14 -165q4 -17 22 -30t52 -13h6l8 -75l-8 -74h-6q-46 0 -85 25.5t-61 64.5l25 -5q-27 -46 -87.5 -65.5t-178.5 -19.5h-7v149zM258 -255l-84 84l84 85l28 -28l57 -57zM82 -255l-84 84l84 85l28 -28l57 -57
z" />
    <glyph glyph-name="uni06CC.medi.alt.001" horiz-adv-x="395" 
d="M286 34q-44 34 -61 103q-12 46 -21 97q-6 25 -11 49t-10 46l99 34q22 -92 37 -150q10 -34 28 -49t48 -15h5l8 -75l-8 -74h-4q-66 0 -110 34zM-5 149h6q100 0 152.5 15t62.5 48l95 -19q-14 -102 -86 -147.5t-223 -45.5h-7v149zM258 -254l-84 84l84 85l28 -28l57 -57z
M82 -254l-84 84l84 85l28 -28l57 -57z" />
    <glyph glyph-name="uni06CC.init.alt" horiz-adv-x="414" 
d="M33 149h48q99 0 140 17t41 52q-1 22 -23 84.5t-32 83.5l106 58q20 -42 40 -111.5t20 -121.5q-1 -102 -69 -156.5t-201 -54.5h-70v149zM257 -253l-84 84l84 85l28 -28l57 -57zM81 -253l-84 84l84 85l28 -28l57 -57zM-3 0l-8 74l8 75h49v-149h-49z" />
    <glyph glyph-name="uni06D2.fina.alt" horiz-adv-x="460" 
d="M53 -141q0 77 45 143.5t123.5 106.5t174.5 40h69l8 -75l-8 -74h-69q-68 0 -120.5 -19t-82 -42.5t-31.5 -33.5q3 -3 25 -9.5t58 -11.5t81 -5l121 1l-51 -149l-87 -1q-94 0 -151.5 17t-96.5 52q-8 32 -8 60z" />
    <glyph glyph-name="uni06D3.fina.alt" horiz-adv-x="460" 
d="M53 -141q0 77 45 143.5t123.5 106.5t174.5 40h69l8 -75l-8 -74h-69q-68 0 -120.5 -19t-82 -42.5t-31.5 -33.5q3 -3 25 -9.5t58 -11.5t81 -5l121 1l-51 -149l-87 -1q-94 0 -151.5 17t-96.5 52q-8 32 -8 60zM160 243q-31 28 -31 71q0 34 21.5 63.5t53.5 37.5q14 3 27 3
q29 0 70 -13l-17 -68q-30 11 -54 11q-23 0 -35.5 -13.5t-9.5 -28.5q3 -12 14.5 -21t31.5 -9q4 0 18 2l-12 -69q-46 6 -77 34zM97 233l220 67v-67l-220 -68v68z" />
    <glyph glyph-name="uni06D3.fina.alt2" horiz-adv-x="413" 
d="M51 -141q0 76 45.5 143t125 107t175.5 40h21l8 -75l-8 -74h-21q-69 0 -121 -19t-82 -42.5t-33 -34.5q10 -6 60.5 -15.5t132.5 -9.5q105 0 239 3l-51 -149q-83 -3 -188 -3q-130 0 -196.5 17t-98.5 52q-8 32 -8 60zM174 256q-31 28 -31 71q0 34 21.5 63.5t53.5 37.5
q14 3 27 3q29 0 70 -13l-17 -68q-30 11 -54 11q-23 0 -35.5 -13.5t-9.5 -28.5q3 -12 14.5 -21t31.5 -9q4 0 18 2l-12 -69q-46 6 -77 34zM111 246l220 67v-67l-220 -68v68z" />
    <glyph glyph-name="uni06D5" unicode="&#x6d5;" horiz-adv-x="476" 
d="M93.5 46q-51.5 50 -51.5 129q0 31 9 65q15 62 51.5 114.5t91.5 105.5l66 -90q-112 -94 -113 -157q-2 -34 23 -53t75 -19q40 0 66.5 15t31.5 39q-10 49 -67.5 103.5t-170.5 124.5l76 113q132 -80 199 -161.5t67 -172.5q0 -61 -27.5 -107.5t-75 -72.5t-106.5 -26
q-93 0 -144.5 50z" />
    <glyph glyph-name="uni0640" unicode="&#x640;" horiz-adv-x="198" 
d="M-5 149h208l8 -75l-8 -74h-208v149z" />
    <glyph glyph-name="uni0640.001" horiz-adv-x="42" 
d="M-3 0l-8 74l8 75h49v-149h-49z" />
    <glyph glyph-name="uni06B50627" horiz-adv-x="589" 
d="M546 300q-1 -103 -63 -176t-163.5 -111t-221.5 -42l-35 137q107 9 184.5 27t127.5 57t50 106q-1 100 -9 188t-24 227l125 27q32 -243 29 -440zM238.5 425.5q30.5 -106.5 30.5 -190.5q0 -68 -19 -113l-103 -15q15 32 15 78q0 129 -118 395l105 73q59 -121 89.5 -227.5z
M515 859q-20 -39 -32 -72l-48 -16q-10 31 -31.5 73t-41.5 71l43 42q12 -16 28 -47.5t24 -57.5q7 27 23 61t29 53l44 -40q-18 -28 -38 -67z" />
    <glyph glyph-name="uni06B50627.fina" horiz-adv-x="659" 
d="M507 66.5q-45 66.5 -49 184.5q-1 30 8.5 54t24.5 37.5t29 13.5q11 0 18 -9t7 -27q1 -68 10.5 -104t32 -51.5t65.5 -15.5h11v-149h-13q-99 0 -144 66.5zM546 300q-1 -103 -63 -176t-163.5 -111t-221.5 -42l-35 137q107 9 184.5 27t127.5 57t50 106q-1 100 -9 188t-24 227
l125 27q32 -243 29 -440zM238.5 425.5q30.5 -106.5 30.5 -190.5q0 -68 -19 -113l-103 -15q15 32 15 78q0 129 -118 395l105 73q59 -121 89.5 -227.5zM516 859q-20 -39 -32 -72l-48 -16q-10 31 -31.5 73t-41.5 71l43 42q12 -16 28 -47.5t24 -57.5q7 27 23 61t29 53l44 -40
q-18 -28 -38 -67z" />
    <glyph glyph-name="uni066B" unicode="&#x66b;" horiz-adv-x="386" 
d="M34 -35l216 494h109l-216 -494h-109z" />
    <glyph glyph-name="uni066C" unicode="&#x66c;" horiz-adv-x="243" 
d="M23 -131l73 238h122v0l-106 -238h-89v0z" />
    <glyph glyph-name="uni0660" unicode="&#x660;" horiz-adv-x="419" 
d="M330 197l-127 -127l-127 127l127 127z" />
    <glyph glyph-name="uni0661" unicode="&#x661;" horiz-adv-x="348" 
d="M142 80q0 161 -17 291q-22 163 -75 285l111 67q62 -126 85 -333q12 -120 12 -267q0 -41 -2 -123h-115q1 27 1 80z" />
    <glyph glyph-name="uni0662" unicode="&#x662;" horiz-adv-x="552" 
d="M219 580q13 -24 36 -39t60 -15q96 0 96 124q0 24 -3 51l105 21q9 -43 9 -87q0 -70 -23 -128.5t-69.5 -94t-112.5 -35.5q-146 0 -227 222l97 54q19 -49 32 -73zM140 80q0 154 -18 291q-22 163 -75 285l111 67q62 -126 85 -333q12 -107 12 -267q0 -82 -2 -123h-115
q2 54 2 80z" />
    <glyph glyph-name="uni0663" unicode="&#x663;" horiz-adv-x="709" 
d="M489 567q15 -35 43 -35q18 0 28.5 19t10.5 55t-12 87l102 34q18 -66 18 -127q0 -93 -39.5 -152.5t-106.5 -59.5q-72 0 -114.5 79.5t-52.5 196.5l100 17q8 -79 23 -114zM236.5 553.5q21.5 -28.5 59.5 -28.5q31 0 51 28t20 83q0 18 -1 28l94 5q1 -12 1 -36
q0 -70 -19 -128.5t-54 -93t-82 -34.5q-74 0 -123.5 53.5t-87.5 161.5l93 60q27 -70 48.5 -98.5zM139 23l1 57q0 165 -18 291q-22 163 -75 285l111 67q62 -126 85 -333q12 -107 12 -267q0 -82 -2 -123h-115q1 8 1 23z" />
    <glyph glyph-name="uni0664" unicode="&#x664;" horiz-adv-x="490" 
d="M283 -4q-81 0 -139 39.5t-70 113.5q-2 9 -2 28q0 53 30.5 104.5t88 92.5t136.5 62l18 -132q-37 -10 -77 -10q-62 0 -114 24t-83 66.5t-31 96.5q0 56 34.5 105t92.5 83.5t125 49.5l34 -134q-61 -15 -114.5 -45.5t-62.5 -58.5q5 -22 36.5 -35.5t83.5 -13.5q30 0 58 4
l18 -132q-77 -20 -121 -53.5t-44 -66.5q0 -8 1 -11q4 -17 24.5 -25.5t51.5 -8.5q33 0 72.5 10t74.5 28l49 -136q-81 -45 -170 -45z" />
    <glyph glyph-name="uni0665" unicode="&#x665;" horiz-adv-x="524" 
d="M146 33q-50 36 -78 100t-28 144q0 87 30.5 174.5t82.5 144.5t111 57q65 0 116.5 -60.5t79.5 -149t24 -165.5q-4 -80 -31.5 -143.5t-76.5 -100.5t-116 -37q-64 0 -114 36zM344.5 182q35.5 34 42.5 89q1 5 1 17q0 41 -18.5 92.5t-49 88t-63.5 37.5q-28 0 -57.5 -39
t-47.5 -95.5t-14 -102.5q6 -58 39.5 -89.5t82.5 -31.5t84.5 34z" />
    <glyph glyph-name="uni0666" unicode="&#x666;" horiz-adv-x="574" 
d="M342 183.5q-25 118.5 -25 238.5q0 102 18 187l40 -69q-23 -15 -67 -22.5t-97 -7.5q-56 0 -105 8t-72 23l36 135q64 -19 147 -19q76 0 146 15l73 -88q-5 -63 -5 -109q0 -111 22 -213t66 -207l-107 -77q-45 87 -70 205.5z" />
    <glyph glyph-name="uni0667" unicode="&#x667;" horiz-adv-x="644" 
d="M532.5 468q-50.5 -109 -94.5 -234t-62 -234h-108q-13 108 -56.5 233t-96 233.5t-94.5 174.5l105 78q45 -71 94 -184.5t91.5 -249t64.5 -266.5h-107q35 197 107.5 395t141.5 305l105 -78q-40 -64 -90.5 -173z" />
    <glyph glyph-name="uni0668" unicode="&#x668;" horiz-adv-x="644" 
d="M111.5 230q50.5 109 94.5 234t62 234h108q13 -108 56.5 -233t96 -233.5t94.5 -174.5l-105 -78q-45 71 -94 184.5t-91.5 249t-64.5 266.5h107q-35 -197 -107.5 -395t-141.5 -305l-105 78q40 64 90.5 173z" />
    <glyph glyph-name="uni0669" unicode="&#x669;" horiz-adv-x="542" 
d="M334.5 151q-17.5 124 -23.5 248q-2 69 -24 128t-68 59q-31 0 -52.5 -29.5t-21.5 -67.5q0 -26 20 -42t63 -16q52 0 77.5 11.5t41.5 24.5l43 -138q-64 -46 -167 -46q-86 0 -135 51.5t-49 144.5q0 56 24.5 113t67 94.5t93.5 37.5q74 0 114.5 -53.5t53.5 -112t26 -149.5
l5 -38q17 -124 31 -206t33 -128l-110 -68q-25 58 -42.5 182z" />
    <glyph glyph-name="uni06F0" unicode="&#x6f0;" horiz-adv-x="478" 
d="M142 53q-40 24 -64 64t-24 87t24 87.5t64 64t87 23.5q48 0 88.5 -23.5t64.5 -63.5t24 -88q0 -47 -24 -87t-64.5 -64t-88.5 -24q-47 0 -87 24zM274.5 157q18.5 19 18.5 47t-18.5 46.5t-45.5 18.5q-26 0 -44.5 -19t-18.5 -46q0 -28 18.5 -47t44.5 -19q27 0 45.5 19z" />
    <glyph glyph-name="uni06F1" unicode="&#x6f1;" horiz-adv-x="348" 
d="M142 80q0 161 -17 291q-22 163 -75 285l111 67q62 -126 85 -333q12 -120 12 -267q0 -41 -2 -123h-115q1 27 1 80z" />
    <glyph glyph-name="uni06F2" unicode="&#x6f2;" horiz-adv-x="552" 
d="M219 580q13 -24 36 -39t60 -15q96 0 96 124q0 24 -3 51l105 21q9 -43 9 -87q0 -70 -23 -128.5t-69.5 -94t-112.5 -35.5q-146 0 -227 222l97 54q19 -49 32 -73zM140 80q0 154 -18 291q-22 163 -75 285l111 67q62 -126 85 -333q12 -107 12 -267q0 -82 -2 -123h-115
q2 54 2 80z" />
    <glyph glyph-name="uni06F3" unicode="&#x6f3;" horiz-adv-x="709" 
d="M489 567q15 -35 43 -35q18 0 28.5 19t10.5 55t-12 87l102 34q18 -66 18 -127q0 -93 -39.5 -152.5t-106.5 -59.5q-72 0 -114.5 79.5t-52.5 196.5l100 17q8 -79 23 -114zM236.5 553.5q21.5 -28.5 59.5 -28.5q31 0 51 28t20 83q0 18 -1 28l94 5q1 -12 1 -36
q0 -70 -19 -128.5t-54 -93t-82 -34.5q-74 0 -123.5 53.5t-87.5 161.5l93 60q27 -70 48.5 -98.5zM139 23l1 57q0 165 -18 291q-22 163 -75 285l111 67q62 -126 85 -333q12 -107 12 -267q0 -82 -2 -123h-115q1 8 1 23z" />
    <glyph glyph-name="uni06F4" unicode="&#x6f4;" horiz-adv-x="686" 
d="M298.5 456.5q66.5 -48.5 152.5 -48.5q45 0 91 11t85 29l31 -131q-89 -44 -172 -44q-71 0 -126 30t-86.5 77t-35.5 97q-4 62 24.5 119t81 92t114.5 35q90 0 185 -77l-50 -102q-69 29 -122 29q-54 0 -89.5 -23.5t-35.5 -60.5q0 -31 34.5 -54t92.5 -23q68 0 154 36l31 -131
q-44 -22 -98 -36t-109 -14q-111 0 -202.5 65t-139.5 214l93 70q30 -111 96.5 -159.5zM142 80q0 161 -17 291q-22 163 -75 285l111 67q62 -126 85 -333q12 -120 12 -267q0 -41 -2 -123h-115q1 27 1 80z" />
    <glyph glyph-name="uni06F5" unicode="&#x6f5;" horiz-adv-x="642" 
d="M211 416q-49 -80 -61 -157q-3 -18 -3 -33q0 -42 18 -64t50 -22q35 0 50 34.5t15 68.5l90 15q3 -43 16.5 -80.5t47.5 -37.5q64 0 64 88q0 99 -94.5 197t-238.5 183l73 127q158 -111 262 -242t104 -287q0 -65 -20 -113.5t-56 -75t-82 -26.5q-65 0 -113 58t-53 194l90 15
q-4 -146 -45 -206.5t-116 -60.5q-78 0 -124.5 60t-46.5 157q0 12 2 40q11 109 82 228.5t156 201.5l61 -106q-79 -76 -128 -156z" />
    <glyph glyph-name="uni06F6" unicode="&#x6f6;" horiz-adv-x="570" 
d="M227.5 321.5q128.5 118.5 277.5 179.5l26 -147q-117 -44 -225 -141.5t-165 -237.5l-102 50q60 178 188.5 296.5zM290 273q-61 0 -107 30.5t-70 79t-24 102.5q0 52 22.5 102.5t68.5 87.5t112 47q16 2 25 2q42 0 86 -17t70 -38l-49 -102q-40 17 -84 17q-22 0 -34 -2
q-50 -6 -79.5 -35.5t-28.5 -61.5q0 -23 27.5 -41.5t71.5 -18.5q53 0 111 29l24 -143q-75 -38 -142 -38z" />
    <glyph glyph-name="uni06F7" unicode="&#x6f7;" horiz-adv-x="644" 
d="M532.5 468q-50.5 -109 -94.5 -234t-62 -234h-108q-13 108 -56.5 233t-96 233.5t-94.5 174.5l105 78q45 -71 94 -184.5t91.5 -249t64.5 -266.5h-107q35 197 107.5 395t141.5 305l105 -78q-40 -64 -90.5 -173z" />
    <glyph glyph-name="uni06F8" unicode="&#x6f8;" horiz-adv-x="644" 
d="M111.5 230q50.5 109 94.5 234t62 234h108q13 -108 56.5 -233t96 -233.5t94.5 -174.5l-105 -78q-45 71 -94 184.5t-91.5 249t-64.5 266.5h107q-35 -197 -107.5 -395t-141.5 -305l-105 78q40 64 90.5 173z" />
    <glyph glyph-name="uni06F9" unicode="&#x6f9;" horiz-adv-x="542" 
d="M334.5 151q-17.5 124 -23.5 248q-2 69 -24 128t-68 59q-31 0 -52.5 -29.5t-21.5 -67.5q0 -26 20 -42t63 -16q52 0 77.5 11.5t41.5 24.5l43 -138q-64 -46 -167 -46q-86 0 -135 51.5t-49 144.5q0 56 24.5 113t67 94.5t93.5 37.5q74 0 114.5 -53.5t53.5 -112t26 -149.5
l5 -38q17 -124 31 -206t33 -128l-110 -68q-25 58 -42.5 182z" />
    <glyph glyph-name="uni0664.ss03" horiz-adv-x="680" 
d="M290.5 456.5q66.5 -48.5 152.5 -48.5q45 0 91 11t85 29l31 -131q-89 -44 -172 -44q-71 0 -126 30t-86.5 77t-35.5 97q-4 62 24.5 119t81 92t114.5 35q90 0 185 -77l-50 -102q-69 29 -122 29q-54 0 -89.5 -23.5t-35.5 -60.5q0 -31 34.5 -54t92.5 -23q68 0 154 36l31 -131
q-44 -22 -98 -36t-109 -14q-111 0 -202.5 65t-139.5 214l93 70q30 -111 96.5 -159.5zM134 80q0 161 -17 291q-22 163 -75 285l111 67q62 -126 85 -333q12 -120 12 -267q0 -41 -2 -123h-115q1 27 1 80z" />
    <glyph glyph-name="uni0665.ss03" horiz-adv-x="680" 
d="M227 416q-49 -80 -61 -157q-3 -18 -3 -33q0 -42 18 -64t50 -22q35 0 50 34.5t15 68.5l90 15q3 -43 16.5 -80.5t47.5 -37.5q64 0 64 88q0 99 -94.5 197t-238.5 183l73 127q158 -111 262 -242t104 -287q0 -65 -20 -113.5t-56 -75t-82 -26.5q-65 0 -113 58t-53 194l90 15
q-4 -146 -45 -206.5t-116 -60.5q-78 0 -124.5 60t-46.5 157q0 12 2 40q11 109 82 228.5t156 201.5l61 -106q-79 -76 -128 -156z" />
    <glyph glyph-name="uni0666.ss03" horiz-adv-x="680" 
d="M282.5 321.5q128.5 118.5 277.5 179.5l26 -147q-117 -44 -225 -141.5t-165 -237.5l-102 50q60 178 188.5 296.5zM345 273q-61 0 -107 30.5t-70 79t-24 102.5q0 52 22.5 102.5t68.5 87.5t112 47q16 2 25 2q42 0 86 -17t70 -38l-49 -102q-40 17 -84 17q-22 0 -34 -2
q-50 -6 -79.5 -35.5t-28.5 -61.5q0 -23 27.5 -41.5t71.5 -18.5q53 0 111 29l24 -143q-75 -38 -142 -38z" />
    <glyph glyph-name="uni06F0.ss03" horiz-adv-x="680" 
d="M248 53q-40 24 -64 64t-24 87t24 87.5t64 64t87 23.5q48 0 88.5 -23.5t64.5 -63.5t24 -88q0 -47 -24 -87t-64.5 -64t-88.5 -24q-47 0 -87 24zM380.5 157q18.5 19 18.5 47t-18.5 46.5t-45.5 18.5q-26 0 -44.5 -19t-18.5 -46q0 -28 18.5 -47t44.5 -19q27 0 45.5 19z" />
    <glyph glyph-name="uni06F1.ss03" horiz-adv-x="680" 
d="M296 80q0 161 -17 291q-22 163 -75 285l111 67q62 -126 85 -333q12 -120 12 -267q0 -41 -2 -123h-115q1 27 1 80z" />
    <glyph glyph-name="uni06F2.ss03" horiz-adv-x="680" 
d="M289 580q13 -24 36 -39t60 -15q96 0 96 124q0 24 -3 51l105 21q9 -43 9 -87q0 -70 -23 -128.5t-69.5 -94t-112.5 -35.5q-146 0 -227 222l97 54q19 -49 32 -73zM210 80q0 154 -18 291q-22 163 -75 285l111 67q62 -126 85 -333q12 -107 12 -267q0 -82 -2 -123h-115
q2 54 2 80z" />
    <glyph glyph-name="uni06F3.ss03" horiz-adv-x="680" 
d="M478 567q15 -35 43 -35q18 0 28.5 19t10.5 55t-12 87l102 34q18 -66 18 -127q0 -93 -39.5 -152.5t-106.5 -59.5q-72 0 -114.5 79.5t-52.5 196.5l100 17q8 -79 23 -114zM225.5 553.5q21.5 -28.5 59.5 -28.5q31 0 51 28t20 83q0 18 -1 28l94 5q1 -12 1 -36
q0 -70 -19 -128.5t-54 -93t-82 -34.5q-74 0 -123.5 53.5t-87.5 161.5l93 60q27 -70 48.5 -98.5zM128 23l1 57q0 165 -18 291q-22 163 -75 285l111 67q62 -126 85 -333q12 -107 12 -267q0 -82 -2 -123h-115q1 8 1 23z" />
    <glyph glyph-name="uni06F4.ss03" horiz-adv-x="680" 
d="M289.5 456.5q66.5 -48.5 152.5 -48.5q45 0 91 11t85 29l31 -131q-89 -44 -172 -44q-71 0 -126 30t-86.5 77t-35.5 97q-4 62 24.5 119t81 92t114.5 35q90 0 185 -77l-50 -102q-69 29 -122 29q-54 0 -89.5 -23.5t-35.5 -60.5q0 -31 34.5 -54t92.5 -23q68 0 154 36l31 -131
q-44 -22 -98 -36t-109 -14q-111 0 -202.5 65t-139.5 214l93 70q30 -111 96.5 -159.5zM133 80q0 161 -17 291q-22 163 -75 285l111 67q62 -126 85 -333q12 -120 12 -267q0 -41 -2 -123h-115q1 27 1 80z" />
    <glyph glyph-name="uni06F5.ss03" horiz-adv-x="680" 
d="M228 416q-49 -80 -61 -157q-3 -18 -3 -33q0 -42 18 -64t50 -22q35 0 50 34.5t15 68.5l90 15q3 -43 16.5 -80.5t47.5 -37.5q64 0 64 88q0 99 -94.5 197t-238.5 183l73 127q158 -111 262 -242t104 -287q0 -65 -20 -113.5t-56 -75t-82 -26.5q-65 0 -113 58t-53 194l90 15
q-4 -146 -45 -206.5t-116 -60.5q-78 0 -124.5 60t-46.5 157q0 12 2 40q11 109 82 228.5t156 201.5l61 -106q-79 -76 -128 -156z" />
    <glyph glyph-name="uni06F6.ss03" horiz-adv-x="680" 
d="M284.5 321.5q128.5 118.5 277.5 179.5l26 -147q-117 -44 -225 -141.5t-165 -237.5l-102 50q60 178 188.5 296.5zM347 273q-61 0 -107 30.5t-70 79t-24 102.5q0 52 22.5 102.5t68.5 87.5t112 47q16 2 25 2q42 0 86 -17t70 -38l-49 -102q-40 17 -84 17q-22 0 -34 -2
q-50 -6 -79.5 -35.5t-28.5 -61.5q0 -23 27.5 -41.5t71.5 -18.5q53 0 111 29l24 -143q-75 -38 -142 -38z" />
    <glyph glyph-name="uni06F7.ss03" horiz-adv-x="680" 
d="M537.5 468q-50.5 -109 -94.5 -234t-62 -234h-108q-13 108 -56.5 233t-96 233.5t-94.5 174.5l105 78q45 -71 94 -184.5t91.5 -249t64.5 -266.5h-107q35 197 107.5 395t141.5 305l105 -78q-40 -64 -90.5 -173z" />
    <glyph glyph-name="uni06F8.ss03" horiz-adv-x="680" 
d="M114.5 230q50.5 109 94.5 234t62 234h108q13 -108 56.5 -233t96 -233.5t94.5 -174.5l-105 -78q-45 71 -94 184.5t-91.5 249t-64.5 266.5h107q-35 -197 -107.5 -395t-141.5 -305l-105 78q40 64 90.5 173z" />
    <glyph glyph-name="uni06F9.ss03" horiz-adv-x="680" 
d="M403.5 151q-17.5 124 -23.5 248q-2 69 -24 128t-68 59q-31 0 -52.5 -29.5t-21.5 -67.5q0 -26 20 -42t63 -16q52 0 77.5 11.5t41.5 24.5l43 -138q-64 -46 -167 -46q-86 0 -135 51.5t-49 144.5q0 56 24.5 113t67 94.5t93.5 37.5q74 0 114.5 -53.5t53.5 -112t26 -149.5
l5 -38q17 -124 31 -206t33 -128l-110 -68q-25 58 -42.5 182z" />
    <glyph glyph-name="uni06F4.urdu" horiz-adv-x="623" 
d="M167 91q0 57 -17 104t-53 114q-29 56 -43.5 97.5t-14.5 85.5q0 50 20.5 96t60 75t92.5 29q58 0 105.5 -43t73.5 -117t23 -160l-99 11q3 75 43 148t85 124.5t75 76.5l68 -116q-55 -40 -106 -113t-63 -138l-106 10q-1 38 -14 80t-35 70.5t-46 28.5q-26 0 -42.5 -17.5
t-16.5 -44.5q0 -25 13.5 -58t39.5 -85q26 -55 29 -62q40 -98 40 -191q0 -56 -14 -112l-106 33q8 42 8 74z" />
    <glyph glyph-name="uni06F7.urdu" horiz-adv-x="532" 
d="M400.5 8.5q-63.5 -9.5 -131.5 -9.5q-142 0 -221 42q-12 51 -12 102q0 112 53.5 223t142 207t195.5 168l22 -125q-129 -103 -216.5 -220.5t-85.5 -231.5q48 -17 134 -17q56 0 112 6.5t89 13.5l17 -135q-35 -14 -98.5 -23.5z" />
    <glyph glyph-name="zero" unicode="0" horiz-adv-x="572" 
d="M463.5 68q-60.5 -78 -177.5 -78q-116 0 -176.5 77t-61.5 224v126q0 149 60.5 226.5t176.5 77.5q117 0 177.5 -76.5t61.5 -224.5v-124q0 -150 -60.5 -228zM365 571.5q-25 43.5 -80 43.5q-52 0 -76.5 -42t-25.5 -128v-167q0 -94 25 -138t78 -44q52 0 77 42t27 133v164
q0 93 -25 136.5z" />
    <glyph glyph-name="one" unicode="1" horiz-adv-x="572" 
d="M387 0h-135v556l-170 -55v108l291 103h14v-712z" />
    <glyph glyph-name="two" unicode="2" horiz-adv-x="572" 
d="M534 0h-485v90l236 254q47 53 68 91.5t21 72.5q0 50 -25.5 78.5t-70.5 28.5q-49 0 -78 -34t-29 -91h-136q1 61 29.5 114t83 85t128.5 32q111 0 172.5 -52.5t61.5 -147.5q0 -55 -35.5 -114.5t-120.5 -154.5l-131 -146h311v-106z" />
    <glyph glyph-name="three" unicode="3" horiz-adv-x="572" 
d="M192 414h74q53 1 82 27.5t29 75.5q0 47 -26 72.5t-75 25.5q-43 0 -71 -25t-28 -64h-136q0 48 25.5 92.5t78.5 73.5t131 29q110 0 172.5 -54t62.5 -148q0 -47 -29.5 -88.5t-81.5 -65.5q59 -20 91 -62.5t32 -103.5q0 -63 -31.5 -110t-88 -73t-130.5 -26q-71 0 -125.5 25.5
t-85 71.5t-30.5 107h136q0 -43 30.5 -70.5t77.5 -27.5q52 0 81.5 28t29.5 76q0 110 -119 112h-76v102z" />
    <glyph glyph-name="four" unicode="4" horiz-adv-x="572" 
d="M463 262h83v-105h-83v-157h-135v157h-294l-6 81l297 472l138 1v-449zM163 262h165v271l-11 -18z" />
    <glyph glyph-name="five" unicode="5" horiz-adv-x="572" 
d="M72 351l41 360h395v-110h-285l-18 -162q21 12 50.5 19.5t58.5 7.5q102 0 159 -63t57 -175q0 -70 -28.5 -124t-82 -84t-126.5 -30q-69 0 -123 27t-84.5 73.5t-31.5 105.5h133q4 -48 32 -74t73 -26q50 0 77 35.5t27 102.5q0 63 -31 97.5t-87 34.5q-30 0 -53.5 -9.5
t-44.5 -31.5z" />
    <glyph glyph-name="six" unicode="6" horiz-adv-x="572" 
d="M263 559.5q-62 -50.5 -75 -143.5q58 58 146 58q61 0 106.5 -30t70.5 -84.5t25 -125.5q0 -68 -28.5 -123.5t-82.5 -88t-126 -32.5q-69 0 -126 33.5t-90 97.5t-33 150v53q0 98 34 175q39 104 123.5 161t200.5 57h22v-108q-105 1 -167 -49.5zM227.5 349q-29.5 -20 -42.5 -51
v-43q0 -75 29.5 -117t81.5 -42q47 0 76 38t29 98q0 62 -29.5 99.5t-78.5 37.5q-36 0 -65.5 -20z" />
    <glyph glyph-name="seven" unicode="7" horiz-adv-x="572" 
d="M530 638l-277 -638h-143l277 605h-357v106h500v-73z" />
    <glyph glyph-name="eight" unicode="8" horiz-adv-x="572" 
d="M483.5 430.5q-26.5 -40.5 -72.5 -64.5q54 -25 84 -69.5t30 -102.5q0 -94 -64.5 -149t-173.5 -55q-111 0 -175.5 55t-64.5 149q0 58 30 102.5t84 69.5q-47 24 -73 64.5t-26 92.5q0 91 61 144.5t163 53.5t163 -53.5t61 -144.5q0 -52 -26.5 -92.5zM361.5 282.5
q-28.5 29.5 -75.5 29.5t-75.5 -29.5t-28.5 -79.5t28 -78.5t77 -28.5q47 0 75 29t28 78q0 50 -28.5 79.5zM351 588.5q-24 26.5 -65 26.5t-65 -26t-24 -72q0 -45 24 -72.5t66 -27.5q41 0 64.5 27.5t23.5 72.5t-24 71.5z" />
    <glyph glyph-name="nine" unicode="9" horiz-adv-x="572" 
d="M323.5 246.5q-35.5 -15.5 -73.5 -15.5q-62 0 -109 29.5t-72.5 83.5t-25.5 126q0 73 30.5 130t84.5 89t121 32q72 0 126 -36t84 -101.5t30 -150.5v-49q0 -132 -46 -221q-43 -83 -122.5 -126t-188.5 -43h-14v110h27q193 5 208 186q-24 -28 -59.5 -43.5zM343 351
q27 18 41 48v55q0 76 -28.5 118.5t-76.5 42.5q-45 0 -73 -40.5t-28 -102.5q0 -63 28 -101t76 -38q34 0 61 18z" />
    <glyph glyph-name="zero.ss02" horiz-adv-x="478" 
d="M142 53q-40 24 -64 64t-24 87t24 87.5t64 64t87 23.5q48 0 88.5 -23.5t64.5 -63.5t24 -88q0 -47 -24 -87t-64.5 -64t-88.5 -24q-47 0 -87 24zM274.5 157q18.5 19 18.5 47t-18.5 46.5t-45.5 18.5q-26 0 -44.5 -19t-18.5 -46q0 -28 18.5 -47t44.5 -19q27 0 45.5 19z" />
    <glyph glyph-name="one.ss02" horiz-adv-x="348" 
d="M142 80q0 161 -17 291q-22 163 -75 285l111 67q62 -126 85 -333q12 -120 12 -267q0 -41 -2 -123h-115q1 27 1 80z" />
    <glyph glyph-name="two.ss02" horiz-adv-x="552" 
d="M219 580q13 -24 36 -39t60 -15q96 0 96 124q0 24 -3 51l105 21q9 -43 9 -87q0 -70 -23 -128.5t-69.5 -94t-112.5 -35.5q-146 0 -227 222l97 54q19 -49 32 -73zM140 80q0 154 -18 291q-22 163 -75 285l111 67q62 -126 85 -333q12 -107 12 -267q0 -82 -2 -123h-115
q2 54 2 80z" />
    <glyph glyph-name="three.ss02" horiz-adv-x="709" 
d="M489 567q15 -35 43 -35q18 0 28.5 19t10.5 55t-12 87l102 34q18 -66 18 -127q0 -93 -39.5 -152.5t-106.5 -59.5q-72 0 -114.5 79.5t-52.5 196.5l100 17q8 -79 23 -114zM236.5 553.5q21.5 -28.5 59.5 -28.5q31 0 51 28t20 83q0 18 -1 28l94 5q1 -12 1 -36
q0 -70 -19 -128.5t-54 -93t-82 -34.5q-74 0 -123.5 53.5t-87.5 161.5l93 60q27 -70 48.5 -98.5zM139 23l1 57q0 165 -18 291q-22 163 -75 285l111 67q62 -126 85 -333q12 -107 12 -267q0 -82 -2 -123h-115q1 8 1 23z" />
    <glyph glyph-name="four.ss02" horiz-adv-x="686" 
d="M298.5 456.5q66.5 -48.5 152.5 -48.5q45 0 91 11t85 29l31 -131q-89 -44 -172 -44q-71 0 -126 30t-86.5 77t-35.5 97q-4 62 24.5 119t81 92t114.5 35q90 0 185 -77l-50 -102q-69 29 -122 29q-54 0 -89.5 -23.5t-35.5 -60.5q0 -31 34.5 -54t92.5 -23q68 0 154 36l31 -131
q-44 -22 -98 -36t-109 -14q-111 0 -202.5 65t-139.5 214l93 70q30 -111 96.5 -159.5zM142 80q0 161 -17 291q-22 163 -75 285l111 67q62 -126 85 -333q12 -120 12 -267q0 -41 -2 -123h-115q1 27 1 80z" />
    <glyph glyph-name="five.ss02" horiz-adv-x="642" 
d="M211 416q-49 -80 -61 -157q-3 -18 -3 -33q0 -42 18 -64t50 -22q35 0 50 34.5t15 68.5l90 15q3 -43 16.5 -80.5t47.5 -37.5q64 0 64 88q0 99 -94.5 197t-238.5 183l73 127q158 -111 262 -242t104 -287q0 -65 -20 -113.5t-56 -75t-82 -26.5q-65 0 -113 58t-53 194l90 15
q-4 -146 -45 -206.5t-116 -60.5q-78 0 -124.5 60t-46.5 157q0 12 2 40q11 109 82 228.5t156 201.5l61 -106q-79 -76 -128 -156z" />
    <glyph glyph-name="six.ss02" horiz-adv-x="569" 
d="M227.5 321.5q128.5 118.5 277.5 179.5l26 -147q-117 -44 -225 -141.5t-165 -237.5l-102 50q60 178 188.5 296.5zM290 273q-61 0 -107 30.5t-70 79t-24 102.5q0 52 22.5 102.5t68.5 87.5t112 47q16 2 25 2q42 0 86 -17t70 -38l-49 -102q-40 17 -84 17q-22 0 -34 -2
q-50 -6 -79.5 -35.5t-28.5 -61.5q0 -23 27.5 -41.5t71.5 -18.5q53 0 111 29l24 -143q-75 -38 -142 -38z" />
    <glyph glyph-name="seven.ss02" horiz-adv-x="644" 
d="M532.5 468q-50.5 -109 -94.5 -234t-62 -234h-108q-13 108 -56.5 233t-96 233.5t-94.5 174.5l105 78q45 -71 94 -184.5t91.5 -249t64.5 -266.5h-107q35 197 107.5 395t141.5 305l105 -78q-40 -64 -90.5 -173z" />
    <glyph glyph-name="eight.ss02" horiz-adv-x="644" 
d="M111.5 230q50.5 109 94.5 234t62 234h108q13 -108 56.5 -233t96 -233.5t94.5 -174.5l-105 -78q-45 71 -94 184.5t-91.5 249t-64.5 266.5h107q-35 -197 -107.5 -395t-141.5 -305l-105 78q40 64 90.5 173z" />
    <glyph glyph-name="nine.ss02" horiz-adv-x="542" 
d="M334.5 151q-17.5 124 -23.5 248q-2 69 -24 128t-68 59q-31 0 -52.5 -29.5t-21.5 -67.5q0 -26 20 -42t63 -16q52 0 77.5 11.5t41.5 24.5l43 -138q-64 -46 -167 -46q-86 0 -135 51.5t-49 144.5q0 56 24.5 113t67 94.5t93.5 37.5q74 0 114.5 -53.5t53.5 -112t26 -149.5
l5 -38q17 -124 31 -206t33 -128l-110 -68q-25 58 -42.5 182z" />
    <glyph glyph-name="zero.ss03" horiz-adv-x="680" 
d="M248 53q-40 24 -64 64t-24 87t24 87.5t64 64t87 23.5q48 0 88.5 -23.5t64.5 -63.5t24 -88q0 -47 -24 -87t-64.5 -64t-88.5 -24q-47 0 -87 24zM380.5 157q18.5 19 18.5 47t-18.5 46.5t-45.5 18.5q-26 0 -44.5 -19t-18.5 -46q0 -28 18.5 -47t44.5 -19q27 0 45.5 19z" />
    <glyph glyph-name="one.ss03" horiz-adv-x="680" 
d="M296 80q0 161 -17 291q-22 163 -75 285l111 67q62 -126 85 -333q12 -120 12 -267q0 -41 -2 -123h-115q1 27 1 80z" />
    <glyph glyph-name="two.ss03" horiz-adv-x="680" 
d="M289 580q13 -24 36 -39t60 -15q96 0 96 124q0 24 -3 51l105 21q9 -43 9 -87q0 -70 -23 -128.5t-69.5 -94t-112.5 -35.5q-146 0 -227 222l97 54q19 -49 32 -73zM210 80q0 154 -18 291q-22 163 -75 285l111 67q62 -126 85 -333q12 -107 12 -267q0 -82 -2 -123h-115
q2 54 2 80z" />
    <glyph glyph-name="three.ss03" horiz-adv-x="680" 
d="M478 567q15 -35 43 -35q18 0 28.5 19t10.5 55t-12 87l102 34q18 -66 18 -127q0 -93 -39.5 -152.5t-106.5 -59.5q-72 0 -114.5 79.5t-52.5 196.5l100 17q8 -79 23 -114zM225.5 553.5q21.5 -28.5 59.5 -28.5q31 0 51 28t20 83q0 18 -1 28l94 5q1 -12 1 -36
q0 -70 -19 -128.5t-54 -93t-82 -34.5q-74 0 -123.5 53.5t-87.5 161.5l93 60q27 -70 48.5 -98.5zM128 23l1 57q0 165 -18 291q-22 163 -75 285l111 67q62 -126 85 -333q12 -107 12 -267q0 -82 -2 -123h-115q1 8 1 23z" />
    <glyph glyph-name="four.ss03" horiz-adv-x="680" 
d="M289.5 456.5q66.5 -48.5 152.5 -48.5q45 0 91 11t85 29l31 -131q-89 -44 -172 -44q-71 0 -126 30t-86.5 77t-35.5 97q-4 62 24.5 119t81 92t114.5 35q90 0 185 -77l-50 -102q-69 29 -122 29q-54 0 -89.5 -23.5t-35.5 -60.5q0 -31 34.5 -54t92.5 -23q68 0 154 36l31 -131
q-44 -22 -98 -36t-109 -14q-111 0 -202.5 65t-139.5 214l93 70q30 -111 96.5 -159.5zM133 80q0 161 -17 291q-22 163 -75 285l111 67q62 -126 85 -333q12 -120 12 -267q0 -41 -2 -123h-115q1 27 1 80z" />
    <glyph glyph-name="five.ss03" horiz-adv-x="680" 
d="M228 416q-49 -80 -61 -157q-3 -18 -3 -33q0 -42 18 -64t50 -22q35 0 50 34.5t15 68.5l90 15q3 -43 16.5 -80.5t47.5 -37.5q64 0 64 88q0 99 -94.5 197t-238.5 183l73 127q158 -111 262 -242t104 -287q0 -65 -20 -113.5t-56 -75t-82 -26.5q-65 0 -113 58t-53 194l90 15
q-4 -146 -45 -206.5t-116 -60.5q-78 0 -124.5 60t-46.5 157q0 12 2 40q11 109 82 228.5t156 201.5l61 -106q-79 -76 -128 -156z" />
    <glyph glyph-name="six.ss03" horiz-adv-x="680" 
d="M284.5 321.5q128.5 118.5 277.5 179.5l26 -147q-117 -44 -225 -141.5t-165 -237.5l-102 50q60 178 188.5 296.5zM347 273q-61 0 -107 30.5t-70 79t-24 102.5q0 52 22.5 102.5t68.5 87.5t112 47q16 2 25 2q42 0 86 -17t70 -38l-49 -102q-40 17 -84 17q-22 0 -34 -2
q-50 -6 -79.5 -35.5t-28.5 -61.5q0 -23 27.5 -41.5t71.5 -18.5q53 0 111 29l24 -143q-75 -38 -142 -38z" />
    <glyph glyph-name="seven.ss03" horiz-adv-x="680" 
d="M537.5 468q-50.5 -109 -94.5 -234t-62 -234h-108q-13 108 -56.5 233t-96 233.5t-94.5 174.5l105 78q45 -71 94 -184.5t91.5 -249t64.5 -266.5h-107q35 197 107.5 395t141.5 305l105 -78q-40 -64 -90.5 -173z" />
    <glyph glyph-name="eight.ss03" horiz-adv-x="680" 
d="M114.5 230q50.5 109 94.5 234t62 234h108q13 -108 56.5 -233t96 -233.5t94.5 -174.5l-105 -78q-45 71 -94 184.5t-91.5 249t-64.5 266.5h107q-35 -197 -107.5 -395t-141.5 -305l-105 78q40 64 90.5 173z" />
    <glyph glyph-name="nine.ss03" horiz-adv-x="680" 
d="M403.5 151q-17.5 124 -23.5 248q-2 69 -24 128t-68 59q-31 0 -52.5 -29.5t-21.5 -67.5q0 -26 20 -42t63 -16q52 0 77.5 11.5t41.5 24.5l43 -138q-64 -46 -167 -46q-86 0 -135 51.5t-49 144.5q0 56 24.5 113t67 94.5t93.5 37.5q74 0 114.5 -53.5t53.5 -112t26 -149.5
l5 -38q17 -124 31 -206t33 -128l-110 -68q-25 58 -42.5 182z" />
    <glyph glyph-name="zero.dnom" horiz-adv-x="372" 
d="M296 36q-39 -41 -110 -41t-110.5 40.5t-40.5 114.5v81q0 77 40 118.5t110 41.5t110 -42t40 -117v-79q0 -76 -39 -117zM185 314q-50 0 -53 -73v-93q0 -40 13 -58.5t41 -18.5q51 0 53 71v93q0 79 -54 79z" />
    <glyph glyph-name="one.dnom" horiz-adv-x="372" 
d="M256 0h-96v273l-94 -21v74l180 58h10v-384z" />
    <glyph glyph-name="two.dnom" horiz-adv-x="372" 
d="M337 0h-300v64l142 129q25 22 38 43t13 34q0 21 -13 32.5t-37 11.5q-26 0 -40.5 -15.5t-14.5 -40.5l-94 3q0 58 40 94t105 36q71 0 110.5 -31t39.5 -89q0 -43 -33 -82q-23 -28 -72 -64l-58 -49h174v-76z" />
    <glyph glyph-name="three.dnom" horiz-adv-x="372" 
d="M133 228h42q29 0 44 12t15 33q0 19 -14 30t-41 11q-22 0 -37 -9t-15 -24h-96q0 49 40.5 79.5t105.5 30.5q71 0 112 -30t41 -81q0 -28 -17 -49t-50 -33q74 -21 74 -90q0 -51 -44 -82t-116 -31q-69 0 -111 32.5t-42 86.5h97q0 -18 17 -30.5t45 -12.5t42.5 12.5t14.5 32.5
q0 48 -63 48h-44v64z" />
    <glyph glyph-name="four.dnom" horiz-adv-x="372" 
d="M299 157h44v-78h-44v-79h-97v79h-170l-6 62l176 244h97v-228zM119 157h83v112l-8 -12z" />
    <glyph glyph-name="five.dnom" horiz-adv-x="372" 
d="M44 187l26 198h244v-75h-165l-11 -70q35 13 66 13q64 0 98 -32.5t34 -91.5q0 -60 -41.5 -97t-108.5 -37q-63 0 -106.5 32t-44.5 81h97q2 -37 54 -37q26 0 39.5 15t13.5 43t-15 43t-45 15q-33 0 -58 -18z" />
    <glyph glyph-name="six.dnom" horiz-adv-x="372" 
d="M174.5 291.5q-33.5 -22.5 -40.5 -66.5q35 32 87 32q57 0 90 -35t33 -94q0 -57 -42.5 -95t-108.5 -38q-74 0 -116 40t-42 113v28q0 103 62 160t180 57v-78q-69 -1 -102.5 -23.5zM155.5 174q-15.5 -7 -23.5 -20v-18q0 -65 59 -65q24 0 40 16.5t16 40.5q0 53 -57 53
q-19 0 -34.5 -7z" />
    <glyph glyph-name="seven.dnom" horiz-adv-x="372" 
d="M336 332l-163 -332h-102l164 308h-210v77h311v-53z" />
    <glyph glyph-name="eight.dnom" horiz-adv-x="372" 
d="M75.5 24.5q-40.5 29.5 -40.5 81.5q0 64 65 92q-56 29 -56 84q0 50 38 79.5t103 29.5q66 0 104 -29t38 -80q0 -57 -56 -84q65 -29 65 -92q0 -52 -40 -81.5t-110 -29.5t-110.5 29.5zM224.5 83q15.5 12 15.5 32q0 21 -14.5 32t-40.5 11t-39.5 -11t-13.5 -32q0 -20 15.5 -32
t38.5 -12t38.5 12zM218.5 245.5q11.5 10.5 11.5 29.5t-11.5 29t-33.5 10q-44 0 -44 -39q0 -19 11.5 -29.5t33.5 -10.5q21 0 32.5 10.5z" />
    <glyph glyph-name="nine.dnom" horiz-adv-x="372" 
d="M198 86.5q30 16.5 37 63.5q-31 -27 -74 -27q-61 0 -94 33.5t-33 94.5q0 39 19.5 71t53.5 50.5t76 18.5q70 0 109 -40.5t41 -113.5v-31q0 -105 -55.5 -157.5t-172.5 -53.5v75q63 0 93 16.5zM237 216v36q0 62 -54 62q-24 0 -38.5 -18.5t-14.5 -45.5q0 -26 15 -41t42 -15
q33 0 50 22z" />
    <glyph glyph-name="uni2080" unicode="&#x2080;" horiz-adv-x="372" 
d="M296 36q-39 -41 -110 -41t-110.5 40.5t-40.5 114.5v81q0 77 40 118.5t110 41.5t110 -42t40 -117v-79q0 -76 -39 -117zM185 314q-50 0 -53 -73v-93q0 -40 13 -58.5t41 -18.5q51 0 53 71v93q0 79 -54 79z" />
    <glyph glyph-name="uni2081" unicode="&#x2081;" horiz-adv-x="372" 
d="M256 0h-96v273l-94 -21v74l180 58h10v-384z" />
    <glyph glyph-name="uni2082" unicode="&#x2082;" horiz-adv-x="372" 
d="M337 0h-300v64l142 129q25 22 38 43t13 34q0 21 -13 32.5t-37 11.5q-26 0 -40.5 -15.5t-14.5 -40.5l-94 3q0 58 40 94t105 36q71 0 110.5 -31t39.5 -89q0 -43 -33 -82q-23 -28 -72 -64l-58 -49h174v-76z" />
    <glyph glyph-name="uni2083" unicode="&#x2083;" horiz-adv-x="372" 
d="M133 228h42q29 0 44 12t15 33q0 19 -14 30t-41 11q-22 0 -37 -9t-15 -24h-96q0 49 40.5 79.5t105.5 30.5q71 0 112 -30t41 -81q0 -28 -17 -49t-50 -33q74 -21 74 -90q0 -51 -44 -82t-116 -31q-69 0 -111 32.5t-42 86.5h97q0 -18 17 -30.5t45 -12.5t42.5 12.5t14.5 32.5
q0 48 -63 48h-44v64z" />
    <glyph glyph-name="uni2084" unicode="&#x2084;" horiz-adv-x="372" 
d="M299 157h44v-78h-44v-79h-97v79h-170l-6 62l176 244h97v-228zM119 157h83v112l-8 -12z" />
    <glyph glyph-name="uni2085" unicode="&#x2085;" horiz-adv-x="372" 
d="M44 187l26 198h244v-75h-165l-11 -70q35 13 66 13q64 0 98 -32.5t34 -91.5q0 -60 -41.5 -97t-108.5 -37q-63 0 -106.5 32t-44.5 81h97q2 -37 54 -37q26 0 39.5 15t13.5 43t-15 43t-45 15q-33 0 -58 -18z" />
    <glyph glyph-name="uni2086" unicode="&#x2086;" horiz-adv-x="372" 
d="M174.5 291.5q-33.5 -22.5 -40.5 -66.5q35 32 87 32q57 0 90 -35t33 -94q0 -57 -42.5 -95t-108.5 -38q-74 0 -116 40t-42 113v28q0 103 62 160t180 57v-78q-69 -1 -102.5 -23.5zM155.5 174q-15.5 -7 -23.5 -20v-18q0 -65 59 -65q24 0 40 16.5t16 40.5q0 53 -57 53
q-19 0 -34.5 -7z" />
    <glyph glyph-name="uni2087" unicode="&#x2087;" horiz-adv-x="372" 
d="M336 332l-163 -332h-102l164 308h-210v77h311v-53z" />
    <glyph glyph-name="uni2088" unicode="&#x2088;" horiz-adv-x="372" 
d="M75.5 24.5q-40.5 29.5 -40.5 81.5q0 64 65 92q-56 29 -56 84q0 50 38 79.5t103 29.5q66 0 104 -29t38 -80q0 -57 -56 -84q65 -29 65 -92q0 -52 -40 -81.5t-110 -29.5t-110.5 29.5zM224.5 83q15.5 12 15.5 32q0 21 -14.5 32t-40.5 11t-39.5 -11t-13.5 -32q0 -20 15.5 -32
t38.5 -12t38.5 12zM218.5 245.5q11.5 10.5 11.5 29.5t-11.5 29t-33.5 10q-44 0 -44 -39q0 -19 11.5 -29.5t33.5 -10.5q21 0 32.5 10.5z" />
    <glyph glyph-name="uni2089" unicode="&#x2089;" horiz-adv-x="372" 
d="M198 86.5q30 16.5 37 63.5q-31 -27 -74 -27q-61 0 -94 33.5t-33 94.5q0 39 19.5 71t53.5 50.5t76 18.5q70 0 109 -40.5t41 -113.5v-31q0 -105 -55.5 -157.5t-172.5 -53.5v75q63 0 93 16.5zM237 216v36q0 62 -54 62q-24 0 -38.5 -18.5t-14.5 -45.5q0 -26 15 -41t42 -15
q33 0 50 22z" />
    <glyph glyph-name="zero.numr" horiz-adv-x="372" 
d="M296 321q-39 -41 -110 -41t-110.5 40.5t-40.5 114.5v81q0 77 40 118.5t110 41.5t110 -42t40 -117v-79q0 -76 -39 -117zM185 599q-50 0 -53 -73v-93q0 -40 13 -58.5t41 -18.5q51 0 53 71v93q0 79 -54 79z" />
    <glyph glyph-name="one.numr" horiz-adv-x="372" 
d="M256 285h-96v273l-94 -21v74l180 58h10v-384z" />
    <glyph glyph-name="two.numr" horiz-adv-x="372" 
d="M337 285h-300v64l142 129q25 22 38 43t13 34q0 21 -13 32.5t-37 11.5q-26 0 -40.5 -15.5t-14.5 -40.5l-94 3q0 58 40 94t105 36q71 0 110.5 -31t39.5 -89q0 -43 -33 -82q-23 -28 -72 -64l-58 -49h174v-76z" />
    <glyph glyph-name="three.numr" horiz-adv-x="372" 
d="M133 513h42q29 0 44 12t15 33q0 19 -14 30t-41 11q-22 0 -37 -9t-15 -24h-96q0 49 40.5 79.5t105.5 30.5q71 0 112 -30t41 -81q0 -28 -17 -49t-50 -33q74 -21 74 -90q0 -51 -44 -82t-116 -31q-69 0 -111 32.5t-42 86.5h97q0 -18 17 -30.5t45 -12.5t42.5 12.5t14.5 32.5
q0 48 -63 48h-44v64z" />
    <glyph glyph-name="four.numr" horiz-adv-x="372" 
d="M299 442h44v-78h-44v-79h-97v79h-170l-6 62l176 244h97v-228zM119 442h83v112l-8 -12z" />
    <glyph glyph-name="five.numr" horiz-adv-x="372" 
d="M44 472l26 198h244v-75h-165l-11 -70q35 13 66 13q64 0 98 -32.5t34 -91.5q0 -60 -41.5 -97t-108.5 -37q-63 0 -106.5 32t-44.5 81h97q2 -37 54 -37q26 0 39.5 15t13.5 43t-15 43t-45 15q-33 0 -58 -18z" />
    <glyph glyph-name="six.numr" horiz-adv-x="372" 
d="M174.5 576.5q-33.5 -22.5 -40.5 -66.5q35 32 87 32q57 0 90 -35t33 -94q0 -57 -42.5 -95t-108.5 -38q-74 0 -116 40t-42 113v28q0 103 62 160t180 57v-78q-69 -1 -102.5 -23.5zM155.5 459q-15.5 -7 -23.5 -20v-18q0 -65 59 -65q24 0 40 16.5t16 40.5q0 53 -57 53
q-19 0 -34.5 -7z" />
    <glyph glyph-name="seven.numr" horiz-adv-x="372" 
d="M336 617l-163 -332h-102l164 308h-210v77h311v-53z" />
    <glyph glyph-name="eight.numr" horiz-adv-x="372" 
d="M75.5 309.5q-40.5 29.5 -40.5 81.5q0 64 65 92q-56 29 -56 84q0 50 38 79.5t103 29.5q66 0 104 -29t38 -80q0 -57 -56 -84q65 -29 65 -92q0 -52 -40 -81.5t-110 -29.5t-110.5 29.5zM224.5 368q15.5 12 15.5 32q0 21 -14.5 32t-40.5 11t-39.5 -11t-13.5 -32
q0 -20 15.5 -32t38.5 -12t38.5 12zM218.5 530.5q11.5 10.5 11.5 29.5t-11.5 29t-33.5 10q-44 0 -44 -39q0 -19 11.5 -29.5t33.5 -10.5q21 0 32.5 10.5z" />
    <glyph glyph-name="nine.numr" horiz-adv-x="372" 
d="M198 371.5q30 16.5 37 63.5q-31 -27 -74 -27q-61 0 -94 33.5t-33 94.5q0 39 19.5 71t53.5 50.5t76 18.5q70 0 109 -40.5t41 -113.5v-31q0 -105 -55.5 -157.5t-172.5 -53.5v75q63 0 93 16.5zM237 501v36q0 62 -54 62q-24 0 -38.5 -18.5t-14.5 -45.5q0 -26 15 -41t42 -15
q33 0 50 22z" />
    <glyph glyph-name="uni2070" unicode="&#x2070;" horiz-adv-x="372" 
d="M296 321q-39 -41 -110 -41t-110.5 40.5t-40.5 114.5v81q0 77 40 118.5t110 41.5t110 -42t40 -117v-79q0 -76 -39 -117zM185 599q-50 0 -53 -73v-93q0 -40 13 -58.5t41 -18.5q51 0 53 71v93q0 79 -54 79z" />
    <glyph glyph-name="uni00B9" unicode="&#xb9;" horiz-adv-x="372" 
d="M256 285h-96v273l-94 -21v74l180 58h10v-384z" />
    <glyph glyph-name="uni00B2" unicode="&#xb2;" horiz-adv-x="372" 
d="M337 285h-300v64l142 129q25 22 38 43t13 34q0 21 -13 32.5t-37 11.5q-26 0 -40.5 -15.5t-14.5 -40.5l-94 3q0 58 40 94t105 36q71 0 110.5 -31t39.5 -89q0 -43 -33 -82q-23 -28 -72 -64l-58 -49h174v-76z" />
    <glyph glyph-name="uni00B3" unicode="&#xb3;" horiz-adv-x="372" 
d="M133 513h42q29 0 44 12t15 33q0 19 -14 30t-41 11q-22 0 -37 -9t-15 -24h-96q0 49 40.5 79.5t105.5 30.5q71 0 112 -30t41 -81q0 -28 -17 -49t-50 -33q74 -21 74 -90q0 -51 -44 -82t-116 -31q-69 0 -111 32.5t-42 86.5h97q0 -18 17 -30.5t45 -12.5t42.5 12.5t14.5 32.5
q0 48 -63 48h-44v64z" />
    <glyph glyph-name="uni2074" unicode="&#x2074;" horiz-adv-x="372" 
d="M299 442h44v-78h-44v-79h-97v79h-170l-6 62l176 244h97v-228zM119 442h83v112l-8 -12z" />
    <glyph glyph-name="uni2075" unicode="&#x2075;" horiz-adv-x="372" 
d="M44 472l26 198h244v-75h-165l-11 -70q35 13 66 13q64 0 98 -32.5t34 -91.5q0 -60 -41.5 -97t-108.5 -37q-63 0 -106.5 32t-44.5 81h97q2 -37 54 -37q26 0 39.5 15t13.5 43t-15 43t-45 15q-33 0 -58 -18z" />
    <glyph glyph-name="uni2076" unicode="&#x2076;" horiz-adv-x="372" 
d="M174.5 576.5q-33.5 -22.5 -40.5 -66.5q35 32 87 32q57 0 90 -35t33 -94q0 -57 -42.5 -95t-108.5 -38q-74 0 -116 40t-42 113v28q0 103 62 160t180 57v-78q-69 -1 -102.5 -23.5zM155.5 459q-15.5 -7 -23.5 -20v-18q0 -65 59 -65q24 0 40 16.5t16 40.5q0 53 -57 53
q-19 0 -34.5 -7z" />
    <glyph glyph-name="uni2077" unicode="&#x2077;" horiz-adv-x="372" 
d="M336 617l-163 -332h-102l164 308h-210v77h311v-53z" />
    <glyph glyph-name="uni2078" unicode="&#x2078;" horiz-adv-x="372" 
d="M75.5 309.5q-40.5 29.5 -40.5 81.5q0 64 65 92q-56 29 -56 84q0 50 38 79.5t103 29.5q66 0 104 -29t38 -80q0 -57 -56 -84q65 -29 65 -92q0 -52 -40 -81.5t-110 -29.5t-110.5 29.5zM224.5 368q15.5 12 15.5 32q0 21 -14.5 32t-40.5 11t-39.5 -11t-13.5 -32
q0 -20 15.5 -32t38.5 -12t38.5 12zM218.5 530.5q11.5 10.5 11.5 29.5t-11.5 29t-33.5 10q-44 0 -44 -39q0 -19 11.5 -29.5t33.5 -10.5q21 0 32.5 10.5z" />
    <glyph glyph-name="uni2079" unicode="&#x2079;" horiz-adv-x="372" 
d="M198 371.5q30 16.5 37 63.5q-31 -27 -74 -27q-61 0 -94 33.5t-33 94.5q0 39 19.5 71t53.5 50.5t76 18.5q70 0 109 -40.5t41 -113.5v-31q0 -105 -55.5 -157.5t-172.5 -53.5v75q63 0 93 16.5zM237 501v36q0 62 -54 62q-24 0 -38.5 -18.5t-14.5 -45.5q0 -26 15 -41t42 -15
q33 0 50 22z" />
    <glyph glyph-name="fraction" unicode="&#x2044;" horiz-adv-x="446" 
d="M82 53l-66 37l347 555l66 -36z" />
    <glyph glyph-name="onehalf" unicode="&#xbd;" horiz-adv-x="848" 
d="M237 266h-96v273l-94 -21v74l180 58h10v-384zM258 53l-66 37l347 555l66 -36zM800 65h-300v64l142 129q25 22 38 43t13 34q0 21 -13 32.5t-37 11.5q-26 0 -40.5 -15.5t-14.5 -40.5l-94 3q0 58 40 94t105 36q71 0 110.5 -31t39.5 -89q0 -43 -33 -82q-23 -28 -72 -64
l-58 -49h174v-76z" />
    <glyph glyph-name="onequarter" unicode="&#xbc;" horiz-adv-x="797" 
d="M237 266h-96v273l-94 -21v74l180 58h10v-384zM258 53l-66 37l347 555l66 -36zM703 213h44v-78h-44v-79h-97v79h-170l-6 62l176 244h97v-228zM523 213h83v112l-8 -12z" />
    <glyph glyph-name="threequarters" unicode="&#xbe;" horiz-adv-x="843" 
d="M158 499h42q29 0 44 12t15 33q0 19 -14 30t-41 11q-22 0 -37 -9t-15 -24h-96q0 49 40.5 79.5t105.5 30.5q71 0 112 -30t41 -81q0 -28 -17 -49t-50 -33q74 -21 74 -90q0 -51 -44 -82t-116 -31q-69 0 -111 32.5t-42 86.5h97q0 -18 17 -30.5t45 -12.5t42.5 12.5t14.5 32.5
q0 48 -63 48h-44v64zM313 53l-66 37l347 555l66 -36zM750 222h44v-78h-44v-79h-97v79h-170l-6 62l176 244h97v-228zM570 222h83v112l-8 -12z" />
    <glyph glyph-name="uni200E" unicode="&#x200e;" 
 />
    <glyph glyph-name="uni200F" unicode="&#x200f;" 
 />
    <glyph glyph-name="uniFEFF" unicode="&#xfeff;" 
 />
    <glyph glyph-name="uni200D" unicode="&#x200d;" 
 />
    <glyph glyph-name="uni200C" unicode="&#x200c;" 
 />
    <glyph glyph-name="uni200A" unicode="&#x200a;" horiz-adv-x="64" 
 />
    <glyph glyph-name="uni00A0" unicode="&#xa0;" horiz-adv-x="45" 
 />
    <glyph glyph-name="uni2009" unicode="&#x2009;" horiz-adv-x="92" 
 />
    <glyph glyph-name="uni200B" unicode="&#x200b;" 
 />
    <glyph glyph-name="uni06D4" unicode="&#x6d4;" horiz-adv-x="344" 
d="M108.5 26q-25.5 26 -25.5 64t25.5 63t63.5 25t63.5 -25.5t25.5 -62.5q0 -38 -25.5 -64t-63.5 -26t-63.5 26z" />
    <glyph glyph-name="uni060C" unicode="&#x60c;" horiz-adv-x="310" 
d="M84.5 29q-30.5 33 -30.5 84q0 62 38.5 127t99.5 103l56 -55q-74 -55 -101 -118q2 0 7 1.5t10 1.5q35 0 60 -25.5t25 -61.5t-26 -62t-60 -26q-48 -2 -78.5 31z" />
    <glyph glyph-name="uni061B" unicode="&#x61b;" horiz-adv-x="310" 
d="M91.5 22q-25.5 26 -25.5 64t25.5 63t63.5 25t63.5 -25.5t25.5 -62.5q0 -38 -25.5 -64t-63.5 -26t-63.5 26zM90.5 331q-30.5 33 -30.5 84q0 62 38.5 127t99.5 103l56 -55q-74 -55 -101 -118q2 0 7 1.5t10 1.5q35 0 60 -25.5t25 -61.5t-26 -62t-60 -26q-48 -2 -78.5 31z
" />
    <glyph glyph-name="uni061F" unicode="&#x61f;" horiz-adv-x="524" 
d="M221 10q-24 24 -24 60q0 35 24 59t60 24q35 0 59.5 -24t24.5 -59q0 -36 -24.5 -60t-59.5 -24q-36 0 -60 24zM358 580.5q-12 26.5 -35.5 44.5t-58.5 18q-43 0 -72.5 -29.5t-29.5 -70.5q0 -22 7 -35.5t24.5 -29.5t66.5 -53q14 -10 21 -16q23 -18 33 -36.5t13 -45t3 -80.5
v-28h-101v61q0 20 -56 69q-48 41 -71 64.5t-36.5 55.5t-13.5 78q0 57 28.5 107.5t77 81.5t106.5 31q59 0 106.5 -31t74.5 -82.5t28 -111.5l-102 -12q-1 24 -13 50.5z" />
    <glyph glyph-name="uni066D" unicode="&#x66d;" horiz-adv-x="742" 
d="M237 486l68 -158l-2 -1l-158 66l1 93h91zM117 325l159 -64v-2l-159 -65l-65 67zM145 126l157 67l2 -1l-67 -158l-92 1v91zM305 5l64 159h2l65 -158l-66 -65zM504 33l-67 158l2 1l158 -66l-1 -93h-92zM625 194l-159 64v2l159 65l65 -66zM597 393l-157 -67l-2 1l67 158
l92 -1v-91zM436 514l-63 -159h-2l-65 159l66 64zM322.5 211.5q-19.5 19.5 -19.5 48.5q0 28 20 47.5t48 19.5q27 0 47 -19.5t20 -47.5q0 -29 -19.5 -48.5t-47.5 -19.5q-29 0 -48.5 19.5z" />
    <glyph glyph-name="uniFD3E" unicode="&#xfd3e;" horiz-adv-x="425" 
d="M223.5 545q-66.5 -112 -66.5 -265q0 -157 65.5 -266t156.5 -188l-74 -89q-118 91 -195.5 228.5t-77.5 314.5q0 179 77 315.5t196 228.5l74 -89q-89 -78 -155.5 -190z" />
    <glyph glyph-name="uniFD3F" unicode="&#xfd3f;" horiz-adv-x="425" 
d="M316 595.5q77 -136.5 77 -315.5q0 -177 -77.5 -314.5t-195.5 -228.5l-74 89q91 79 156.5 188t65.5 266q0 153 -66.5 265t-155.5 190l74 89q119 -92 196 -228.5z" />
    <glyph glyph-name="period" unicode="." horiz-adv-x="344" 
d="M108.5 26q-25.5 26 -25.5 64t25.5 63t63.5 25t63.5 -25.5t25.5 -62.5q0 -38 -25.5 -64t-63.5 -26t-63.5 26z" />
    <glyph glyph-name="comma" unicode="," horiz-adv-x="273" 
d="M63.5 -62q12.5 38 13.5 73v121h131v-105q-1 -59 -31 -120.5t-76 -100.5l-80 42q30 52 42.5 90z" />
    <glyph glyph-name="colon" unicode=":" horiz-adv-x="297" 
d="M85.5 329q-25.5 26 -25.5 64t25.5 63t63.5 25t63.5 -25.5t25.5 -62.5q0 -38 -25.5 -64t-63.5 -26t-63.5 26zM85.5 21q-25.5 26 -25.5 64t25.5 63t63.5 25t63.5 -25.5t25.5 -62.5q0 -38 -25.5 -64t-63.5 -26t-63.5 26z" />
    <glyph glyph-name="semicolon" unicode=";" horiz-adv-x="332" 
d="M97.5 -62q12.5 38 13.5 73v121h131v-105q-1 -59 -31 -120.5t-76 -100.5l-80 42q30 52 42.5 90zM114.5 323q-25.5 26 -25.5 64t25.5 63t63.5 25t63.5 -25.5t25.5 -62.5q0 -38 -25.5 -64t-63.5 -26t-63.5 26z" />
    <glyph glyph-name="ellipsis" unicode="&#x2026;" horiz-adv-x="913" 
d="M103.5 26q-25.5 26 -25.5 64t25.5 63t63.5 25t63.5 -25.5t25.5 -62.5q0 -38 -25.5 -64t-63.5 -26t-63.5 26zM391.5 26q-25.5 26 -25.5 64t25.5 63t63.5 25t63.5 -25.5t25.5 -62.5q0 -38 -25.5 -64t-63.5 -26t-63.5 26zM681.5 26q-25.5 26 -25.5 64t25.5 63t63.5 25
t63.5 -25.5t25.5 -62.5q0 -38 -25.5 -64t-63.5 -26t-63.5 26z" />
    <glyph glyph-name="exclam" unicode="!" horiz-adv-x="298" 
d="M205 233h-109l-16 496h140zM91 10.5q-24 24.5 -24 60.5q0 35 24 58.5t60 23.5q35 0 59.5 -23.5t24.5 -58.5q0 -36 -24.5 -60.5t-59.5 -24.5q-36 0 -60 24.5z" />
    <glyph glyph-name="question" unicode="?" horiz-adv-x="494" 
d="M185.5 315.5q14.5 38.5 50.5 72.5q43 41 54 54q33 38 33 79q0 43 -20 65.5t-60 22.5q-38 0 -60.5 -23.5t-23.5 -63.5h-135q1 91 59 143t160 52t158.5 -50t56.5 -141q0 -41 -17.5 -78t-54.5 -74q-19 -17 -55 -53q-21 -21 -30 -46.5t-10 -63.5h-121q1 66 15.5 104.5z
M174.5 3q-23.5 24 -23.5 59q0 34 23.5 57t58.5 23t58.5 -23t23.5 -57q0 -35 -23.5 -59t-58.5 -24t-58.5 24z" />
    <glyph glyph-name="bullet" unicode="&#x2022;" horiz-adv-x="532" 
d="M185 -3.5q-37 21.5 -58.5 58.5t-21.5 81t21.5 81t58.5 58.5t81 21.5t81 -21.5t58.5 -58.5t21.5 -81t-21.5 -81t-58.5 -58.5t-81 -21.5t-81 21.5z" />
    <glyph glyph-name="asterisk" unicode="*" horiz-adv-x="451" 
d="M168 472l-155 44l28 85l153 -60l-10 170h93l-9 -173l148 58l29 -85l-157 -44l103 -131l-75 -53l-90 142l-89 -137l-75 50z" />
    <glyph glyph-name="numbersign" unicode="#" horiz-adv-x="595" 
d="M329 200h-99l-35 -200h-87l36 200h-112v81h126l26 146h-115v81h129l36 203h86l-36 -203h99l36 203h86l-36 -203h108v-81h-122l-26 -146h111v-81h-125l-35 -200h-87zM244 281h98l27 146h-99z" />
    <glyph glyph-name="slash" unicode="/" horiz-adv-x="375" 
d="M98 -61h-104l264 772h104z" />
    <glyph glyph-name="backslash" unicode="\" horiz-adv-x="375" 
d="M117 711l264 -772h-104l-264 772h104z" />
    <glyph glyph-name="period.001" 
d="M86.5 593q-25.5 26 -25.5 64t25.5 63t63.5 25t63.5 -25.5t25.5 -62.5q0 -38 -25.5 -64t-63.5 -26t-63.5 26z" />
    <glyph glyph-name="hyphen" unicode="-" horiz-adv-x="380" 
d="M323 252h-271v106h271v-106z" />
    <glyph glyph-name="underscore" unicode="_" horiz-adv-x="445" 
d="M444 -103h-443v103h443v-103z" />
    <glyph glyph-name="parenleft" unicode="(" horiz-adv-x="425" 
d="M223.5 545q-66.5 -112 -66.5 -265q0 -157 65.5 -266t156.5 -188l-74 -89q-118 91 -195.5 228.5t-77.5 314.5q0 179 77 315.5t196 228.5l74 -89q-89 -78 -155.5 -190z" />
    <glyph glyph-name="parenright" unicode=")" horiz-adv-x="425" 
d="M316 595.5q77 -136.5 77 -315.5q0 -177 -77.5 -314.5t-195.5 -228.5l-74 89q91 79 156.5 188t65.5 266q0 153 -66.5 265t-155.5 190l74 89q119 -92 196 -228.5z" />
    <glyph glyph-name="braceleft" unicode="{" horiz-adv-x="330" 
d="M113 50v97q0 107 -89 107v95q89 0 89 107v102q1 88 44.5 142.5t130.5 79.5l26 -74q-77 -27 -79 -147v-103q0 -110 -87 -155q87 -45 87 -155v-103q2 -119 79 -146l-26 -74q-175 50 -175 227z" />
    <glyph glyph-name="braceright" unicode="}" horiz-adv-x="324" 
d="M95 43v103q0 110 87 155q-87 45 -87 155v103q-2 120 -79 147l26 74q87 -25 130.5 -79.5t44.5 -142.5v-102q0 -107 89 -107v-95q-89 0 -89 -107v-97q0 -177 -175 -227l-26 74q77 27 79 146z" />
    <glyph glyph-name="bracketleft" unicode="[" horiz-adv-x="275" 
d="M267 723h-71v-785h71v-101h-207v988h207v-102z" />
    <glyph glyph-name="bracketright" unicode="]" horiz-adv-x="275" 
d="M6 825h207v-988h-207v101h73v785h-73v102z" />
    <glyph glyph-name="quotedblbase" unicode="&#x201e;" horiz-adv-x="462" 
d="M64.5 -62q12.5 38 13.5 73v121h131v-105q-1 -59 -31 -120.5t-76 -100.5l-80 42q30 52 42.5 90zM273.5 -62q12.5 38 13.5 73v121h131v-105q-1 -59 -31 -120.5t-76 -100.5l-80 42q30 52 42.5 90z" />
    </font>
</defs>
</svg>
